<?xml version='1.0' encoding='UTF-8' standalone='no'?>
<svg xmlns="http://www.w3.org/2000/svg" height="432pt" xmlns:xlink="http://www.w3.org/1999/xlink" width="576pt" viewBox="0 0 576 432">
 <title>gl2ps_renderer figure</title>
 <desc>
Creator: GL2PS 1.4.2, (C) 1999-2020 C. Geuzaine
For: Octave
CreationDate: Sun Dec 27 15:04:35 2020
</desc>
 <defs/>
 <polygon fill="#ffffff" points="0,0 576,0 576,432 0,432"/>
 <g>
  <polygon fill="#ffffff" points="0,432 576,432 576,0 0,0" shape-rendering="crispEdges"/>
  <clipPath id="cp00576432">
   <polygon points="0,432 576,432 576,0 0,0"/>
  </clipPath>
  <g clip-path="url(#cp00576432)">
   <polygon fill="#ffffff" points="74.8799,384.48 521.28,384.48 521.28,32.3999 74.8799,32.3999" shape-rendering="crispEdges"/>
   <polyline stroke-dasharray="16,0" fill="none" stroke="#262626" stroke-opacity="0.15" stroke-linejoin="miter" stroke-linecap="butt" points="74.8799,384.48 74.8799,32.3999" stroke-width="0.5"/>
   <polyline stroke-dasharray="16,0" fill="none" stroke="#262626" stroke-opacity="0.15" stroke-linejoin="miter" stroke-linecap="butt" points="186.48,384.48 186.48,32.3999" stroke-width="0.5"/>
   <polyline stroke-dasharray="16,0" fill="none" stroke="#262626" stroke-opacity="0.15" stroke-linejoin="miter" stroke-linecap="butt" points="298.08,384.48 298.08,32.3999" stroke-width="0.5"/>
   <polyline stroke-dasharray="16,0" fill="none" stroke="#262626" stroke-opacity="0.15" stroke-linejoin="miter" stroke-linecap="butt" points="409.68,384.48 409.68,32.3999" stroke-width="0.5"/>
   <polyline stroke-dasharray="16,0" fill="none" stroke="#262626" stroke-opacity="0.15" stroke-linejoin="miter" stroke-linecap="butt" points="521.28,384.48 521.28,32.3999" stroke-width="0.5"/>
   <polyline fill="none" stroke="#262626" stroke-linejoin="miter" stroke-linecap="butt" points="74.8799,384.48 74.8799,380.015" stroke-width="0.5"/>
   <polyline fill="none" stroke="#262626" stroke-linejoin="miter" stroke-linecap="butt" points="74.8799,32.3999 74.8799,36.8652" stroke-width="0.5"/>
   <polyline fill="none" stroke="#262626" stroke-linejoin="miter" stroke-linecap="butt" points="186.48,384.48 186.48,380.015" stroke-width="0.5"/>
   <polyline fill="none" stroke="#262626" stroke-linejoin="miter" stroke-linecap="butt" points="186.48,32.3999 186.48,36.8652" stroke-width="0.5"/>
   <polyline fill="none" stroke="#262626" stroke-linejoin="miter" stroke-linecap="butt" points="298.08,384.48 298.08,380.015" stroke-width="0.5"/>
   <polyline fill="none" stroke="#262626" stroke-linejoin="miter" stroke-linecap="butt" points="298.08,32.3999 298.08,36.8652" stroke-width="0.5"/>
   <polyline fill="none" stroke="#262626" stroke-linejoin="miter" stroke-linecap="butt" points="409.68,384.48 409.68,380.015" stroke-width="0.5"/>
   <polyline fill="none" stroke="#262626" stroke-linejoin="miter" stroke-linecap="butt" points="409.68,32.3999 409.68,36.8652" stroke-width="0.5"/>
   <polyline fill="none" stroke="#262626" stroke-linejoin="miter" stroke-linecap="butt" points="521.28,384.48 521.28,380.015" stroke-width="0.5"/>
   <polyline fill="none" stroke="#262626" stroke-linejoin="miter" stroke-linecap="butt" points="521.28,32.3999 521.28,36.8652" stroke-width="0.5"/>
   <text transform="translate(71.88,399.982) rotate(-0,3,-8)" font-size="10" font-weight="normal" font-family="FreeSans" font-style="normal" xml:space="preserve">
    <tspan fill="rgb(38,38,38)" y="-0" x="0 ">0</tspan>
   </text>
   <text transform="translate(180.48,399.982) rotate(-0,6,-8)" font-size="10" font-weight="normal" font-family="FreeSans" font-style="normal" xml:space="preserve">
    <tspan fill="rgb(38,38,38)" y="-0" x="0 6 ">50</tspan>
   </text>
   <text transform="translate(289.08,399.982) rotate(-0,9,-8)" font-size="10" font-weight="normal" font-family="FreeSans" font-style="normal" xml:space="preserve">
    <tspan fill="rgb(38,38,38)" y="-0" x="0 6 12 ">100</tspan>
   </text>
   <text transform="translate(400.68,399.982) rotate(-0,9,-8)" font-size="10" font-weight="normal" font-family="FreeSans" font-style="normal" xml:space="preserve">
    <tspan fill="rgb(38,38,38)" y="-0" x="0 6 12 ">150</tspan>
   </text>
   <text transform="translate(512.28,399.982) rotate(-0,9,-8)" font-size="10" font-weight="normal" font-family="FreeSans" font-style="normal" xml:space="preserve">
    <tspan fill="rgb(38,38,38)" y="-0" x="0 6 12 ">200</tspan>
   </text>
   <polyline stroke-dasharray="16,0" fill="none" stroke="#262626" stroke-opacity="0.15" stroke-linejoin="miter" stroke-linecap="butt" points="74.8799,384.48 521.28,384.48" stroke-width="0.5"/>
   <polyline stroke-dasharray="16,0" fill="none" stroke="#262626" stroke-opacity="0.15" stroke-linejoin="miter" stroke-linecap="butt" points="74.8799,296.46 521.28,296.46" stroke-width="0.5"/>
   <polyline stroke-dasharray="16,0" fill="none" stroke="#262626" stroke-opacity="0.15" stroke-linejoin="miter" stroke-linecap="butt" points="74.8799,208.44 521.28,208.44" stroke-width="0.5"/>
   <polyline stroke-dasharray="16,0" fill="none" stroke="#262626" stroke-opacity="0.15" stroke-linejoin="miter" stroke-linecap="butt" points="74.8799,120.42 521.28,120.42" stroke-width="0.5"/>
   <polyline stroke-dasharray="16,0" fill="none" stroke="#262626" stroke-opacity="0.15" stroke-linejoin="miter" stroke-linecap="butt" points="74.8799,32.3999 521.28,32.3999" stroke-width="0.5"/>
   <polyline fill="none" stroke="#262626" stroke-linejoin="miter" stroke-linecap="butt" points="74.8799,384.48 79.3481,384.48" stroke-width="0.5"/>
   <polyline fill="none" stroke="#262626" stroke-linejoin="miter" stroke-linecap="butt" points="521.28,384.48 516.812,384.48" stroke-width="0.5"/>
   <polyline fill="none" stroke="#262626" stroke-linejoin="miter" stroke-linecap="butt" points="74.8799,296.46 79.3481,296.46" stroke-width="0.5"/>
   <polyline fill="none" stroke="#262626" stroke-linejoin="miter" stroke-linecap="butt" points="521.28,296.46 516.812,296.46" stroke-width="0.5"/>
   <polyline fill="none" stroke="#262626" stroke-linejoin="miter" stroke-linecap="butt" points="74.8799,208.44 79.3481,208.44" stroke-width="0.5"/>
   <polyline fill="none" stroke="#262626" stroke-linejoin="miter" stroke-linecap="butt" points="521.28,208.44 516.812,208.44" stroke-width="0.5"/>
   <polyline fill="none" stroke="#262626" stroke-linejoin="miter" stroke-linecap="butt" points="74.8799,120.42 79.3481,120.42" stroke-width="0.5"/>
   <polyline fill="none" stroke="#262626" stroke-linejoin="miter" stroke-linecap="butt" points="521.28,120.42 516.812,120.42" stroke-width="0.5"/>
   <polyline fill="none" stroke="#262626" stroke-linejoin="miter" stroke-linecap="butt" points="74.8799,32.3999 79.3481,32.3999" stroke-width="0.5"/>
   <polyline fill="none" stroke="#262626" stroke-linejoin="miter" stroke-linecap="butt" points="521.28,32.3999 516.812,32.3999" stroke-width="0.5"/>
   <text transform="translate(63.8755,388.48) rotate(-0,6,-4)" font-size="10" font-weight="normal" font-family="FreeSans" font-style="normal" xml:space="preserve">
    <tspan fill="rgb(38,38,38)" y="-0" x="0 ">0</tspan>
   </text>
   <text transform="translate(39.8755,300.46) rotate(-0,30,-4)" font-size="10" font-weight="normal" font-family="FreeSans" font-style="normal" xml:space="preserve">
    <tspan fill="rgb(38,38,38)" y="-0" x="0 6 12 18 24 ">50000</tspan>
   </text>
   <text transform="translate(33.8755,212.44) rotate(-0,36,-4)" font-size="10" font-weight="normal" font-family="FreeSans" font-style="normal" xml:space="preserve">
    <tspan fill="rgb(38,38,38)" y="-0" x="0 6 12 18 24 30 ">100000</tspan>
   </text>
   <text transform="translate(33.8755,124.42) rotate(-0,36,-4)" font-size="10" font-weight="normal" font-family="FreeSans" font-style="normal" xml:space="preserve">
    <tspan fill="rgb(38,38,38)" y="-0" x="0 6 12 18 24 30 ">150000</tspan>
   </text>
   <text transform="translate(33.8755,36.4) rotate(-0,36,-4)" font-size="10" font-weight="normal" font-family="FreeSans" font-style="normal" xml:space="preserve">
    <tspan fill="rgb(38,38,38)" y="-0" x="0 6 12 18 24 30 ">200000</tspan>
   </text>
   <polyline stroke-dasharray="16,0" fill="none" stroke="#262626" stroke-linejoin="miter" stroke-linecap="square" points="74.8799,384.48 521.28,384.48" stroke-width="0.5"/>
   <polyline stroke-dasharray="16,0" fill="none" stroke="#262626" stroke-linejoin="miter" stroke-linecap="square" points="74.8799,32.3999 521.28,32.3999" stroke-width="0.5"/>
   <polyline stroke-dasharray="16,0" fill="none" stroke="#262626" stroke-linejoin="miter" stroke-linecap="square" points="74.8799,384.48 74.8799,32.3999" stroke-width="0.5"/>
   <polyline stroke-dasharray="16,0" fill="none" stroke="#262626" stroke-linejoin="miter" stroke-linecap="square" points="521.28,384.48 521.28,32.3999" stroke-width="0.5"/>
   <text transform="translate(279.08,415.982) rotate(-0,19,-11)" font-size="11" font-weight="normal" font-family="FreeSans" font-style="normal" xml:space="preserve">
    <tspan fill="rgb(38,38,38)" y="-2" x="0 7 9 18 24 27 30 35 ">Time [s]</tspan>
   </text>
   <text transform="translate(-15.6245,208.44) rotate(-90,44.5,0)" font-size="11" font-weight="normal" font-family="FreeSans" font-style="normal" xml:space="preserve">
    <tspan fill="rgb(38,38,38)" y="-3" x="0 8 10 15 21 23 29 35 41 50 56 62 65 68 71 77 86 ">Displacement [km]</tspan>
   </text>
   <text transform="translate(214.58,22.4) rotate(-0,83.5,0)" font-size="11" font-weight="bold" font-family="FreeSans" font-style="normal" xml:space="preserve">
    <tspan fill="rgb(0,0,0)" y="-3" x="0 8 11 17 24 27 33 39 45 55 61 68 72 75 82 88 94 98 101 107 113 119 122 128 134 140 147 154 161 ">Displacement over 160 seconds</tspan>
   </text>
   <polyline fill="none" stroke="#0071bc" stroke-linejoin="round" stroke-linecap="butt" points="74.8799,384.48 78.4873,384.45 82.0947,384.359 85.7017,384.208 89.3091,383.996 92.9165,383.724 96.5234,383.391 100.131,382.998 103.738,382.544 107.346,382.03 110.953,381.456 114.56,380.821 118.167,380.125 121.774,379.369 125.382,378.553 128.989,377.676 132.596,376.738 136.204,375.74 139.811,374.682 143.418,373.563 147.025,372.384 150.633,371.144 154.24,369.843 157.847,368.482 161.455,367.062 165.062,365.58 168.669,364.037 172.276,362.435 175.884,360.771 179.491,359.047 183.098,357.263 186.706,355.418 190.312,353.513 193.92,351.548 197.527,349.521 201.135,347.435 204.742,345.288 208.349,343.08 211.957,340.812 215.563,338.484 219.171,336.095 222.778,333.645 226.385,331.135 229.993,328.564 233.6,325.934 237.207,323.242 240.814,320.49 244.422,317.678 248.029,314.805 251.636,311.872 255.244,308.878 258.851,305.824 262.458,302.709 266.065,299.534 269.673,296.298 273.28,293.001 276.887,289.645 280.495,286.228 284.102,282.75 287.709,279.211 291.316,275.613 294.924,271.954 298.531,268.234 302.138,264.454 305.746,260.613 309.353,256.712 312.96,252.751 316.567,248.729 320.174,244.646 323.782,240.503 327.389,236.3 330.996,232.036 334.604,227.711 338.211,223.327 341.818,218.881 345.425,214.375 349.033,209.809 352.64,205.182 356.247,200.495 359.854,195.747 363.462,190.938 367.069,186.07 370.676,181.141 374.284,176.151 377.891,171.101 381.498,165.99 385.105,160.819 388.713,155.587 392.32,150.295 395.927,144.942 399.535,139.529 403.142,134.056 406.749,128.521 410.356,122.927 413.963,117.272 417.571,111.557 421.178,105.78 424.786,99.9438 428.393,94.0469 432,88.0894" stroke-width="0.5"/>
   <polyline fill="none" stroke="#d85218" stroke-linejoin="round" stroke-linecap="butt" points="74.8799,384.48 78.4873,384.45 82.0947,384.359 85.7017,384.208 89.3091,383.996 92.9165,383.724 96.5234,383.391 100.131,382.998 103.738,382.544 107.346,382.03 110.953,381.456 114.56,380.821 118.167,380.125 121.774,379.369 125.382,378.553 128.989,377.676 132.596,376.738 136.204,375.74 139.811,374.682 143.418,373.563 147.025,372.384 150.633,371.144 154.24,369.843 157.847,368.482 161.455,367.062 165.062,365.58 168.669,364.037 172.276,362.435 175.884,360.771 179.491,359.047 183.098,357.263 186.706,355.418 190.312,353.513 193.92,351.548 197.527,349.521 201.135,347.435 204.742,345.288 208.349,343.08 211.957,340.812 215.563,338.484 219.171,336.095 222.778,333.645 226.385,331.135 229.993,328.565 233.6,325.934 237.207,323.242 240.814,320.49 244.422,317.678 248.029,314.805 251.636,311.872 255.244,308.878 258.851,305.824 262.458,302.709 266.065,299.534 269.673,296.298 273.28,293.001 276.887,289.645 280.495,286.228 284.102,282.75 287.709,279.211 291.316,275.613 294.924,271.954 298.531,268.234 302.138,264.454 305.746,260.614 309.353,256.712 312.96,252.751 316.567,248.729 320.174,244.646 323.782,240.503 327.389,236.3 330.996,232.036 334.604,227.711 338.211,223.327 341.818,218.881 345.425,214.375 349.033,209.809 352.64,205.182 356.247,200.495 359.854,195.747 363.462,190.938 367.069,186.07 370.676,181.141 374.284,176.151 377.891,171.101 381.498,165.99 385.105,160.819 388.713,155.587 392.32,150.295 395.927,144.942 399.535,139.529 403.142,134.056 406.749,128.521 410.356,122.927 413.963,117.272 417.571,111.557 421.178,105.78 424.786,99.9438 428.393,94.0469 432,88.0894" stroke-width="0.5"/>
   <polyline fill="none" stroke="#ecb01f" stroke-linejoin="round" stroke-linecap="butt" points="74.8799,384.48 78.4873,384.45 82.0947,384.359 85.7017,384.208 89.3091,383.996 92.9165,383.724 96.5234,383.391 100.131,382.998 103.738,382.544 107.346,382.03 110.953,381.456 114.56,380.821 118.167,380.125 121.774,379.369 125.382,378.553 128.989,377.676 132.596,376.738 136.204,375.74 139.811,374.682 143.418,373.563 147.025,372.384 150.633,371.144 154.24,369.843 157.847,368.482 161.455,367.062 165.062,365.58 168.669,364.037 172.276,362.435 175.884,360.771 179.491,359.047 183.098,357.263 186.706,355.418 190.312,353.513 193.92,351.548 197.527,349.521 201.135,347.435 204.742,345.288 208.349,343.08 211.957,340.812 215.563,338.484 219.171,336.095 222.778,333.645 226.385,331.135 229.993,328.565 233.6,325.934 237.207,323.242 240.814,320.49 244.422,317.678 248.029,314.805 251.636,311.872 255.244,308.878 258.851,305.824 262.458,302.709 266.065,299.534 269.673,296.298 273.28,293.001 276.887,289.645 280.495,286.228 284.102,282.75 287.709,279.211 291.316,275.613 294.924,271.954 298.531,268.234 302.138,264.454 305.746,260.614 309.353,256.712 312.96,252.751 316.567,248.729 320.174,244.646 323.782,240.503 327.389,236.3 330.996,232.036 334.604,227.711 338.211,223.327 341.818,218.881 345.425,214.375 349.033,209.809 352.64,205.182 356.247,200.495 359.854,195.747 363.462,190.938 367.069,186.07 370.676,181.141 374.284,176.151 377.891,171.101 381.498,165.99 385.105,160.819 388.713,155.587 392.32,150.295 395.927,144.942 399.535,139.529 403.142,134.056 406.749,128.521 410.356,122.927 413.963,117.272 417.571,111.557 421.178,105.78 424.786,99.9438 428.393,94.0469 432,88.0894" stroke-width="0.5"/>
   <polyline fill="none" stroke="#7d2e8d" stroke-linejoin="round" stroke-linecap="butt" points="74.8799,384.48 78.4873,384.45 82.0947,384.359 85.7017,384.208 89.3091,383.996 92.9165,383.724 96.5234,383.392 100.131,382.998 103.738,382.544 107.346,382.03 110.953,381.456 114.56,380.821 118.167,380.125 121.774,379.369 125.382,378.553 128.989,377.676 132.596,376.738 136.204,375.74 139.811,374.682 143.418,373.563 147.025,372.384 150.633,371.144 154.24,369.843 157.847,368.482 161.455,367.062 165.062,365.58 168.669,364.037 172.276,362.435 175.884,360.771 179.491,359.047 183.098,357.263 186.706,355.418 190.312,353.513 193.92,351.548 197.527,349.521 201.135,347.435 204.742,345.288 208.349,343.08 211.957,340.812 215.563,338.484 219.171,336.095 222.778,333.645 226.385,331.135 229.993,328.565 233.6,325.934 237.207,323.242 240.814,320.49 244.422,317.678 248.029,314.805 251.636,311.872 255.244,308.878 258.851,305.824 262.458,302.709 266.065,299.534 269.673,296.298 273.28,293.001 276.887,289.645 280.495,286.228 284.102,282.75 287.709,279.211 291.316,275.613 294.924,271.954 298.531,268.234 302.138,264.454 305.746,260.614 309.353,256.712 312.96,252.751 316.567,248.729 320.174,244.646 323.782,240.503 327.389,236.3 330.996,232.036 334.604,227.711 338.211,223.327 341.818,218.881 345.425,214.375 349.033,209.809 352.64,205.182 356.247,200.495 359.854,195.747 363.462,190.938 367.069,186.07 370.676,181.141 374.284,176.151 377.891,171.101 381.498,165.99 385.105,160.819 388.713,155.587 392.32,150.295 395.927,144.942 399.535,139.529 403.142,134.056 406.749,128.521 410.356,122.927 413.963,117.272 417.571,111.557 421.178,105.78 424.786,99.9438 428.393,94.0469 432,88.0894" stroke-width="0.5"/>
  </g>
  <clipPath id="cp00576432">
   <polygon points="0,432 576,432 576,0 0,0"/>
  </clipPath>
  <g clip-path="url(#cp00576432)">
   <polygon fill="#ffffff" points="86.4233,108.173 151.082,108.173 151.082,43.9434 86.4233,43.9434" shape-rendering="crispEdges"/>
   <polyline stroke-dasharray="16,0" fill="none" stroke="#262626" stroke-linejoin="miter" stroke-linecap="square" points="86.4233,108.173 151.082,108.173" stroke-width="0.5"/>
   <polyline stroke-dasharray="16,0" fill="none" stroke="#262626" stroke-linejoin="miter" stroke-linecap="square" points="86.4233,43.9434 151.082,43.9434" stroke-width="0.5"/>
   <polyline stroke-dasharray="16,0" fill="none" stroke="#262626" stroke-linejoin="miter" stroke-linecap="square" points="86.4233,108.173 86.4233,43.9434" stroke-width="0.5"/>
   <polyline stroke-dasharray="16,0" fill="none" stroke="#262626" stroke-linejoin="miter" stroke-linecap="square" points="151.082,108.173 151.082,43.9434" stroke-width="0.5"/>
   <text transform="translate(114.801,56.972) rotate(-0,-0,-5)" font-size="9" font-weight="normal" font-family="FreeSans" font-style="normal" xml:space="preserve">
    <tspan fill="rgb(0,0,0)" y="-2" x="0 6 9 14 19 24 26 ">Stage 1</tspan>
   </text>
   <text transform="translate(114.801,73.0293) rotate(-0,-0,-5)" font-size="9" font-weight="normal" font-family="FreeSans" font-style="normal" xml:space="preserve">
    <tspan fill="rgb(0,0,0)" y="-2" x="0 6 9 14 19 24 26 ">Stage 2</tspan>
   </text>
   <text transform="translate(114.801,89.0867) rotate(-0,-0,-5)" font-size="9" font-weight="normal" font-family="FreeSans" font-style="normal" xml:space="preserve">
    <tspan fill="rgb(0,0,0)" y="-2" x="0 5 10 12 15 17 22 ">Fairing</tspan>
   </text>
   <text transform="translate(114.801,105.144) rotate(-0,-0,-5)" font-size="9" font-weight="normal" font-family="FreeSans" font-style="normal" xml:space="preserve">
    <tspan fill="rgb(0,0,0)" y="-2" x="0 6 11 15 17 22 27 ">Payload</tspan>
   </text>
   <polyline fill="none" stroke="#0071bc" stroke-linejoin="round" stroke-linecap="butt" points="89.79,51.9722 111.434,51.9722" stroke-width="0.5"/>
   <polyline fill="none" stroke="#d85218" stroke-linejoin="round" stroke-linecap="butt" points="89.79,68.0293 111.434,68.0293" stroke-width="0.5"/>
   <polyline fill="none" stroke="#ecb01f" stroke-linejoin="round" stroke-linecap="butt" points="89.79,84.0869 111.434,84.0869" stroke-width="0.5"/>
   <polyline fill="none" stroke="#7d2e8d" stroke-linejoin="round" stroke-linecap="butt" points="89.79,100.144 111.434,100.144" stroke-width="0.5"/>
  </g>
 </g>
</svg>
