<?xml version='1.0' encoding='UTF-8' standalone='no'?>
<svg xmlns:xlink="http://www.w3.org/1999/xlink" height="432pt" width="576pt" viewBox="0 0 576 432" xmlns="http://www.w3.org/2000/svg">
 <title>gl2ps_renderer figure</title>
 <desc>
Creator: GL2PS 1.4.2, (C) 1999-2020 C. Geuzaine
For: Octave
CreationDate: Sun Dec 27 15:02:10 2020
</desc>
 <defs/>
 <polygon fill="#ffffff" points="0,0 576,0 576,432 0,432"/>
 <g>
  <polygon shape-rendering="crispEdges" fill="#ffffff" points="0,432 576,432 576,0 0,0"/>
  <clipPath id="cp00576432">
   <polygon points="0,432 576,432 576,0 0,0"/>
  </clipPath>
  <g clip-path="url(#cp00576432)">
   <polygon shape-rendering="crispEdges" fill="#ffffff" points="74.8799,384.48 521.28,384.48 521.28,32.3999 74.8799,32.3999"/>
   <polyline stroke-opacity="0.15" stroke-linejoin="miter" stroke="#262626" stroke-linecap="butt" stroke-dasharray="16,0" fill="none" stroke-width="0.5" points="74.8799,384.48 74.8799,32.3999"/>
   <polyline stroke-opacity="0.15" stroke-linejoin="miter" stroke="#262626" stroke-linecap="butt" stroke-dasharray="16,0" fill="none" stroke-width="0.5" points="186.48,384.48 186.48,32.3999"/>
   <polyline stroke-opacity="0.15" stroke-linejoin="miter" stroke="#262626" stroke-linecap="butt" stroke-dasharray="16,0" fill="none" stroke-width="0.5" points="298.08,384.48 298.08,32.3999"/>
   <polyline stroke-opacity="0.15" stroke-linejoin="miter" stroke="#262626" stroke-linecap="butt" stroke-dasharray="16,0" fill="none" stroke-width="0.5" points="409.68,384.48 409.68,32.3999"/>
   <polyline stroke-opacity="0.15" stroke-linejoin="miter" stroke="#262626" stroke-linecap="butt" stroke-dasharray="16,0" fill="none" stroke-width="0.5" points="521.28,384.48 521.28,32.3999"/>
   <polyline stroke-linejoin="miter" stroke="#262626" stroke-linecap="butt" fill="none" stroke-width="0.5" points="74.8799,384.48 74.8799,380.015"/>
   <polyline stroke-linejoin="miter" stroke="#262626" stroke-linecap="butt" fill="none" stroke-width="0.5" points="74.8799,32.3999 74.8799,36.8652"/>
   <polyline stroke-linejoin="miter" stroke="#262626" stroke-linecap="butt" fill="none" stroke-width="0.5" points="186.48,384.48 186.48,380.015"/>
   <polyline stroke-linejoin="miter" stroke="#262626" stroke-linecap="butt" fill="none" stroke-width="0.5" points="186.48,32.3999 186.48,36.8652"/>
   <polyline stroke-linejoin="miter" stroke="#262626" stroke-linecap="butt" fill="none" stroke-width="0.5" points="298.08,384.48 298.08,380.015"/>
   <polyline stroke-linejoin="miter" stroke="#262626" stroke-linecap="butt" fill="none" stroke-width="0.5" points="298.08,32.3999 298.08,36.8652"/>
   <polyline stroke-linejoin="miter" stroke="#262626" stroke-linecap="butt" fill="none" stroke-width="0.5" points="409.68,384.48 409.68,380.015"/>
   <polyline stroke-linejoin="miter" stroke="#262626" stroke-linecap="butt" fill="none" stroke-width="0.5" points="409.68,32.3999 409.68,36.8652"/>
   <polyline stroke-linejoin="miter" stroke="#262626" stroke-linecap="butt" fill="none" stroke-width="0.5" points="521.28,384.48 521.28,380.015"/>
   <polyline stroke-linejoin="miter" stroke="#262626" stroke-linecap="butt" fill="none" stroke-width="0.5" points="521.28,32.3999 521.28,36.8652"/>
   <text transform="translate(71.88,399.982) rotate(-0,3,-8)" font-size="10" xml:space="preserve" font-style="normal" font-family="FreeSans" font-weight="normal">
    <tspan fill="rgb(38,38,38)" x="0 " y="-0">0</tspan>
   </text>
   <text transform="translate(175.98,399.982) rotate(-0,10.5,-8)" font-size="10" xml:space="preserve" font-style="normal" font-family="FreeSans" font-weight="normal">
    <tspan fill="rgb(38,38,38)" x="0 6 9 15 " y="-0">0.05</tspan>
   </text>
   <text transform="translate(290.58,399.982) rotate(-0,7.5,-8)" font-size="10" xml:space="preserve" font-style="normal" font-family="FreeSans" font-weight="normal">
    <tspan fill="rgb(38,38,38)" x="0 6 9 " y="-0">0.1</tspan>
   </text>
   <text transform="translate(399.18,399.982) rotate(-0,10.5,-8)" font-size="10" xml:space="preserve" font-style="normal" font-family="FreeSans" font-weight="normal">
    <tspan fill="rgb(38,38,38)" x="0 6 9 15 " y="-0">0.15</tspan>
   </text>
   <text transform="translate(513.78,399.982) rotate(-0,7.5,-8)" font-size="10" xml:space="preserve" font-style="normal" font-family="FreeSans" font-weight="normal">
    <tspan fill="rgb(38,38,38)" x="0 6 9 " y="-0">0.2</tspan>
   </text>
   <polyline stroke-opacity="0.15" stroke-linejoin="miter" stroke="#262626" stroke-linecap="butt" stroke-dasharray="16,0" fill="none" stroke-width="0.5" points="74.8799,384.48 521.28,384.48"/>
   <polyline stroke-opacity="0.15" stroke-linejoin="miter" stroke="#262626" stroke-linecap="butt" stroke-dasharray="16,0" fill="none" stroke-width="0.5" points="74.8799,334.183 521.28,334.183"/>
   <polyline stroke-opacity="0.15" stroke-linejoin="miter" stroke="#262626" stroke-linecap="butt" stroke-dasharray="16,0" fill="none" stroke-width="0.5" points="74.8799,283.886 521.28,283.886"/>
   <polyline stroke-opacity="0.15" stroke-linejoin="miter" stroke="#262626" stroke-linecap="butt" stroke-dasharray="16,0" fill="none" stroke-width="0.5" points="74.8799,233.588 521.28,233.588"/>
   <polyline stroke-opacity="0.15" stroke-linejoin="miter" stroke="#262626" stroke-linecap="butt" stroke-dasharray="16,0" fill="none" stroke-width="0.5" points="74.8799,183.292 521.28,183.292"/>
   <polyline stroke-opacity="0.15" stroke-linejoin="miter" stroke="#262626" stroke-linecap="butt" stroke-dasharray="16,0" fill="none" stroke-width="0.5" points="74.8799,132.994 521.28,132.994"/>
   <polyline stroke-opacity="0.15" stroke-linejoin="miter" stroke="#262626" stroke-linecap="butt" stroke-dasharray="16,0" fill="none" stroke-width="0.5" points="74.8799,82.6973 521.28,82.6973"/>
   <polyline stroke-opacity="0.15" stroke-linejoin="miter" stroke="#262626" stroke-linecap="butt" stroke-dasharray="16,0" fill="none" stroke-width="0.5" points="74.8799,32.3999 521.28,32.3999"/>
   <polyline stroke-linejoin="miter" stroke="#262626" stroke-linecap="butt" fill="none" stroke-width="0.5" points="74.8799,384.48 79.3481,384.48"/>
   <polyline stroke-linejoin="miter" stroke="#262626" stroke-linecap="butt" fill="none" stroke-width="0.5" points="521.28,384.48 516.812,384.48"/>
   <polyline stroke-linejoin="miter" stroke="#262626" stroke-linecap="butt" fill="none" stroke-width="0.5" points="74.8799,334.183 79.3481,334.183"/>
   <polyline stroke-linejoin="miter" stroke="#262626" stroke-linecap="butt" fill="none" stroke-width="0.5" points="521.28,334.183 516.812,334.183"/>
   <polyline stroke-linejoin="miter" stroke="#262626" stroke-linecap="butt" fill="none" stroke-width="0.5" points="74.8799,283.886 79.3481,283.886"/>
   <polyline stroke-linejoin="miter" stroke="#262626" stroke-linecap="butt" fill="none" stroke-width="0.5" points="521.28,283.886 516.812,283.886"/>
   <polyline stroke-linejoin="miter" stroke="#262626" stroke-linecap="butt" fill="none" stroke-width="0.5" points="74.8799,233.588 79.3481,233.588"/>
   <polyline stroke-linejoin="miter" stroke="#262626" stroke-linecap="butt" fill="none" stroke-width="0.5" points="521.28,233.588 516.812,233.588"/>
   <polyline stroke-linejoin="miter" stroke="#262626" stroke-linecap="butt" fill="none" stroke-width="0.5" points="74.8799,183.292 79.3481,183.292"/>
   <polyline stroke-linejoin="miter" stroke="#262626" stroke-linecap="butt" fill="none" stroke-width="0.5" points="521.28,183.292 516.812,183.292"/>
   <polyline stroke-linejoin="miter" stroke="#262626" stroke-linecap="butt" fill="none" stroke-width="0.5" points="74.8799,132.994 79.3481,132.994"/>
   <polyline stroke-linejoin="miter" stroke="#262626" stroke-linecap="butt" fill="none" stroke-width="0.5" points="521.28,132.994 516.812,132.994"/>
   <polyline stroke-linejoin="miter" stroke="#262626" stroke-linecap="butt" fill="none" stroke-width="0.5" points="74.8799,82.6973 79.3481,82.6973"/>
   <polyline stroke-linejoin="miter" stroke="#262626" stroke-linecap="butt" fill="none" stroke-width="0.5" points="521.28,82.6973 516.812,82.6973"/>
   <polyline stroke-linejoin="miter" stroke="#262626" stroke-linecap="butt" fill="none" stroke-width="0.5" points="74.8799,32.3999 79.3481,32.3999"/>
   <polyline stroke-linejoin="miter" stroke="#262626" stroke-linecap="butt" fill="none" stroke-width="0.5" points="521.28,32.3999 516.812,32.3999"/>
   <text transform="translate(63.8755,388.48) rotate(-0,6,-4)" font-size="10" xml:space="preserve" font-style="normal" font-family="FreeSans" font-weight="normal">
    <tspan fill="rgb(38,38,38)" x="0 " y="-0">0</tspan>
   </text>
   <text transform="translate(48.8755,338.183) rotate(-0,21,-4)" font-size="10" xml:space="preserve" font-style="normal" font-family="FreeSans" font-weight="normal">
    <tspan fill="rgb(38,38,38)" x="0 6 9 15 " y="-0">0.05</tspan>
   </text>
   <text transform="translate(54.8755,287.886) rotate(-0,15,-4)" font-size="10" xml:space="preserve" font-style="normal" font-family="FreeSans" font-weight="normal">
    <tspan fill="rgb(38,38,38)" x="0 6 9 " y="-0">0.1</tspan>
   </text>
   <text transform="translate(48.8755,237.589) rotate(-0,21,-4)" font-size="10" xml:space="preserve" font-style="normal" font-family="FreeSans" font-weight="normal">
    <tspan fill="rgb(38,38,38)" x="0 6 9 15 " y="-0">0.15</tspan>
   </text>
   <text transform="translate(54.8755,187.291) rotate(-0,15,-4)" font-size="10" xml:space="preserve" font-style="normal" font-family="FreeSans" font-weight="normal">
    <tspan fill="rgb(38,38,38)" x="0 6 9 " y="-0">0.2</tspan>
   </text>
   <text transform="translate(48.8755,136.994) rotate(-0,21,-4)" font-size="10" xml:space="preserve" font-style="normal" font-family="FreeSans" font-weight="normal">
    <tspan fill="rgb(38,38,38)" x="0 6 9 15 " y="-0">0.25</tspan>
   </text>
   <text transform="translate(54.8755,86.6971) rotate(-0,15,-4)" font-size="10" xml:space="preserve" font-style="normal" font-family="FreeSans" font-weight="normal">
    <tspan fill="rgb(38,38,38)" x="0 6 9 " y="-0">0.3</tspan>
   </text>
   <text transform="translate(48.8755,36.4) rotate(-0,21,-4)" font-size="10" xml:space="preserve" font-style="normal" font-family="FreeSans" font-weight="normal">
    <tspan fill="rgb(38,38,38)" x="0 6 9 15 " y="-0">0.35</tspan>
   </text>
   <polyline stroke-linejoin="miter" stroke="#262626" stroke-linecap="square" stroke-dasharray="16,0" fill="none" stroke-width="0.5" points="74.8799,384.48 521.28,384.48"/>
   <polyline stroke-linejoin="miter" stroke="#262626" stroke-linecap="square" stroke-dasharray="16,0" fill="none" stroke-width="0.5" points="74.8799,32.3999 521.28,32.3999"/>
   <polyline stroke-linejoin="miter" stroke="#262626" stroke-linecap="square" stroke-dasharray="16,0" fill="none" stroke-width="0.5" points="74.8799,384.48 74.8799,32.3999"/>
   <polyline stroke-linejoin="miter" stroke="#262626" stroke-linecap="square" stroke-dasharray="16,0" fill="none" stroke-width="0.5" points="521.28,384.48 521.28,32.3999"/>
   <text transform="translate(279.08,415.982) rotate(-0,19,-11)" font-size="11" xml:space="preserve" font-style="normal" font-family="FreeSans" font-weight="normal">
    <tspan fill="rgb(38,38,38)" x="0 7 9 18 24 27 30 35 " y="-2">Time [s]</tspan>
   </text>
   <text transform="translate(-0.624484,208.44) rotate(-90,44.5,0)" font-size="11" xml:space="preserve" font-style="normal" font-family="FreeSans" font-weight="normal">
    <tspan fill="rgb(38,38,38)" x="0 8 10 15 21 23 29 35 41 50 56 62 65 68 71 77 86 " y="-3">Displacement [km]</tspan>
   </text>
   <text transform="translate(216.08,22.4) rotate(-0,82,0)" font-size="11" xml:space="preserve" font-style="normal" font-family="FreeSans" font-weight="bold">
    <tspan fill="rgb(0,0,0)" x="0 8 11 17 24 27 33 39 45 55 61 68 72 75 82 88 94 98 101 107 110 116 119 125 131 137 144 151 158 " y="-3">Displacement over 0.2 seconds</tspan>
   </text>
   <polyline stroke-linejoin="round" stroke="#0071bc" stroke-linecap="butt" fill="none" stroke-width="0.5" points="74.8799,384.48 79.3892,384.445 83.8979,384.34 88.4072,384.166 92.9165,383.922 97.4253,383.611 101.935,383.234 106.444,382.792 110.953,382.288 115.462,381.722 119.971,381.098 124.48,380.416 128.989,379.68 133.498,378.892 138.007,378.053 142.517,377.166 147.025,376.232 151.535,375.254 156.043,374.233 160.553,373.169 165.062,372.065 169.571,370.92 174.08,369.736 178.589,368.512 183.098,367.249 187.607,365.945 192.116,364.601 196.625,363.215 201.135,361.786 205.644,360.314 210.153,358.796 214.662,357.232 219.171,355.62 223.68,353.957 228.189,352.243 232.698,350.475 237.207,348.653 241.716,346.773 246.226,344.836 250.734,342.84 255.244,340.784 259.753,338.666 264.262,336.485 268.771,334.241 273.28,331.934 277.789,329.562 282.298,327.127 286.807,324.627 291.316,322.064 295.826,319.437 300.334,316.746 304.844,313.992 309.353,311.175 313.862,308.298 318.371,305.359 322.88,302.36 327.389,299.302 331.898,296.186 336.407,293.012 340.917,289.781 345.425,286.495 349.935,283.153 354.444,279.758 358.953,276.311 363.462,272.81 367.971,269.259 372.48,265.657 376.989,262.005 381.498,258.304 386.007,254.555 390.516,250.759 395.025,246.916 399.535,243.025 404.043,239.09 408.553,235.108 413.062,231.082 417.571,227.011 422.08,222.895 426.589,218.733 431.098,214.528 435.607,210.277 440.116,205.98 444.625,201.638 449.135,197.249 453.644,192.813 458.153,188.328 462.662,183.794 467.171,179.209 471.68,174.573 476.189,169.884 480.698,165.14 485.207,160.339 489.716,155.481 494.226,150.564 498.734,145.587 503.244,140.547 507.753,135.445 512.262,130.277 516.771,125.044 521.28,119.745"/>
   <polyline stroke-linejoin="round" stroke="#d85218" stroke-linecap="butt" fill="none" stroke-width="0.5" points="74.8799,384.48 79.3892,384.48 83.8979,384.479 88.4072,384.476 92.9165,384.467 97.4253,384.449 101.935,384.416 106.444,384.363 110.953,384.282 115.462,384.168 119.971,384.012 124.48,383.806 128.989,383.544 133.498,383.217 138.007,382.818 142.517,382.34 147.025,381.778 151.535,381.126 156.043,380.38 160.553,379.537 165.062,378.594 169.571,377.55 174.08,376.405 178.589,375.16 183.098,373.816 187.607,372.377 192.116,370.847 196.625,369.228 201.135,367.527 205.644,365.75 210.153,363.9 214.662,361.985 219.171,360.011 223.68,357.982 228.189,355.905 232.698,353.784 237.207,351.625 241.716,349.43 246.226,347.204 250.734,344.948 255.244,342.666 259.753,340.357 264.262,338.024 268.771,335.665 273.28,333.279 277.789,330.866 282.298,328.424 286.807,325.95 291.316,323.443 295.826,320.899 300.334,318.316 304.844,315.692 309.353,313.023 313.862,310.308 318.371,307.544 322.88,304.729 327.389,301.862 331.898,298.94 336.407,295.963 340.917,292.931 345.425,289.842 349.935,286.696 354.444,283.493 358.953,280.233 363.462,276.917 367.971,273.543 372.48,270.112 376.989,266.625 381.498,263.079 386.007,259.476 390.516,255.814 395.025,252.092 399.535,248.31 404.043,244.465 408.553,240.557 413.062,236.582 417.571,232.541 422.08,228.43 426.589,224.247 431.098,219.992 435.607,215.662 440.116,211.256 444.625,206.773 449.135,202.213 453.644,197.576 458.153,192.862 462.662,188.072 467.171,183.208 471.68,178.273 476.189,173.27 480.698,168.201 485.207,163.071 489.716,157.885 494.226,152.646 498.734,147.362 503.244,142.036 507.753,136.674 512.262,131.281 516.771,125.862 521.28,120.421"/>
   <polyline stroke-linejoin="round" stroke="#ecb01f" stroke-linecap="butt" fill="none" stroke-width="0.5" points="74.8799,384.48 79.3892,384.48 83.8979,384.48 88.4072,384.479 92.9165,384.475 97.4253,384.464 101.935,384.44 106.444,384.4 110.953,384.337 115.462,384.246 119.971,384.12 124.48,383.952 128.989,383.732 133.498,383.456 138.007,383.116 142.517,382.705 147.025,382.217 151.535,381.646 156.043,380.985 160.553,380.23 165.062,379.379 169.571,378.428 174.08,377.375 178.589,376.216 183.098,374.953 187.607,373.586 192.116,372.118 196.625,370.55 201.135,368.885 205.644,367.125 210.153,365.276 214.662,363.344 219.171,361.333 223.68,359.248 228.189,357.096 232.698,354.881 237.207,352.609 241.716,350.289 246.226,347.924 250.734,345.52 255.244,343.081 259.753,340.611 264.262,338.115 268.771,335.598 273.28,333.062 277.789,330.509 282.298,327.939 286.807,325.354 291.316,322.757 295.826,320.146 300.334,317.52 304.844,314.878 309.353,312.218 313.862,309.538 318.371,306.835 322.88,304.108 327.389,301.352 331.898,298.562 336.407,295.736 340.917,292.87 345.425,289.959 349.935,287 354.444,283.988 358.953,280.917 363.462,277.785 367.971,274.586 372.48,271.319 376.989,267.979 381.498,264.561 386.007,261.062 390.516,257.479 395.025,253.812 399.535,250.057 404.043,246.212 408.553,242.275 413.062,238.246 417.571,234.125 422.08,229.913 426.589,225.609 431.098,221.215 435.607,216.731 440.116,212.162 444.625,207.51 449.135,202.779 453.644,197.972 458.153,193.093 462.662,188.146 467.171,183.137 471.68,178.072 476.189,172.956 480.698,167.793 485.207,162.589 489.716,157.35 494.226,152.081 498.734,146.787 503.244,141.473 507.753,136.142 512.262,130.797 516.771,125.442 521.28,120.08"/>
   <polyline stroke-linejoin="round" stroke="#7d2e8d" stroke-linecap="butt" fill="none" stroke-width="0.5" points="74.8799,384.48 79.3892,384.48 83.8979,384.48 88.4072,384.48 92.9165,384.48 97.4253,384.48 101.935,384.479 106.444,384.478 110.953,384.474 115.462,384.466 119.971,384.452 124.48,384.429 128.989,384.394 133.498,384.339 138.007,384.261 142.517,384.152 147.025,384.003 151.535,383.806 156.043,383.549 160.553,383.223 165.062,382.815 169.571,382.314 174.08,381.708 178.589,380.983 183.098,380.128 187.607,379.134 192.116,377.988 196.625,376.682 201.135,375.21 205.644,373.566 210.153,371.747 214.662,369.752 219.171,367.583 223.68,365.244 228.189,362.742 232.698,360.087 237.207,357.29 241.716,354.366 246.226,351.332 250.734,348.204 255.244,345.004 259.753,341.751 264.262,338.468 268.771,335.175 273.28,331.893 277.789,328.643 282.298,325.444 286.807,322.312 291.316,319.263 295.826,316.309 300.334,313.458 304.844,310.718 309.353,308.091 313.862,305.576 318.371,303.169 322.88,300.86 327.389,298.641 331.898,296.494 336.407,294.404 340.917,292.349 345.425,290.309 349.935,288.259 354.444,286.175 358.953,284.031 363.462,281.803 367.971,279.465 372.48,276.995 376.989,274.371 381.498,271.572 386.007,268.584 390.516,265.391 395.025,261.983 399.535,258.353 404.043,254.498 408.553,250.417 413.062,246.115 417.571,241.6 422.08,236.881 426.589,231.973 431.098,226.892 435.607,221.656 440.116,216.287 444.625,210.806 449.135,205.235 453.644,199.597 458.153,193.915 462.662,188.21 467.171,182.504 471.68,176.814 476.189,171.159 480.698,165.552 485.207,160.006 489.716,154.53 494.226,149.131 498.734,143.812 503.244,138.573 507.753,133.413 512.262,128.327 516.771,123.308 521.28,118.347"/>
  </g>
  <clipPath id="cp00576432">
   <polygon points="0,432 576,432 576,0 0,0"/>
  </clipPath>
  <g clip-path="url(#cp00576432)">
   <polygon shape-rendering="crispEdges" fill="#ffffff" points="86.4233,108.173 151.082,108.173 151.082,43.9434 86.4233,43.9434"/>
   <polyline stroke-linejoin="miter" stroke="#262626" stroke-linecap="square" stroke-dasharray="16,0" fill="none" stroke-width="0.5" points="86.4233,108.173 151.082,108.173"/>
   <polyline stroke-linejoin="miter" stroke="#262626" stroke-linecap="square" stroke-dasharray="16,0" fill="none" stroke-width="0.5" points="86.4233,43.9434 151.082,43.9434"/>
   <polyline stroke-linejoin="miter" stroke="#262626" stroke-linecap="square" stroke-dasharray="16,0" fill="none" stroke-width="0.5" points="86.4233,108.173 86.4233,43.9434"/>
   <polyline stroke-linejoin="miter" stroke="#262626" stroke-linecap="square" stroke-dasharray="16,0" fill="none" stroke-width="0.5" points="151.082,108.173 151.082,43.9434"/>
   <text transform="translate(114.801,56.972) rotate(-0,-0,-5)" font-size="9" xml:space="preserve" font-style="normal" font-family="FreeSans" font-weight="normal">
    <tspan fill="rgb(0,0,0)" x="0 6 9 14 19 24 26 " y="-2">Stage 1</tspan>
   </text>
   <text transform="translate(114.801,73.0293) rotate(-0,-0,-5)" font-size="9" xml:space="preserve" font-style="normal" font-family="FreeSans" font-weight="normal">
    <tspan fill="rgb(0,0,0)" x="0 6 9 14 19 24 26 " y="-2">Stage 2</tspan>
   </text>
   <text transform="translate(114.801,89.0867) rotate(-0,-0,-5)" font-size="9" xml:space="preserve" font-style="normal" font-family="FreeSans" font-weight="normal">
    <tspan fill="rgb(0,0,0)" x="0 5 10 12 15 17 22 " y="-2">Fairing</tspan>
   </text>
   <text transform="translate(114.801,105.144) rotate(-0,-0,-5)" font-size="9" xml:space="preserve" font-style="normal" font-family="FreeSans" font-weight="normal">
    <tspan fill="rgb(0,0,0)" x="0 6 11 15 17 22 27 " y="-2">Payload</tspan>
   </text>
   <polyline stroke-linejoin="round" stroke="#0071bc" stroke-linecap="butt" fill="none" stroke-width="0.5" points="89.79,51.9722 111.434,51.9722"/>
   <polyline stroke-linejoin="round" stroke="#d85218" stroke-linecap="butt" fill="none" stroke-width="0.5" points="89.79,68.0293 111.434,68.0293"/>
   <polyline stroke-linejoin="round" stroke="#ecb01f" stroke-linecap="butt" fill="none" stroke-width="0.5" points="89.79,84.0869 111.434,84.0869"/>
   <polyline stroke-linejoin="round" stroke="#7d2e8d" stroke-linecap="butt" fill="none" stroke-width="0.5" points="89.79,100.144 111.434,100.144"/>
  </g>
 </g>
</svg>
