<?xml version='1.0' encoding='UTF-8' standalone='no'?>
<svg width="576pt" xmlns:xlink="http://www.w3.org/1999/xlink" height="432pt" xmlns="http://www.w3.org/2000/svg" viewBox="0 0 576 432">
 <title>gl2ps_renderer figure</title>
 <desc>
Creator: GL2PS 1.4.2, (C) 1999-2020 C. Geuzaine
For: Octave
CreationDate: Thu Jan 28 17:33:37 2021
</desc>
 <defs/>
 <polygon fill="#ffffff" points="0,0 576,0 576,432 0,432"/>
 <g>
  <polygon shape-rendering="crispEdges" fill="#ffffff" points="0,432 576,432 576,0 0,0"/>
  <clipPath id="cp00576432">
   <polygon points="0,432 576,432 576,0 0,0"/>
  </clipPath>
  <g clip-path="url(#cp00576432)">
   <polygon shape-rendering="crispEdges" fill="#ffffff" points="74.8799,384.48 521.28,384.48 521.28,32.3999 74.8799,32.3999"/>
   <polyline stroke-linecap="butt" fill="none" points="74.8799,384.48 74.8799,380.015" stroke="#262626" stroke-width="0.5" stroke-linejoin="miter"/>
   <polyline stroke-linecap="butt" fill="none" points="74.8799,32.3999 74.8799,36.8652" stroke="#262626" stroke-width="0.5" stroke-linejoin="miter"/>
   <polyline stroke-linecap="butt" fill="none" points="149.28,384.48 149.28,380.015" stroke="#262626" stroke-width="0.5" stroke-linejoin="miter"/>
   <polyline stroke-linecap="butt" fill="none" points="149.28,32.3999 149.28,36.8652" stroke="#262626" stroke-width="0.5" stroke-linejoin="miter"/>
   <polyline stroke-linecap="butt" fill="none" points="223.68,384.48 223.68,380.015" stroke="#262626" stroke-width="0.5" stroke-linejoin="miter"/>
   <polyline stroke-linecap="butt" fill="none" points="223.68,32.3999 223.68,36.8652" stroke="#262626" stroke-width="0.5" stroke-linejoin="miter"/>
   <polyline stroke-linecap="butt" fill="none" points="298.08,384.48 298.08,380.015" stroke="#262626" stroke-width="0.5" stroke-linejoin="miter"/>
   <polyline stroke-linecap="butt" fill="none" points="298.08,32.3999 298.08,36.8652" stroke="#262626" stroke-width="0.5" stroke-linejoin="miter"/>
   <polyline stroke-linecap="butt" fill="none" points="372.48,384.48 372.48,380.015" stroke="#262626" stroke-width="0.5" stroke-linejoin="miter"/>
   <polyline stroke-linecap="butt" fill="none" points="372.48,32.3999 372.48,36.8652" stroke="#262626" stroke-width="0.5" stroke-linejoin="miter"/>
   <polyline stroke-linecap="butt" fill="none" points="446.88,384.48 446.88,380.015" stroke="#262626" stroke-width="0.5" stroke-linejoin="miter"/>
   <polyline stroke-linecap="butt" fill="none" points="446.88,32.3999 446.88,36.8652" stroke="#262626" stroke-width="0.5" stroke-linejoin="miter"/>
   <polyline stroke-linecap="butt" fill="none" points="521.28,384.48 521.28,380.015" stroke="#262626" stroke-width="0.5" stroke-linejoin="miter"/>
   <polyline stroke-linecap="butt" fill="none" points="521.28,32.3999 521.28,36.8652" stroke="#262626" stroke-width="0.5" stroke-linejoin="miter"/>
   <text font-style="normal" font-weight="normal" xml:space="preserve" font-size="10" transform="translate(59.88,399.982) rotate(-0,15,-8)" font-family="FreeSans">
    <tspan y="-0" fill="rgb(38,38,38)" x="0 3 9 12 18 24 ">-0.003</tspan>
   </text>
   <text font-style="normal" font-weight="normal" xml:space="preserve" font-size="10" transform="translate(134.28,399.982) rotate(-0,15,-8)" font-family="FreeSans">
    <tspan y="-0" fill="rgb(38,38,38)" x="0 3 9 12 18 24 ">-0.002</tspan>
   </text>
   <text font-style="normal" font-weight="normal" xml:space="preserve" font-size="10" transform="translate(208.68,399.982) rotate(-0,15,-8)" font-family="FreeSans">
    <tspan y="-0" fill="rgb(38,38,38)" x="0 3 9 12 18 24 ">-0.001</tspan>
   </text>
   <text font-style="normal" font-weight="normal" xml:space="preserve" font-size="10" transform="translate(295.08,399.982) rotate(-0,3,-8)" font-family="FreeSans">
    <tspan y="-0" fill="rgb(38,38,38)" x="0 ">0</tspan>
   </text>
   <text font-style="normal" font-weight="normal" xml:space="preserve" font-size="10" transform="translate(358.98,399.982) rotate(-0,13.5,-8)" font-family="FreeSans">
    <tspan y="-0" fill="rgb(38,38,38)" x="0 6 9 15 21 ">0.001</tspan>
   </text>
   <text font-style="normal" font-weight="normal" xml:space="preserve" font-size="10" transform="translate(433.38,399.982) rotate(-0,13.5,-8)" font-family="FreeSans">
    <tspan y="-0" fill="rgb(38,38,38)" x="0 6 9 15 21 ">0.002</tspan>
   </text>
   <text font-style="normal" font-weight="normal" xml:space="preserve" font-size="10" transform="translate(507.78,399.982) rotate(-0,13.5,-8)" font-family="FreeSans">
    <tspan y="-0" fill="rgb(38,38,38)" x="0 6 9 15 21 ">0.003</tspan>
   </text>
   <polyline stroke-linecap="butt" fill="none" points="74.8799,384.48 79.3481,384.48" stroke="#262626" stroke-width="0.5" stroke-linejoin="miter"/>
   <polyline stroke-linecap="butt" fill="none" points="521.28,384.48 516.812,384.48" stroke="#262626" stroke-width="0.5" stroke-linejoin="miter"/>
   <polyline stroke-linecap="butt" fill="none" points="74.8799,296.46 79.3481,296.46" stroke="#262626" stroke-width="0.5" stroke-linejoin="miter"/>
   <polyline stroke-linecap="butt" fill="none" points="521.28,296.46 516.812,296.46" stroke="#262626" stroke-width="0.5" stroke-linejoin="miter"/>
   <polyline stroke-linecap="butt" fill="none" points="74.8799,208.44 79.3481,208.44" stroke="#262626" stroke-width="0.5" stroke-linejoin="miter"/>
   <polyline stroke-linecap="butt" fill="none" points="521.28,208.44 516.812,208.44" stroke="#262626" stroke-width="0.5" stroke-linejoin="miter"/>
   <polyline stroke-linecap="butt" fill="none" points="74.8799,120.42 79.3481,120.42" stroke="#262626" stroke-width="0.5" stroke-linejoin="miter"/>
   <polyline stroke-linecap="butt" fill="none" points="521.28,120.42 516.812,120.42" stroke="#262626" stroke-width="0.5" stroke-linejoin="miter"/>
   <polyline stroke-linecap="butt" fill="none" points="74.8799,32.3999 79.3481,32.3999" stroke="#262626" stroke-width="0.5" stroke-linejoin="miter"/>
   <polyline stroke-linecap="butt" fill="none" points="521.28,32.3999 516.812,32.3999" stroke="#262626" stroke-width="0.5" stroke-linejoin="miter"/>
   <text font-style="normal" font-weight="normal" xml:space="preserve" font-size="10" transform="translate(37.8755,388.48) rotate(-0,32,-4)" font-family="FreeSans">
    <tspan y="-0" fill="rgb(38,38,38)" x="0 3 9 14 20 26 ">-1e+08</tspan>
   </text>
   <text font-style="normal" font-weight="normal" xml:space="preserve" font-size="10" transform="translate(37.8755,300.46) rotate(-0,32,-4)" font-family="FreeSans">
    <tspan y="-0" fill="rgb(38,38,38)" x="0 3 9 14 20 26 ">-5e+07</tspan>
   </text>
   <text font-style="normal" font-weight="normal" xml:space="preserve" font-size="10" transform="translate(63.8755,212.44) rotate(-0,6,-4)" font-family="FreeSans">
    <tspan y="-0" fill="rgb(38,38,38)" x="0 ">0</tspan>
   </text>
   <text font-style="normal" font-weight="normal" xml:space="preserve" font-size="10" transform="translate(40.8755,124.42) rotate(-0,29,-4)" font-family="FreeSans">
    <tspan y="-0" fill="rgb(38,38,38)" x="0 6 11 17 23 ">5e+07</tspan>
   </text>
   <text font-style="normal" font-weight="normal" xml:space="preserve" font-size="10" transform="translate(40.8755,36.4) rotate(-0,29,-4)" font-family="FreeSans">
    <tspan y="-0" fill="rgb(38,38,38)" x="0 6 11 17 23 ">1e+08</tspan>
   </text>
   <polyline stroke-dasharray="16,0" stroke-linecap="square" fill="none" points="74.8799,384.48 521.28,384.48" stroke="#262626" stroke-width="0.5" stroke-linejoin="miter"/>
   <polyline stroke-dasharray="16,0" stroke-linecap="square" fill="none" points="74.8799,32.3999 521.28,32.3999" stroke="#262626" stroke-width="0.5" stroke-linejoin="miter"/>
   <polyline stroke-dasharray="16,0" stroke-linecap="square" fill="none" points="74.8799,384.48 74.8799,32.3999" stroke="#262626" stroke-width="0.5" stroke-linejoin="miter"/>
   <polyline stroke-dasharray="16,0" stroke-linecap="square" fill="none" points="521.28,384.48 521.28,32.3999" stroke="#262626" stroke-width="0.5" stroke-linejoin="miter"/>
   <text font-style="normal" font-weight="normal" xml:space="preserve" font-size="11" transform="translate(294.58,413.982) rotate(-0,3.5,-9)" font-family="FreeSans">
    <tspan y="-0" fill="rgb(38,38,38)" x="0 ">Z</tspan>
   </text>
   <text font-style="normal" font-weight="normal" xml:space="preserve" font-size="11" transform="translate(17.8755,208.44) rotate(-90,15,0)" font-family="FreeSans">
    <tspan y="-2" fill="rgb(38,38,38)" x="0 7 9 15 24 ">Sigma</tspan>
   </text>
   <text font-style="normal" font-weight="bold" xml:space="preserve" font-size="11" transform="translate(188.08,22.4) rotate(-0,110,0)" font-family="FreeSans">
    <tspan y="-3" fill="rgb(0,0,0)" x="0 7 11 17 21 24 30 33 41 48 54 57 63 69 72 78 81 85 88 95 98 105 115 121 124 131 138 141 145 151 157 164 168 171 174 181 188 191 197 203 206 213 ">Static Analysis - Sigma YY (45°): LE vs TE</tspan>
   </text>
   <polyline stroke-linecap="butt" fill="none" points="74.8809,57.2715 112.08,82.5625 149.28,107.779 186.48,132.921 223.679,157.989 223.681,198.004 260.88,203.222 298.08,208.44 335.28,213.658 372.479,218.875 372.481,258.891 409.68,283.958 446.88,309.101 484.08,334.318 521.279,359.608" stroke="#0071bc" stroke-width="2" stroke-linejoin="round"/>
   <polyline stroke-linecap="butt" fill="none" points="74.8809,56.8721 112.08,82.1328 149.28,107.395 186.48,132.656 223.679,157.917 223.681,201.733 260.88,205.086 298.08,208.44 335.28,211.793 372.479,215.146 372.481,258.963 409.68,284.224 446.88,309.486 484.08,334.747 521.279,360.008" stroke="#d85218" stroke-width="2" stroke-linejoin="round"/>
   <polyline stroke-linecap="butt" fill="none" points="74.8809,57.417 112.08,82.5874 149.28,107.758 186.48,132.928 223.679,158.099 223.681,197.014 260.88,202.727 298.08,208.44 335.28,214.153 372.479,219.866 372.481,258.782 409.68,283.952 446.88,309.122 484.08,334.293 521.279,359.463" stroke="#ecb01f" stroke-width="2" stroke-linejoin="round"/>
   <polyline stroke-linecap="butt" fill="none" points="74.8809,57.3564 112.08,82.5508 149.28,107.738 186.48,132.919 223.679,158.095 223.681,198.013 260.88,203.227 298.08,208.44 335.28,213.653 372.479,218.867 372.481,258.785 409.68,283.961 446.88,309.142 484.08,334.329 521.279,359.524" stroke="#7d2e8d" stroke-width="2" stroke-linejoin="round"/>
   <polyline stroke-linecap="butt" fill="none" points="74.8809,57.355 112.08,82.5527 149.28,107.742 186.48,132.923 223.679,158.098 223.681,197.984 260.88,203.212 298.08,208.44 335.28,213.667 372.479,218.896 372.481,258.782 409.68,283.957 446.88,309.138 484.08,334.327 521.279,359.525" stroke="#76ab2f" stroke-width="2" stroke-linejoin="round"/>
   <polyline stroke-linecap="butt" fill="none" points="74.8809,57.3193 112.08,82.5918 149.28,107.778 186.48,132.935 223.679,158.092 223.681,197.991 260.88,203.214 298.08,208.44 335.28,213.666 372.479,218.889 372.481,258.788 409.68,283.945 446.88,309.102 484.08,334.288 521.279,359.561" stroke="#4cbded" stroke-width="2" stroke-linejoin="round"/>
   <polyline stroke-linecap="butt" fill="none" points="74.8809,57.3467 112.08,82.5938 149.28,107.778 186.48,132.939 223.679,158.099 223.681,197.984 260.88,203.212 298.08,208.44 335.28,213.667 372.479,218.896 372.481,258.781 409.68,283.94 446.88,309.102 484.08,334.286 521.279,359.533" stroke="#a1132e" stroke-width="2" stroke-linejoin="round"/>
  </g>
  <clipPath id="cp00576432">
   <polygon points="0,432 576,432 576,0 0,0"/>
  </clipPath>
  <g clip-path="url(#cp00576432)">
   <polygon shape-rendering="crispEdges" fill="#ffffff" points="458.45,141.945 509.737,141.945 509.737,43.9434 458.45,43.9434"/>
   <polyline stroke-dasharray="16,0" stroke-linecap="square" fill="none" points="458.45,141.945 509.737,141.945" stroke="#262626" stroke-width="0.5" stroke-linejoin="miter"/>
   <polyline stroke-dasharray="16,0" stroke-linecap="square" fill="none" points="458.45,43.9434 509.737,43.9434" stroke="#262626" stroke-width="0.5" stroke-linejoin="miter"/>
   <polyline stroke-dasharray="16,0" stroke-linecap="square" fill="none" points="458.45,141.945 458.45,43.9434" stroke="#262626" stroke-width="0.5" stroke-linejoin="miter"/>
   <polyline stroke-dasharray="16,0" stroke-linecap="square" fill="none" points="509.737,141.945 509.737,43.9434" stroke="#262626" stroke-width="0.5" stroke-linejoin="miter"/>
   <text font-style="normal" font-weight="normal" xml:space="preserve" font-size="9" transform="translate(486.827,54.9434) rotate(-0,-0,-4)" font-family="FreeSans">
    <tspan y="-0" fill="rgb(0,0,0)" x="0 5 ">LE</tspan>
   </text>
   <text font-style="normal" font-weight="normal" xml:space="preserve" font-size="9" transform="translate(486.827,68.9436) rotate(-0,-0,-4)" font-family="FreeSans">
    <tspan y="-0" fill="rgb(0,0,0)" x="0 6 12 14 ">TE 1</tspan>
   </text>
   <text font-style="normal" font-weight="normal" xml:space="preserve" font-size="9" transform="translate(486.827,82.9438) rotate(-0,-0,-4)" font-family="FreeSans">
    <tspan y="-0" fill="rgb(0,0,0)" x="0 6 12 14 ">TE 2</tspan>
   </text>
   <text font-style="normal" font-weight="normal" xml:space="preserve" font-size="9" transform="translate(486.827,96.9441) rotate(-0,-0,-4)" font-family="FreeSans">
    <tspan y="-0" fill="rgb(0,0,0)" x="0 6 12 14 ">TE 3</tspan>
   </text>
   <text font-style="normal" font-weight="normal" xml:space="preserve" font-size="9" transform="translate(486.827,110.944) rotate(-0,-0,-4)" font-family="FreeSans">
    <tspan y="-0" fill="rgb(0,0,0)" x="0 6 12 14 ">TE 4</tspan>
   </text>
   <text font-style="normal" font-weight="normal" xml:space="preserve" font-size="9" transform="translate(486.827,124.944) rotate(-0,-0,-4)" font-family="FreeSans">
    <tspan y="-0" fill="rgb(0,0,0)" x="0 6 12 14 ">TE 5</tspan>
   </text>
   <text font-style="normal" font-weight="normal" xml:space="preserve" font-size="9" transform="translate(486.827,138.945) rotate(-0,-0,-4)" font-family="FreeSans">
    <tspan y="-0" fill="rgb(0,0,0)" x="0 6 12 14 ">TE 6</tspan>
   </text>
   <polyline stroke-linecap="butt" fill="none" points="461.816,50.9434 483.46,50.9434" stroke="#0071bc" stroke-width="2" stroke-linejoin="round"/>
   <polyline stroke-linecap="butt" fill="none" points="461.816,64.9438 483.46,64.9438" stroke="#d85218" stroke-width="2" stroke-linejoin="round"/>
   <polyline stroke-linecap="butt" fill="none" points="461.816,78.9438 483.46,78.9438" stroke="#ecb01f" stroke-width="2" stroke-linejoin="round"/>
   <polyline stroke-linecap="butt" fill="none" points="461.816,92.9438 483.46,92.9438" stroke="#7d2e8d" stroke-width="2" stroke-linejoin="round"/>
   <polyline stroke-linecap="butt" fill="none" points="461.816,106.944 483.46,106.944" stroke="#76ab2f" stroke-width="2" stroke-linejoin="round"/>
   <polyline stroke-linecap="butt" fill="none" points="461.816,120.944 483.46,120.944" stroke="#4cbded" stroke-width="2" stroke-linejoin="round"/>
   <polyline stroke-linecap="butt" fill="none" points="461.816,134.945 483.46,134.945" stroke="#a1132e" stroke-width="2" stroke-linejoin="round"/>
  </g>
 </g>
</svg>
