<?xml version='1.0' encoding='UTF-8' standalone='no'?>
<svg width="576pt" xmlns="http://www.w3.org/2000/svg" xmlns:xlink="http://www.w3.org/1999/xlink" height="432pt" viewBox="0 0 576 432">
 <title>gl2ps_renderer figure</title>
 <desc>
Creator: GL2PS 1.4.2, (C) 1999-2020 C. Geuzaine
For: Octave
CreationDate: Thu Jan 28 17:32:30 2021
</desc>
 <defs/>
 <polygon fill="#ffffff" points="0,0 576,0 576,432 0,432"/>
 <g>
  <polygon fill="#ffffff" shape-rendering="crispEdges" points="0,432 576,432 576,0 0,0"/>
  <clipPath id="cp00576432">
   <polygon points="0,432 576,432 576,0 0,0"/>
  </clipPath>
  <g clip-path="url(#cp00576432)">
   <polygon fill="#ffffff" shape-rendering="crispEdges" points="74.8799,384.48 521.28,384.48 521.28,32.3999 74.8799,32.3999"/>
   <polyline fill="none" stroke-linecap="butt" stroke-width="0.5" points="74.8799,384.48 74.8799,380.015" stroke="#262626" stroke-linejoin="miter"/>
   <polyline fill="none" stroke-linecap="butt" stroke-width="0.5" points="74.8799,32.3999 74.8799,36.8652" stroke="#262626" stroke-linejoin="miter"/>
   <polyline fill="none" stroke-linecap="butt" stroke-width="0.5" points="149.28,384.48 149.28,380.015" stroke="#262626" stroke-linejoin="miter"/>
   <polyline fill="none" stroke-linecap="butt" stroke-width="0.5" points="149.28,32.3999 149.28,36.8652" stroke="#262626" stroke-linejoin="miter"/>
   <polyline fill="none" stroke-linecap="butt" stroke-width="0.5" points="223.68,384.48 223.68,380.015" stroke="#262626" stroke-linejoin="miter"/>
   <polyline fill="none" stroke-linecap="butt" stroke-width="0.5" points="223.68,32.3999 223.68,36.8652" stroke="#262626" stroke-linejoin="miter"/>
   <polyline fill="none" stroke-linecap="butt" stroke-width="0.5" points="298.08,384.48 298.08,380.015" stroke="#262626" stroke-linejoin="miter"/>
   <polyline fill="none" stroke-linecap="butt" stroke-width="0.5" points="298.08,32.3999 298.08,36.8652" stroke="#262626" stroke-linejoin="miter"/>
   <polyline fill="none" stroke-linecap="butt" stroke-width="0.5" points="372.48,384.48 372.48,380.015" stroke="#262626" stroke-linejoin="miter"/>
   <polyline fill="none" stroke-linecap="butt" stroke-width="0.5" points="372.48,32.3999 372.48,36.8652" stroke="#262626" stroke-linejoin="miter"/>
   <polyline fill="none" stroke-linecap="butt" stroke-width="0.5" points="446.88,384.48 446.88,380.015" stroke="#262626" stroke-linejoin="miter"/>
   <polyline fill="none" stroke-linecap="butt" stroke-width="0.5" points="446.88,32.3999 446.88,36.8652" stroke="#262626" stroke-linejoin="miter"/>
   <polyline fill="none" stroke-linecap="butt" stroke-width="0.5" points="521.28,384.48 521.28,380.015" stroke="#262626" stroke-linejoin="miter"/>
   <polyline fill="none" stroke-linecap="butt" stroke-width="0.5" points="521.28,32.3999 521.28,36.8652" stroke="#262626" stroke-linejoin="miter"/>
   <text font-style="normal" font-weight="normal" font-size="10" font-family="FreeSans" xml:space="preserve" transform="translate(59.88,399.982) rotate(-0,15,-8)">
    <tspan fill="rgb(38,38,38)" y="-0" x="0 3 9 12 18 24 ">-0.003</tspan>
   </text>
   <text font-style="normal" font-weight="normal" font-size="10" font-family="FreeSans" xml:space="preserve" transform="translate(134.28,399.982) rotate(-0,15,-8)">
    <tspan fill="rgb(38,38,38)" y="-0" x="0 3 9 12 18 24 ">-0.002</tspan>
   </text>
   <text font-style="normal" font-weight="normal" font-size="10" font-family="FreeSans" xml:space="preserve" transform="translate(208.68,399.982) rotate(-0,15,-8)">
    <tspan fill="rgb(38,38,38)" y="-0" x="0 3 9 12 18 24 ">-0.001</tspan>
   </text>
   <text font-style="normal" font-weight="normal" font-size="10" font-family="FreeSans" xml:space="preserve" transform="translate(295.08,399.982) rotate(-0,3,-8)">
    <tspan fill="rgb(38,38,38)" y="-0" x="0 ">0</tspan>
   </text>
   <text font-style="normal" font-weight="normal" font-size="10" font-family="FreeSans" xml:space="preserve" transform="translate(358.98,399.982) rotate(-0,13.5,-8)">
    <tspan fill="rgb(38,38,38)" y="-0" x="0 6 9 15 21 ">0.001</tspan>
   </text>
   <text font-style="normal" font-weight="normal" font-size="10" font-family="FreeSans" xml:space="preserve" transform="translate(433.38,399.982) rotate(-0,13.5,-8)">
    <tspan fill="rgb(38,38,38)" y="-0" x="0 6 9 15 21 ">0.002</tspan>
   </text>
   <text font-style="normal" font-weight="normal" font-size="10" font-family="FreeSans" xml:space="preserve" transform="translate(507.78,399.982) rotate(-0,13.5,-8)">
    <tspan fill="rgb(38,38,38)" y="-0" x="0 6 9 15 21 ">0.003</tspan>
   </text>
   <polyline fill="none" stroke-linecap="butt" stroke-width="0.5" points="74.8799,384.48 79.3481,384.48" stroke="#262626" stroke-linejoin="miter"/>
   <polyline fill="none" stroke-linecap="butt" stroke-width="0.5" points="521.28,384.48 516.812,384.48" stroke="#262626" stroke-linejoin="miter"/>
   <polyline fill="none" stroke-linecap="butt" stroke-width="0.5" points="74.8799,296.46 79.3481,296.46" stroke="#262626" stroke-linejoin="miter"/>
   <polyline fill="none" stroke-linecap="butt" stroke-width="0.5" points="521.28,296.46 516.812,296.46" stroke="#262626" stroke-linejoin="miter"/>
   <polyline fill="none" stroke-linecap="butt" stroke-width="0.5" points="74.8799,208.44 79.3481,208.44" stroke="#262626" stroke-linejoin="miter"/>
   <polyline fill="none" stroke-linecap="butt" stroke-width="0.5" points="521.28,208.44 516.812,208.44" stroke="#262626" stroke-linejoin="miter"/>
   <polyline fill="none" stroke-linecap="butt" stroke-width="0.5" points="74.8799,120.42 79.3481,120.42" stroke="#262626" stroke-linejoin="miter"/>
   <polyline fill="none" stroke-linecap="butt" stroke-width="0.5" points="521.28,120.42 516.812,120.42" stroke="#262626" stroke-linejoin="miter"/>
   <polyline fill="none" stroke-linecap="butt" stroke-width="0.5" points="74.8799,32.3999 79.3481,32.3999" stroke="#262626" stroke-linejoin="miter"/>
   <polyline fill="none" stroke-linecap="butt" stroke-width="0.5" points="521.28,32.3999 516.812,32.3999" stroke="#262626" stroke-linejoin="miter"/>
   <text font-style="normal" font-weight="normal" font-size="10" font-family="FreeSans" xml:space="preserve" transform="translate(37.8755,388.48) rotate(-0,32,-4)">
    <tspan fill="rgb(38,38,38)" y="-0" x="0 3 9 14 20 26 ">-1e+08</tspan>
   </text>
   <text font-style="normal" font-weight="normal" font-size="10" font-family="FreeSans" xml:space="preserve" transform="translate(37.8755,300.46) rotate(-0,32,-4)">
    <tspan fill="rgb(38,38,38)" y="-0" x="0 3 9 14 20 26 ">-5e+07</tspan>
   </text>
   <text font-style="normal" font-weight="normal" font-size="10" font-family="FreeSans" xml:space="preserve" transform="translate(63.8755,212.44) rotate(-0,6,-4)">
    <tspan fill="rgb(38,38,38)" y="-0" x="0 ">0</tspan>
   </text>
   <text font-style="normal" font-weight="normal" font-size="10" font-family="FreeSans" xml:space="preserve" transform="translate(40.8755,124.42) rotate(-0,29,-4)">
    <tspan fill="rgb(38,38,38)" y="-0" x="0 6 11 17 23 ">5e+07</tspan>
   </text>
   <text font-style="normal" font-weight="normal" font-size="10" font-family="FreeSans" xml:space="preserve" transform="translate(40.8755,36.4) rotate(-0,29,-4)">
    <tspan fill="rgb(38,38,38)" y="-0" x="0 6 11 17 23 ">1e+08</tspan>
   </text>
   <polyline fill="none" stroke-linecap="square" stroke-width="0.5" points="74.8799,384.48 521.28,384.48" stroke="#262626" stroke-linejoin="miter" stroke-dasharray="16,0"/>
   <polyline fill="none" stroke-linecap="square" stroke-width="0.5" points="74.8799,32.3999 521.28,32.3999" stroke="#262626" stroke-linejoin="miter" stroke-dasharray="16,0"/>
   <polyline fill="none" stroke-linecap="square" stroke-width="0.5" points="74.8799,384.48 74.8799,32.3999" stroke="#262626" stroke-linejoin="miter" stroke-dasharray="16,0"/>
   <polyline fill="none" stroke-linecap="square" stroke-width="0.5" points="521.28,384.48 521.28,32.3999" stroke="#262626" stroke-linejoin="miter" stroke-dasharray="16,0"/>
   <text font-style="normal" font-weight="normal" font-size="11" font-family="FreeSans" xml:space="preserve" transform="translate(294.58,413.982) rotate(-0,3.5,-9)">
    <tspan fill="rgb(38,38,38)" y="-0" x="0 ">Z</tspan>
   </text>
   <text font-style="normal" font-weight="normal" font-size="11" font-family="FreeSans" xml:space="preserve" transform="translate(17.8755,208.44) rotate(-90,15,0)">
    <tspan fill="rgb(38,38,38)" y="-2" x="0 7 9 15 24 ">Sigma</tspan>
   </text>
   <text font-style="normal" font-weight="bold" font-size="11" font-family="FreeSans" xml:space="preserve" transform="translate(188.08,22.4) rotate(-0,110,0)">
    <tspan fill="rgb(0,0,0)" y="-3" x="0 7 11 17 21 24 30 33 41 48 54 57 63 69 72 78 81 85 88 95 98 105 115 121 124 131 138 141 145 151 157 164 168 171 174 181 188 191 197 203 206 213 ">Static Analysis - Sigma YY (90°): LE vs TE</tspan>
   </text>
   <polyline fill="none" stroke-linecap="butt" stroke-width="2" points="74.8809,56.3789 112.08,81.8589 149.28,107.223 186.48,132.472 223.679,157.603 223.681,205.109 260.88,206.775 298.08,208.44 335.28,210.105 372.479,211.771 372.481,259.277 409.68,284.409 446.88,309.657 484.08,335.021 521.279,360.501" stroke="#0071bc" stroke-linejoin="round"/>
   <polyline fill="none" stroke-linecap="butt" stroke-width="2" points="74.8809,56.5005 112.08,81.8232 149.28,107.146 186.48,132.47 223.679,157.793 223.681,204.954 260.88,206.697 298.08,208.44 335.28,210.183 372.479,211.927 372.481,259.087 409.68,284.41 446.88,309.733 484.08,335.057 521.279,360.379" stroke="#d85218" stroke-linejoin="round"/>
   <polyline fill="none" stroke-linecap="butt" stroke-width="2" points="74.8809,56.4897 112.08,81.8145 149.28,107.139 186.48,132.464 223.679,157.789 223.681,205.052 260.88,206.746 298.08,208.44 335.28,210.134 372.479,211.828 372.481,259.091 409.68,284.416 446.88,309.741 484.08,335.066 521.279,360.391" stroke="#ecb01f" stroke-linejoin="round"/>
   <polyline fill="none" stroke-linecap="butt" stroke-width="2" points="74.8809,56.4917 112.08,81.8271 149.28,107.157 186.48,132.482 223.679,157.803 223.681,205.098 260.88,206.769 298.08,208.44 335.28,210.111 372.479,211.782 372.481,259.077 409.68,284.398 446.88,309.723 484.08,335.053 521.279,360.388" stroke="#7d2e8d" stroke-linejoin="round"/>
   <polyline fill="none" stroke-linecap="butt" stroke-width="2" points="74.8809,56.4834 112.08,81.8257 149.28,107.16 186.48,132.486 223.679,157.807 223.681,205.102 260.88,206.771 298.08,208.44 335.28,210.109 372.479,211.778 372.481,259.074 409.68,284.394 446.88,309.721 484.08,335.054 521.279,360.396" stroke="#76ab2f" stroke-linejoin="round"/>
   <polyline fill="none" stroke-linecap="butt" stroke-width="2" points="74.8809,56.4155 112.08,81.8779 149.28,107.201 186.48,132.484 223.679,157.777 223.681,205.099 260.88,206.769 298.08,208.44 335.28,210.111 372.479,211.781 372.481,259.103 409.68,284.396 446.88,309.679 484.08,335.002 521.279,360.464" stroke="#4cbded" stroke-linejoin="round"/>
   <polyline fill="none" stroke-linecap="butt" stroke-width="2" points="74.8809,56.436 112.08,81.8779 149.28,107.201 186.48,132.489 223.679,157.785 223.681,205.104 260.88,206.773 298.08,208.44 335.28,210.107 372.479,211.776 372.481,259.095 409.68,284.391 446.88,309.679 484.08,335.002 521.279,360.444" stroke="#a1132e" stroke-linejoin="round"/>
  </g>
  <clipPath id="cp00576432">
   <polygon points="0,432 576,432 576,0 0,0"/>
  </clipPath>
  <g clip-path="url(#cp00576432)">
   <polygon fill="#ffffff" shape-rendering="crispEdges" points="458.45,141.945 509.737,141.945 509.737,43.9434 458.45,43.9434"/>
   <polyline fill="none" stroke-linecap="square" stroke-width="0.5" points="458.45,141.945 509.737,141.945" stroke="#262626" stroke-linejoin="miter" stroke-dasharray="16,0"/>
   <polyline fill="none" stroke-linecap="square" stroke-width="0.5" points="458.45,43.9434 509.737,43.9434" stroke="#262626" stroke-linejoin="miter" stroke-dasharray="16,0"/>
   <polyline fill="none" stroke-linecap="square" stroke-width="0.5" points="458.45,141.945 458.45,43.9434" stroke="#262626" stroke-linejoin="miter" stroke-dasharray="16,0"/>
   <polyline fill="none" stroke-linecap="square" stroke-width="0.5" points="509.737,141.945 509.737,43.9434" stroke="#262626" stroke-linejoin="miter" stroke-dasharray="16,0"/>
   <text font-style="normal" font-weight="normal" font-size="9" font-family="FreeSans" xml:space="preserve" transform="translate(486.827,54.9434) rotate(-0,-0,-4)">
    <tspan fill="rgb(0,0,0)" y="-0" x="0 5 ">LE</tspan>
   </text>
   <text font-style="normal" font-weight="normal" font-size="9" font-family="FreeSans" xml:space="preserve" transform="translate(486.827,68.9436) rotate(-0,-0,-4)">
    <tspan fill="rgb(0,0,0)" y="-0" x="0 6 12 14 ">TE 1</tspan>
   </text>
   <text font-style="normal" font-weight="normal" font-size="9" font-family="FreeSans" xml:space="preserve" transform="translate(486.827,82.9438) rotate(-0,-0,-4)">
    <tspan fill="rgb(0,0,0)" y="-0" x="0 6 12 14 ">TE 2</tspan>
   </text>
   <text font-style="normal" font-weight="normal" font-size="9" font-family="FreeSans" xml:space="preserve" transform="translate(486.827,96.9441) rotate(-0,-0,-4)">
    <tspan fill="rgb(0,0,0)" y="-0" x="0 6 12 14 ">TE 3</tspan>
   </text>
   <text font-style="normal" font-weight="normal" font-size="9" font-family="FreeSans" xml:space="preserve" transform="translate(486.827,110.944) rotate(-0,-0,-4)">
    <tspan fill="rgb(0,0,0)" y="-0" x="0 6 12 14 ">TE 4</tspan>
   </text>
   <text font-style="normal" font-weight="normal" font-size="9" font-family="FreeSans" xml:space="preserve" transform="translate(486.827,124.944) rotate(-0,-0,-4)">
    <tspan fill="rgb(0,0,0)" y="-0" x="0 6 12 14 ">TE 5</tspan>
   </text>
   <text font-style="normal" font-weight="normal" font-size="9" font-family="FreeSans" xml:space="preserve" transform="translate(486.827,138.945) rotate(-0,-0,-4)">
    <tspan fill="rgb(0,0,0)" y="-0" x="0 6 12 14 ">TE 6</tspan>
   </text>
   <polyline fill="none" stroke-linecap="butt" stroke-width="2" points="461.816,50.9434 483.46,50.9434" stroke="#0071bc" stroke-linejoin="round"/>
   <polyline fill="none" stroke-linecap="butt" stroke-width="2" points="461.816,64.9438 483.46,64.9438" stroke="#d85218" stroke-linejoin="round"/>
   <polyline fill="none" stroke-linecap="butt" stroke-width="2" points="461.816,78.9438 483.46,78.9438" stroke="#ecb01f" stroke-linejoin="round"/>
   <polyline fill="none" stroke-linecap="butt" stroke-width="2" points="461.816,92.9438 483.46,92.9438" stroke="#7d2e8d" stroke-linejoin="round"/>
   <polyline fill="none" stroke-linecap="butt" stroke-width="2" points="461.816,106.944 483.46,106.944" stroke="#76ab2f" stroke-linejoin="round"/>
   <polyline fill="none" stroke-linecap="butt" stroke-width="2" points="461.816,120.944 483.46,120.944" stroke="#4cbded" stroke-linejoin="round"/>
   <polyline fill="none" stroke-linecap="butt" stroke-width="2" points="461.816,134.945 483.46,134.945" stroke="#a1132e" stroke-linejoin="round"/>
  </g>
 </g>
</svg>
