<?xml version='1.0' encoding='UTF-8' standalone='no'?>
<svg viewBox="0 0 576 432" xmlns="http://www.w3.org/2000/svg" height="432pt" xmlns:xlink="http://www.w3.org/1999/xlink" width="576pt">
 <title>gl2ps_renderer figure</title>
 <desc>
Creator: GL2PS 1.4.2, (C) 1999-2020 C. Geuzaine
For: Octave
CreationDate: Thu Jan 28 17:38:19 2021
</desc>
 <defs/>
 <polygon points="0,0 576,0 576,432 0,432" fill="#ffffff"/>
 <g>
  <polygon points="0,432 576,432 576,0 0,0" shape-rendering="crispEdges" fill="#ffffff"/>
  <clipPath id="cp00576432">
   <polygon points="0,432 576,432 576,0 0,0"/>
  </clipPath>
  <g clip-path="url(#cp00576432)">
   <polygon points="74.8799,384.48 521.28,384.48 521.28,32.3999 74.8799,32.3999" shape-rendering="crispEdges" fill="#ffffff"/>
   <polyline points="74.8799,384.48 74.8799,380.015" stroke="#262626" stroke-width="0.5" stroke-linecap="butt" stroke-linejoin="miter" fill="none"/>
   <polyline points="74.8799,32.3999 74.8799,36.8652" stroke="#262626" stroke-width="0.5" stroke-linecap="butt" stroke-linejoin="miter" fill="none"/>
   <polyline points="149.28,384.48 149.28,380.015" stroke="#262626" stroke-width="0.5" stroke-linecap="butt" stroke-linejoin="miter" fill="none"/>
   <polyline points="149.28,32.3999 149.28,36.8652" stroke="#262626" stroke-width="0.5" stroke-linecap="butt" stroke-linejoin="miter" fill="none"/>
   <polyline points="223.68,384.48 223.68,380.015" stroke="#262626" stroke-width="0.5" stroke-linecap="butt" stroke-linejoin="miter" fill="none"/>
   <polyline points="223.68,32.3999 223.68,36.8652" stroke="#262626" stroke-width="0.5" stroke-linecap="butt" stroke-linejoin="miter" fill="none"/>
   <polyline points="298.08,384.48 298.08,380.015" stroke="#262626" stroke-width="0.5" stroke-linecap="butt" stroke-linejoin="miter" fill="none"/>
   <polyline points="298.08,32.3999 298.08,36.8652" stroke="#262626" stroke-width="0.5" stroke-linecap="butt" stroke-linejoin="miter" fill="none"/>
   <polyline points="372.48,384.48 372.48,380.015" stroke="#262626" stroke-width="0.5" stroke-linecap="butt" stroke-linejoin="miter" fill="none"/>
   <polyline points="372.48,32.3999 372.48,36.8652" stroke="#262626" stroke-width="0.5" stroke-linecap="butt" stroke-linejoin="miter" fill="none"/>
   <polyline points="446.88,384.48 446.88,380.015" stroke="#262626" stroke-width="0.5" stroke-linecap="butt" stroke-linejoin="miter" fill="none"/>
   <polyline points="446.88,32.3999 446.88,36.8652" stroke="#262626" stroke-width="0.5" stroke-linecap="butt" stroke-linejoin="miter" fill="none"/>
   <polyline points="521.28,384.48 521.28,380.015" stroke="#262626" stroke-width="0.5" stroke-linecap="butt" stroke-linejoin="miter" fill="none"/>
   <polyline points="521.28,32.3999 521.28,36.8652" stroke="#262626" stroke-width="0.5" stroke-linecap="butt" stroke-linejoin="miter" fill="none"/>
   <text xml:space="preserve" font-family="FreeSans" font-weight="normal" font-style="normal" transform="translate(59.88,399.982) rotate(-0,15,-8)" font-size="10">
    <tspan y="-0" fill="rgb(38,38,38)" x="0 3 9 12 18 24 ">-0.003</tspan>
   </text>
   <text xml:space="preserve" font-family="FreeSans" font-weight="normal" font-style="normal" transform="translate(134.28,399.982) rotate(-0,15,-8)" font-size="10">
    <tspan y="-0" fill="rgb(38,38,38)" x="0 3 9 12 18 24 ">-0.002</tspan>
   </text>
   <text xml:space="preserve" font-family="FreeSans" font-weight="normal" font-style="normal" transform="translate(208.68,399.982) rotate(-0,15,-8)" font-size="10">
    <tspan y="-0" fill="rgb(38,38,38)" x="0 3 9 12 18 24 ">-0.001</tspan>
   </text>
   <text xml:space="preserve" font-family="FreeSans" font-weight="normal" font-style="normal" transform="translate(295.08,399.982) rotate(-0,3,-8)" font-size="10">
    <tspan y="-0" fill="rgb(38,38,38)" x="0 ">0</tspan>
   </text>
   <text xml:space="preserve" font-family="FreeSans" font-weight="normal" font-style="normal" transform="translate(358.98,399.982) rotate(-0,13.5,-8)" font-size="10">
    <tspan y="-0" fill="rgb(38,38,38)" x="0 6 9 15 21 ">0.001</tspan>
   </text>
   <text xml:space="preserve" font-family="FreeSans" font-weight="normal" font-style="normal" transform="translate(433.38,399.982) rotate(-0,13.5,-8)" font-size="10">
    <tspan y="-0" fill="rgb(38,38,38)" x="0 6 9 15 21 ">0.002</tspan>
   </text>
   <text xml:space="preserve" font-family="FreeSans" font-weight="normal" font-style="normal" transform="translate(507.78,399.982) rotate(-0,13.5,-8)" font-size="10">
    <tspan y="-0" fill="rgb(38,38,38)" x="0 6 9 15 21 ">0.003</tspan>
   </text>
   <polyline points="74.8799,384.48 79.3481,384.48" stroke="#262626" stroke-width="0.5" stroke-linecap="butt" stroke-linejoin="miter" fill="none"/>
   <polyline points="521.28,384.48 516.812,384.48" stroke="#262626" stroke-width="0.5" stroke-linecap="butt" stroke-linejoin="miter" fill="none"/>
   <polyline points="74.8799,296.46 79.3481,296.46" stroke="#262626" stroke-width="0.5" stroke-linecap="butt" stroke-linejoin="miter" fill="none"/>
   <polyline points="521.28,296.46 516.812,296.46" stroke="#262626" stroke-width="0.5" stroke-linecap="butt" stroke-linejoin="miter" fill="none"/>
   <polyline points="74.8799,208.44 79.3481,208.44" stroke="#262626" stroke-width="0.5" stroke-linecap="butt" stroke-linejoin="miter" fill="none"/>
   <polyline points="521.28,208.44 516.812,208.44" stroke="#262626" stroke-width="0.5" stroke-linecap="butt" stroke-linejoin="miter" fill="none"/>
   <polyline points="74.8799,120.42 79.3481,120.42" stroke="#262626" stroke-width="0.5" stroke-linecap="butt" stroke-linejoin="miter" fill="none"/>
   <polyline points="521.28,120.42 516.812,120.42" stroke="#262626" stroke-width="0.5" stroke-linecap="butt" stroke-linejoin="miter" fill="none"/>
   <polyline points="74.8799,32.3999 79.3481,32.3999" stroke="#262626" stroke-width="0.5" stroke-linecap="butt" stroke-linejoin="miter" fill="none"/>
   <polyline points="521.28,32.3999 516.812,32.3999" stroke="#262626" stroke-width="0.5" stroke-linecap="butt" stroke-linejoin="miter" fill="none"/>
   <text xml:space="preserve" font-family="FreeSans" font-weight="normal" font-style="normal" transform="translate(28.8755,388.48) rotate(-0,41,-4)" font-size="10">
    <tspan y="-0" fill="rgb(38,38,38)" x="0 3 9 12 18 23 29 35 ">-1.5e+07</tspan>
   </text>
   <text xml:space="preserve" font-family="FreeSans" font-weight="normal" font-style="normal" transform="translate(37.8755,300.46) rotate(-0,32,-4)" font-size="10">
    <tspan y="-0" fill="rgb(38,38,38)" x="0 3 9 14 20 26 ">-1e+07</tspan>
   </text>
   <text xml:space="preserve" font-family="FreeSans" font-weight="normal" font-style="normal" transform="translate(37.8755,212.44) rotate(-0,32,-4)" font-size="10">
    <tspan y="-0" fill="rgb(38,38,38)" x="0 3 9 14 20 26 ">-5e+06</tspan>
   </text>
   <text xml:space="preserve" font-family="FreeSans" font-weight="normal" font-style="normal" transform="translate(63.8755,124.42) rotate(-0,6,-4)" font-size="10">
    <tspan y="-0" fill="rgb(38,38,38)" x="0 ">0</tspan>
   </text>
   <text xml:space="preserve" font-family="FreeSans" font-weight="normal" font-style="normal" transform="translate(40.8755,36.4) rotate(-0,29,-4)" font-size="10">
    <tspan y="-0" fill="rgb(38,38,38)" x="0 6 11 17 23 ">5e+06</tspan>
   </text>
   <polyline points="74.8799,384.48 521.28,384.48" stroke="#262626" stroke-width="0.5" stroke-linecap="square" stroke-linejoin="miter" fill="none" stroke-dasharray="16,0"/>
   <polyline points="74.8799,32.3999 521.28,32.3999" stroke="#262626" stroke-width="0.5" stroke-linecap="square" stroke-linejoin="miter" fill="none" stroke-dasharray="16,0"/>
   <polyline points="74.8799,384.48 74.8799,32.3999" stroke="#262626" stroke-width="0.5" stroke-linecap="square" stroke-linejoin="miter" fill="none" stroke-dasharray="16,0"/>
   <polyline points="521.28,384.48 521.28,32.3999" stroke="#262626" stroke-width="0.5" stroke-linecap="square" stroke-linejoin="miter" fill="none" stroke-dasharray="16,0"/>
   <text xml:space="preserve" font-family="FreeSans" font-weight="normal" font-style="normal" transform="translate(294.58,413.982) rotate(-0,3.5,-9)" font-size="11">
    <tspan y="-0" fill="rgb(38,38,38)" x="0 ">Z</tspan>
   </text>
   <text xml:space="preserve" font-family="FreeSans" font-weight="normal" font-style="normal" transform="translate(8.87552,208.44) rotate(-90,15,0)" font-size="11">
    <tspan y="-2" fill="rgb(38,38,38)" x="0 7 9 15 24 ">Sigma</tspan>
   </text>
   <text xml:space="preserve" font-family="FreeSans" font-weight="bold" font-style="normal" transform="translate(181.58,22.4) rotate(-0,116.5,0)" font-size="11">
    <tspan y="-3" fill="rgb(0,0,0)" x="0 7 14 20 24 34 40 43 46 54 61 67 70 76 82 85 91 94 98 101 108 111 118 128 134 137 144 151 154 158 164 170 177 181 184 187 194 201 204 210 216 219 226 ">Thermal Analysis - Sigma XX (90°): LE vs TE</tspan>
   </text>
   <polyline points="74.8809,67.7783 112.08,71.6895 149.28,70.2617 186.48,63.4941 223.679,51.3877 223.681,217.317 260.88,301.283 298.08,329.272 335.28,301.283 372.479,217.317 372.481,51.3877 409.68,63.4941 446.88,70.2617 484.08,71.6895 521.279,67.7783" stroke="#0071bc" stroke-width="2" stroke-linecap="butt" stroke-linejoin="round" fill="none"/>
   <polyline points="74.8809,66.3418 112.08,66.3418 149.28,66.3418 186.48,66.3418 223.679,66.3418 223.681,228.554 260.88,228.554 298.08,228.554 335.28,228.554 372.479,228.554 372.481,66.3418 409.68,66.3418 446.88,66.3418 484.08,66.3418 521.279,66.3418" stroke="#d85218" stroke-width="2" stroke-linecap="butt" stroke-linejoin="round" fill="none"/>
   <polyline points="74.8809,71.4243 112.08,71.5537 149.28,71.6597 186.48,71.7422 223.679,71.8008 223.681,218.511 260.88,218.547 298.08,218.559 335.28,218.547 372.479,218.511 372.481,71.8008 409.68,71.7422 446.88,71.6597 484.08,71.5537 521.279,71.4243" stroke="#ecb01f" stroke-width="2" stroke-linecap="butt" stroke-linejoin="round" fill="none"/>
   <polyline points="74.8809,66.6572 112.08,68.9829 149.28,70.8857 186.48,72.3657 223.679,73.4229 223.681,220.104 260.88,220.654 298.08,220.837 335.28,220.654 372.479,220.104 372.481,73.4229 409.68,72.3657 446.88,70.8857 484.08,68.9829 521.279,66.6572" stroke="#7d2e8d" stroke-width="2" stroke-linecap="butt" stroke-linejoin="round" fill="none"/>
   <polyline points="74.8809,76.5669 112.08,66.0957 149.28,66.3179 186.48,71.9595 223.679,78.9189 223.681,225.486 260.88,230.742 298.08,232.689 335.28,230.742 372.479,225.486 372.481,78.9189 409.68,71.9595 446.88,66.3179 484.08,66.0957 521.279,76.5669" stroke="#76ab2f" stroke-width="2" stroke-linecap="butt" stroke-linejoin="round" fill="none"/>
   <polyline points="74.8809,84.8184 112.08,64.9121 149.28,62.5728 186.48,69.4321 223.679,78.9805 223.681,225.982 260.88,233.475 298.08,236.274 335.28,233.475 372.479,225.982 372.481,78.9805 409.68,69.4321 446.88,62.5728 484.08,64.9121 521.279,84.8184" stroke="#4cbded" stroke-width="2" stroke-linecap="butt" stroke-linejoin="round" fill="none"/>
   <polyline points="74.8809,55.6577 112.08,75.6387 149.28,60.3301 186.48,64.1001 223.679,89.9312 223.681,236.732 260.88,265.546 298.08,277.806 335.28,265.546 372.479,236.732 372.481,89.9312 409.68,64.1001 446.88,60.3301 484.08,75.6387 521.279,55.6577" stroke="#a1132e" stroke-width="2" stroke-linecap="butt" stroke-linejoin="round" fill="none"/>
  </g>
  <clipPath id="cp00576432">
   <polygon points="0,432 576,432 576,0 0,0"/>
  </clipPath>
  <g clip-path="url(#cp00576432)">
   <polygon points="458.45,141.945 509.737,141.945 509.737,43.9434 458.45,43.9434" shape-rendering="crispEdges" fill="#ffffff"/>
   <polyline points="458.45,141.945 509.737,141.945" stroke="#262626" stroke-width="0.5" stroke-linecap="square" stroke-linejoin="miter" fill="none" stroke-dasharray="16,0"/>
   <polyline points="458.45,43.9434 509.737,43.9434" stroke="#262626" stroke-width="0.5" stroke-linecap="square" stroke-linejoin="miter" fill="none" stroke-dasharray="16,0"/>
   <polyline points="458.45,141.945 458.45,43.9434" stroke="#262626" stroke-width="0.5" stroke-linecap="square" stroke-linejoin="miter" fill="none" stroke-dasharray="16,0"/>
   <polyline points="509.737,141.945 509.737,43.9434" stroke="#262626" stroke-width="0.5" stroke-linecap="square" stroke-linejoin="miter" fill="none" stroke-dasharray="16,0"/>
   <text xml:space="preserve" font-family="FreeSans" font-weight="normal" font-style="normal" transform="translate(486.827,54.9434) rotate(-0,-0,-4)" font-size="9">
    <tspan y="-0" fill="rgb(0,0,0)" x="0 5 ">LE</tspan>
   </text>
   <text xml:space="preserve" font-family="FreeSans" font-weight="normal" font-style="normal" transform="translate(486.827,68.9436) rotate(-0,-0,-4)" font-size="9">
    <tspan y="-0" fill="rgb(0,0,0)" x="0 6 12 14 ">TE 1</tspan>
   </text>
   <text xml:space="preserve" font-family="FreeSans" font-weight="normal" font-style="normal" transform="translate(486.827,82.9438) rotate(-0,-0,-4)" font-size="9">
    <tspan y="-0" fill="rgb(0,0,0)" x="0 6 12 14 ">TE 2</tspan>
   </text>
   <text xml:space="preserve" font-family="FreeSans" font-weight="normal" font-style="normal" transform="translate(486.827,96.9441) rotate(-0,-0,-4)" font-size="9">
    <tspan y="-0" fill="rgb(0,0,0)" x="0 6 12 14 ">TE 3</tspan>
   </text>
   <text xml:space="preserve" font-family="FreeSans" font-weight="normal" font-style="normal" transform="translate(486.827,110.944) rotate(-0,-0,-4)" font-size="9">
    <tspan y="-0" fill="rgb(0,0,0)" x="0 6 12 14 ">TE 4</tspan>
   </text>
   <text xml:space="preserve" font-family="FreeSans" font-weight="normal" font-style="normal" transform="translate(486.827,124.944) rotate(-0,-0,-4)" font-size="9">
    <tspan y="-0" fill="rgb(0,0,0)" x="0 6 12 14 ">TE 5</tspan>
   </text>
   <text xml:space="preserve" font-family="FreeSans" font-weight="normal" font-style="normal" transform="translate(486.827,138.945) rotate(-0,-0,-4)" font-size="9">
    <tspan y="-0" fill="rgb(0,0,0)" x="0 6 12 14 ">TE 6</tspan>
   </text>
   <polyline points="461.816,50.9434 483.46,50.9434" stroke="#0071bc" stroke-width="2" stroke-linecap="butt" stroke-linejoin="round" fill="none"/>
   <polyline points="461.816,64.9438 483.46,64.9438" stroke="#d85218" stroke-width="2" stroke-linecap="butt" stroke-linejoin="round" fill="none"/>
   <polyline points="461.816,78.9438 483.46,78.9438" stroke="#ecb01f" stroke-width="2" stroke-linecap="butt" stroke-linejoin="round" fill="none"/>
   <polyline points="461.816,92.9438 483.46,92.9438" stroke="#7d2e8d" stroke-width="2" stroke-linecap="butt" stroke-linejoin="round" fill="none"/>
   <polyline points="461.816,106.944 483.46,106.944" stroke="#76ab2f" stroke-width="2" stroke-linecap="butt" stroke-linejoin="round" fill="none"/>
   <polyline points="461.816,120.944 483.46,120.944" stroke="#4cbded" stroke-width="2" stroke-linecap="butt" stroke-linejoin="round" fill="none"/>
   <polyline points="461.816,134.945 483.46,134.945" stroke="#a1132e" stroke-width="2" stroke-linecap="butt" stroke-linejoin="round" fill="none"/>
  </g>
 </g>
</svg>
