<?xml version='1.0' encoding='UTF-8' standalone='no'?>
<svg viewBox="0 0 576 432" width="576pt" xmlns="http://www.w3.org/2000/svg" xmlns:xlink="http://www.w3.org/1999/xlink" height="432pt">
 <title>gl2ps_renderer figure</title>
 <desc>
Creator: GL2PS 1.4.2, (C) 1999-2020 C. Geuzaine
For: Octave
CreationDate: Thu Jan 28 17:38:42 2021
</desc>
 <defs/>
 <polygon fill="#ffffff" points="0,0 576,0 576,432 0,432"/>
 <g>
  <polygon fill="#ffffff" shape-rendering="crispEdges" points="0,432 576,432 576,0 0,0"/>
  <clipPath id="cp00576432">
   <polygon points="0,432 576,432 576,0 0,0"/>
  </clipPath>
  <g clip-path="url(#cp00576432)">
   <polygon fill="#ffffff" shape-rendering="crispEdges" points="74.8799,384.48 521.28,384.48 521.28,32.3999 74.8799,32.3999"/>
   <polyline fill="none" stroke-linejoin="miter" stroke-linecap="butt" stroke="#262626" points="74.8799,384.48 74.8799,380.015" stroke-width="0.5"/>
   <polyline fill="none" stroke-linejoin="miter" stroke-linecap="butt" stroke="#262626" points="74.8799,32.3999 74.8799,36.8652" stroke-width="0.5"/>
   <polyline fill="none" stroke-linejoin="miter" stroke-linecap="butt" stroke="#262626" points="149.28,384.48 149.28,380.015" stroke-width="0.5"/>
   <polyline fill="none" stroke-linejoin="miter" stroke-linecap="butt" stroke="#262626" points="149.28,32.3999 149.28,36.8652" stroke-width="0.5"/>
   <polyline fill="none" stroke-linejoin="miter" stroke-linecap="butt" stroke="#262626" points="223.68,384.48 223.68,380.015" stroke-width="0.5"/>
   <polyline fill="none" stroke-linejoin="miter" stroke-linecap="butt" stroke="#262626" points="223.68,32.3999 223.68,36.8652" stroke-width="0.5"/>
   <polyline fill="none" stroke-linejoin="miter" stroke-linecap="butt" stroke="#262626" points="298.08,384.48 298.08,380.015" stroke-width="0.5"/>
   <polyline fill="none" stroke-linejoin="miter" stroke-linecap="butt" stroke="#262626" points="298.08,32.3999 298.08,36.8652" stroke-width="0.5"/>
   <polyline fill="none" stroke-linejoin="miter" stroke-linecap="butt" stroke="#262626" points="372.48,384.48 372.48,380.015" stroke-width="0.5"/>
   <polyline fill="none" stroke-linejoin="miter" stroke-linecap="butt" stroke="#262626" points="372.48,32.3999 372.48,36.8652" stroke-width="0.5"/>
   <polyline fill="none" stroke-linejoin="miter" stroke-linecap="butt" stroke="#262626" points="446.88,384.48 446.88,380.015" stroke-width="0.5"/>
   <polyline fill="none" stroke-linejoin="miter" stroke-linecap="butt" stroke="#262626" points="446.88,32.3999 446.88,36.8652" stroke-width="0.5"/>
   <polyline fill="none" stroke-linejoin="miter" stroke-linecap="butt" stroke="#262626" points="521.28,384.48 521.28,380.015" stroke-width="0.5"/>
   <polyline fill="none" stroke-linejoin="miter" stroke-linecap="butt" stroke="#262626" points="521.28,32.3999 521.28,36.8652" stroke-width="0.5"/>
   <text font-family="FreeSans" transform="translate(59.88,399.982) rotate(-0,15,-8)" font-size="10" xml:space="preserve" font-weight="normal" font-style="normal">
    <tspan fill="rgb(38,38,38)" x="0 3 9 12 18 24 " y="-0">-0.003</tspan>
   </text>
   <text font-family="FreeSans" transform="translate(134.28,399.982) rotate(-0,15,-8)" font-size="10" xml:space="preserve" font-weight="normal" font-style="normal">
    <tspan fill="rgb(38,38,38)" x="0 3 9 12 18 24 " y="-0">-0.002</tspan>
   </text>
   <text font-family="FreeSans" transform="translate(208.68,399.982) rotate(-0,15,-8)" font-size="10" xml:space="preserve" font-weight="normal" font-style="normal">
    <tspan fill="rgb(38,38,38)" x="0 3 9 12 18 24 " y="-0">-0.001</tspan>
   </text>
   <text font-family="FreeSans" transform="translate(295.08,399.982) rotate(-0,3,-8)" font-size="10" xml:space="preserve" font-weight="normal" font-style="normal">
    <tspan fill="rgb(38,38,38)" x="0 " y="-0">0</tspan>
   </text>
   <text font-family="FreeSans" transform="translate(358.98,399.982) rotate(-0,13.5,-8)" font-size="10" xml:space="preserve" font-weight="normal" font-style="normal">
    <tspan fill="rgb(38,38,38)" x="0 6 9 15 21 " y="-0">0.001</tspan>
   </text>
   <text font-family="FreeSans" transform="translate(433.38,399.982) rotate(-0,13.5,-8)" font-size="10" xml:space="preserve" font-weight="normal" font-style="normal">
    <tspan fill="rgb(38,38,38)" x="0 6 9 15 21 " y="-0">0.002</tspan>
   </text>
   <text font-family="FreeSans" transform="translate(507.78,399.982) rotate(-0,13.5,-8)" font-size="10" xml:space="preserve" font-weight="normal" font-style="normal">
    <tspan fill="rgb(38,38,38)" x="0 6 9 15 21 " y="-0">0.003</tspan>
   </text>
   <polyline fill="none" stroke-linejoin="miter" stroke-linecap="butt" stroke="#262626" points="74.8799,384.48 79.3481,384.48" stroke-width="0.5"/>
   <polyline fill="none" stroke-linejoin="miter" stroke-linecap="butt" stroke="#262626" points="521.28,384.48 516.812,384.48" stroke-width="0.5"/>
   <polyline fill="none" stroke-linejoin="miter" stroke-linecap="butt" stroke="#262626" points="74.8799,314.064 79.3481,314.064" stroke-width="0.5"/>
   <polyline fill="none" stroke-linejoin="miter" stroke-linecap="butt" stroke="#262626" points="521.28,314.064 516.812,314.064" stroke-width="0.5"/>
   <polyline fill="none" stroke-linejoin="miter" stroke-linecap="butt" stroke="#262626" points="74.8799,243.648 79.3481,243.648" stroke-width="0.5"/>
   <polyline fill="none" stroke-linejoin="miter" stroke-linecap="butt" stroke="#262626" points="521.28,243.648 516.812,243.648" stroke-width="0.5"/>
   <polyline fill="none" stroke-linejoin="miter" stroke-linecap="butt" stroke="#262626" points="74.8799,173.232 79.3481,173.232" stroke-width="0.5"/>
   <polyline fill="none" stroke-linejoin="miter" stroke-linecap="butt" stroke="#262626" points="521.28,173.232 516.812,173.232" stroke-width="0.5"/>
   <polyline fill="none" stroke-linejoin="miter" stroke-linecap="butt" stroke="#262626" points="74.8799,102.816 79.3481,102.816" stroke-width="0.5"/>
   <polyline fill="none" stroke-linejoin="miter" stroke-linecap="butt" stroke="#262626" points="521.28,102.816 516.812,102.816" stroke-width="0.5"/>
   <polyline fill="none" stroke-linejoin="miter" stroke-linecap="butt" stroke="#262626" points="74.8799,32.3999 79.3481,32.3999" stroke-width="0.5"/>
   <polyline fill="none" stroke-linejoin="miter" stroke-linecap="butt" stroke="#262626" points="521.28,32.3999 516.812,32.3999" stroke-width="0.5"/>
   <text font-family="FreeSans" transform="translate(37.8755,388.48) rotate(-0,32,-4)" font-size="10" xml:space="preserve" font-weight="normal" font-style="normal">
    <tspan fill="rgb(38,38,38)" x="0 3 9 14 20 26 " y="-0">-6e+08</tspan>
   </text>
   <text font-family="FreeSans" transform="translate(37.8755,318.064) rotate(-0,32,-4)" font-size="10" xml:space="preserve" font-weight="normal" font-style="normal">
    <tspan fill="rgb(38,38,38)" x="0 3 9 14 20 26 " y="-0">-4e+08</tspan>
   </text>
   <text font-family="FreeSans" transform="translate(37.8755,247.648) rotate(-0,32,-4)" font-size="10" xml:space="preserve" font-weight="normal" font-style="normal">
    <tspan fill="rgb(38,38,38)" x="0 3 9 14 20 26 " y="-0">-2e+08</tspan>
   </text>
   <text font-family="FreeSans" transform="translate(63.8755,177.232) rotate(-0,6,-4)" font-size="10" xml:space="preserve" font-weight="normal" font-style="normal">
    <tspan fill="rgb(38,38,38)" x="0 " y="-0">0</tspan>
   </text>
   <text font-family="FreeSans" transform="translate(40.8755,106.816) rotate(-0,29,-4)" font-size="10" xml:space="preserve" font-weight="normal" font-style="normal">
    <tspan fill="rgb(38,38,38)" x="0 6 11 17 23 " y="-0">2e+08</tspan>
   </text>
   <text font-family="FreeSans" transform="translate(40.8755,36.4) rotate(-0,29,-4)" font-size="10" xml:space="preserve" font-weight="normal" font-style="normal">
    <tspan fill="rgb(38,38,38)" x="0 6 11 17 23 " y="-0">4e+08</tspan>
   </text>
   <polyline fill="none" stroke-linejoin="miter" stroke-linecap="square" stroke-dasharray="16,0" stroke="#262626" points="74.8799,384.48 521.28,384.48" stroke-width="0.5"/>
   <polyline fill="none" stroke-linejoin="miter" stroke-linecap="square" stroke-dasharray="16,0" stroke="#262626" points="74.8799,32.3999 521.28,32.3999" stroke-width="0.5"/>
   <polyline fill="none" stroke-linejoin="miter" stroke-linecap="square" stroke-dasharray="16,0" stroke="#262626" points="74.8799,384.48 74.8799,32.3999" stroke-width="0.5"/>
   <polyline fill="none" stroke-linejoin="miter" stroke-linecap="square" stroke-dasharray="16,0" stroke="#262626" points="521.28,384.48 521.28,32.3999" stroke-width="0.5"/>
   <text font-family="FreeSans" transform="translate(294.58,413.982) rotate(-0,3.5,-9)" font-size="11" xml:space="preserve" font-weight="normal" font-style="normal">
    <tspan fill="rgb(38,38,38)" x="0 " y="-0">Z</tspan>
   </text>
   <text font-family="FreeSans" transform="translate(17.8755,208.44) rotate(-90,15,0)" font-size="11" xml:space="preserve" font-weight="normal" font-style="normal">
    <tspan fill="rgb(38,38,38)" x="0 7 9 15 24 " y="-2">Sigma</tspan>
   </text>
   <text font-family="FreeSans" transform="translate(181.58,22.4) rotate(-0,116.5,0)" font-size="11" xml:space="preserve" font-weight="bold" font-style="normal">
    <tspan fill="rgb(0,0,0)" x="0 7 14 20 24 34 40 43 46 54 61 67 70 76 82 85 91 94 98 101 108 111 118 128 134 137 144 151 154 158 164 170 177 181 184 187 194 201 204 210 216 219 226 " y="-3">Thermal Analysis - Sigma YY (90°): LE vs TE</tspan>
   </text>
   <polyline fill="none" stroke-linejoin="round" stroke-linecap="butt" stroke="#0071bc" points="74.8809,90.2256 112.08,92.8774 149.28,92.2109 186.48,88.2251 223.679,80.9204 223.681,336.051 260.88,340.366 298.08,341.804 335.28,340.366 372.479,336.051 372.481,80.9204 409.68,88.2251 446.88,92.2109 484.08,92.8774 521.279,90.2256" stroke-width="2"/>
   <polyline fill="none" stroke-linejoin="round" stroke-linecap="butt" stroke="#d85218" points="74.8809,89.8687 112.08,89.8687 149.28,89.8687 186.48,89.8687 223.679,89.8687 223.681,339.958 260.88,339.958 298.08,339.958 335.28,339.958 372.479,339.958 372.481,89.8687 409.68,89.8687 446.88,89.8687 484.08,89.8687 521.279,89.8687" stroke-width="2"/>
   <polyline fill="none" stroke-linejoin="round" stroke-linecap="butt" stroke="#ecb01f" points="74.8809,91.4072 112.08,91.4878 149.28,91.5537 186.48,91.605 223.679,91.6416 223.681,336.612 260.88,336.614 298.08,336.615 335.28,336.614 372.479,336.612 372.481,91.6416 409.68,91.605 446.88,91.5537 484.08,91.4878 521.279,91.4072" stroke-width="2"/>
   <polyline fill="none" stroke-linejoin="round" stroke-linecap="butt" stroke="#7d2e8d" points="74.8809,91.3232 112.08,91.4409 149.28,91.5371 186.48,91.6123 223.679,91.6655 223.681,336.645 260.88,336.658 298.08,336.663 335.28,336.658 372.479,336.645 372.481,91.6655 409.68,91.6123 446.88,91.5371 484.08,91.4409 521.279,91.3232" stroke-width="2"/>
   <polyline fill="none" stroke-linejoin="round" stroke-linecap="butt" stroke="#76ab2f" points="74.8809,98.4883 112.08,90.1338 149.28,88.7705 186.48,91.1147 223.679,94.6133 223.681,336.899 260.88,337.145 298.08,337.237 335.28,337.145 372.479,336.899 372.481,94.6133 409.68,91.1147 446.88,88.7705 484.08,90.1338 521.279,98.4883" stroke-width="2"/>
   <polyline fill="none" stroke-linejoin="round" stroke-linecap="butt" stroke="#4cbded" points="74.8809,98.6685 112.08,90.1099 149.28,88.6909 186.48,91.062 223.679,94.6167 223.681,336.9 260.88,337.191 298.08,337.3 335.28,337.191 372.479,336.9 372.481,94.6167 409.68,91.062 446.88,88.6909 484.08,90.1099 521.279,98.6685" stroke-width="2"/>
   <polyline fill="none" stroke-linejoin="round" stroke-linecap="butt" stroke="#a1132e" points="74.8809,78.73 112.08,96.8008 149.28,87.1958 186.48,86.5723 223.679,98.9707 223.681,337.331 260.88,338.656 298.08,339.228 335.28,338.656 372.479,337.331 372.481,98.9707 409.68,86.5723 446.88,87.1958 484.08,96.8008 521.279,78.73" stroke-width="2"/>
  </g>
  <clipPath id="cp00576432">
   <polygon points="0,432 576,432 576,0 0,0"/>
  </clipPath>
  <g clip-path="url(#cp00576432)">
   <polygon fill="#ffffff" shape-rendering="crispEdges" points="458.45,141.945 509.737,141.945 509.737,43.9434 458.45,43.9434"/>
   <polyline fill="none" stroke-linejoin="miter" stroke-linecap="square" stroke-dasharray="16,0" stroke="#262626" points="458.45,141.945 509.737,141.945" stroke-width="0.5"/>
   <polyline fill="none" stroke-linejoin="miter" stroke-linecap="square" stroke-dasharray="16,0" stroke="#262626" points="458.45,43.9434 509.737,43.9434" stroke-width="0.5"/>
   <polyline fill="none" stroke-linejoin="miter" stroke-linecap="square" stroke-dasharray="16,0" stroke="#262626" points="458.45,141.945 458.45,43.9434" stroke-width="0.5"/>
   <polyline fill="none" stroke-linejoin="miter" stroke-linecap="square" stroke-dasharray="16,0" stroke="#262626" points="509.737,141.945 509.737,43.9434" stroke-width="0.5"/>
   <text font-family="FreeSans" transform="translate(486.827,54.9434) rotate(-0,-0,-4)" font-size="9" xml:space="preserve" font-weight="normal" font-style="normal">
    <tspan fill="rgb(0,0,0)" x="0 5 " y="-0">LE</tspan>
   </text>
   <text font-family="FreeSans" transform="translate(486.827,68.9436) rotate(-0,-0,-4)" font-size="9" xml:space="preserve" font-weight="normal" font-style="normal">
    <tspan fill="rgb(0,0,0)" x="0 6 12 14 " y="-0">TE 1</tspan>
   </text>
   <text font-family="FreeSans" transform="translate(486.827,82.9438) rotate(-0,-0,-4)" font-size="9" xml:space="preserve" font-weight="normal" font-style="normal">
    <tspan fill="rgb(0,0,0)" x="0 6 12 14 " y="-0">TE 2</tspan>
   </text>
   <text font-family="FreeSans" transform="translate(486.827,96.9441) rotate(-0,-0,-4)" font-size="9" xml:space="preserve" font-weight="normal" font-style="normal">
    <tspan fill="rgb(0,0,0)" x="0 6 12 14 " y="-0">TE 3</tspan>
   </text>
   <text font-family="FreeSans" transform="translate(486.827,110.944) rotate(-0,-0,-4)" font-size="9" xml:space="preserve" font-weight="normal" font-style="normal">
    <tspan fill="rgb(0,0,0)" x="0 6 12 14 " y="-0">TE 4</tspan>
   </text>
   <text font-family="FreeSans" transform="translate(486.827,124.944) rotate(-0,-0,-4)" font-size="9" xml:space="preserve" font-weight="normal" font-style="normal">
    <tspan fill="rgb(0,0,0)" x="0 6 12 14 " y="-0">TE 5</tspan>
   </text>
   <text font-family="FreeSans" transform="translate(486.827,138.945) rotate(-0,-0,-4)" font-size="9" xml:space="preserve" font-weight="normal" font-style="normal">
    <tspan fill="rgb(0,0,0)" x="0 6 12 14 " y="-0">TE 6</tspan>
   </text>
   <polyline fill="none" stroke-linejoin="round" stroke-linecap="butt" stroke="#0071bc" points="461.816,50.9434 483.46,50.9434" stroke-width="2"/>
   <polyline fill="none" stroke-linejoin="round" stroke-linecap="butt" stroke="#d85218" points="461.816,64.9438 483.46,64.9438" stroke-width="2"/>
   <polyline fill="none" stroke-linejoin="round" stroke-linecap="butt" stroke="#ecb01f" points="461.816,78.9438 483.46,78.9438" stroke-width="2"/>
   <polyline fill="none" stroke-linejoin="round" stroke-linecap="butt" stroke="#7d2e8d" points="461.816,92.9438 483.46,92.9438" stroke-width="2"/>
   <polyline fill="none" stroke-linejoin="round" stroke-linecap="butt" stroke="#76ab2f" points="461.816,106.944 483.46,106.944" stroke-width="2"/>
   <polyline fill="none" stroke-linejoin="round" stroke-linecap="butt" stroke="#4cbded" points="461.816,120.944 483.46,120.944" stroke-width="2"/>
   <polyline fill="none" stroke-linejoin="round" stroke-linecap="butt" stroke="#a1132e" points="461.816,134.945 483.46,134.945" stroke-width="2"/>
  </g>
 </g>
</svg>
