<?xml version='1.0' encoding='UTF-8' standalone='no'?>
<svg xmlns="http://www.w3.org/2000/svg" xmlns:xlink="http://www.w3.org/1999/xlink" height="432pt" viewBox="0 0 576 432" width="576pt">
 <title>gl2ps_renderer figure</title>
 <desc>
Creator: GL2PS 1.4.2, (C) 1999-2020 C. Geuzaine
For: Octave
CreationDate: Thu Jan 28 17:37:44 2021
</desc>
 <defs/>
 <polygon fill="#ffffff" points="0,0 576,0 576,432 0,432"/>
 <g>
  <polygon shape-rendering="crispEdges" fill="#ffffff" points="0,432 576,432 576,0 0,0"/>
  <clipPath id="cp00576432">
   <polygon points="0,432 576,432 576,0 0,0"/>
  </clipPath>
  <g clip-path="url(#cp00576432)">
   <polygon shape-rendering="crispEdges" fill="#ffffff" points="74.8799,384.48 521.28,384.48 521.28,32.3999 74.8799,32.3999"/>
   <polyline stroke-width="0.5" stroke-linecap="butt" fill="none" stroke="#262626" points="74.8799,384.48 74.8799,380.015" stroke-linejoin="miter"/>
   <polyline stroke-width="0.5" stroke-linecap="butt" fill="none" stroke="#262626" points="74.8799,32.3999 74.8799,36.8652" stroke-linejoin="miter"/>
   <polyline stroke-width="0.5" stroke-linecap="butt" fill="none" stroke="#262626" points="149.28,384.48 149.28,380.015" stroke-linejoin="miter"/>
   <polyline stroke-width="0.5" stroke-linecap="butt" fill="none" stroke="#262626" points="149.28,32.3999 149.28,36.8652" stroke-linejoin="miter"/>
   <polyline stroke-width="0.5" stroke-linecap="butt" fill="none" stroke="#262626" points="223.68,384.48 223.68,380.015" stroke-linejoin="miter"/>
   <polyline stroke-width="0.5" stroke-linecap="butt" fill="none" stroke="#262626" points="223.68,32.3999 223.68,36.8652" stroke-linejoin="miter"/>
   <polyline stroke-width="0.5" stroke-linecap="butt" fill="none" stroke="#262626" points="298.08,384.48 298.08,380.015" stroke-linejoin="miter"/>
   <polyline stroke-width="0.5" stroke-linecap="butt" fill="none" stroke="#262626" points="298.08,32.3999 298.08,36.8652" stroke-linejoin="miter"/>
   <polyline stroke-width="0.5" stroke-linecap="butt" fill="none" stroke="#262626" points="372.48,384.48 372.48,380.015" stroke-linejoin="miter"/>
   <polyline stroke-width="0.5" stroke-linecap="butt" fill="none" stroke="#262626" points="372.48,32.3999 372.48,36.8652" stroke-linejoin="miter"/>
   <polyline stroke-width="0.5" stroke-linecap="butt" fill="none" stroke="#262626" points="446.88,384.48 446.88,380.015" stroke-linejoin="miter"/>
   <polyline stroke-width="0.5" stroke-linecap="butt" fill="none" stroke="#262626" points="446.88,32.3999 446.88,36.8652" stroke-linejoin="miter"/>
   <polyline stroke-width="0.5" stroke-linecap="butt" fill="none" stroke="#262626" points="521.28,384.48 521.28,380.015" stroke-linejoin="miter"/>
   <polyline stroke-width="0.5" stroke-linecap="butt" fill="none" stroke="#262626" points="521.28,32.3999 521.28,36.8652" stroke-linejoin="miter"/>
   <text font-weight="normal" font-size="10" xml:space="preserve" transform="translate(59.88,399.982) rotate(-0,15,-8)" font-family="FreeSans" font-style="normal">
    <tspan fill="rgb(38,38,38)" x="0 3 9 12 18 24 " y="-0">-0.003</tspan>
   </text>
   <text font-weight="normal" font-size="10" xml:space="preserve" transform="translate(134.28,399.982) rotate(-0,15,-8)" font-family="FreeSans" font-style="normal">
    <tspan fill="rgb(38,38,38)" x="0 3 9 12 18 24 " y="-0">-0.002</tspan>
   </text>
   <text font-weight="normal" font-size="10" xml:space="preserve" transform="translate(208.68,399.982) rotate(-0,15,-8)" font-family="FreeSans" font-style="normal">
    <tspan fill="rgb(38,38,38)" x="0 3 9 12 18 24 " y="-0">-0.001</tspan>
   </text>
   <text font-weight="normal" font-size="10" xml:space="preserve" transform="translate(295.08,399.982) rotate(-0,3,-8)" font-family="FreeSans" font-style="normal">
    <tspan fill="rgb(38,38,38)" x="0 " y="-0">0</tspan>
   </text>
   <text font-weight="normal" font-size="10" xml:space="preserve" transform="translate(358.98,399.982) rotate(-0,13.5,-8)" font-family="FreeSans" font-style="normal">
    <tspan fill="rgb(38,38,38)" x="0 6 9 15 21 " y="-0">0.001</tspan>
   </text>
   <text font-weight="normal" font-size="10" xml:space="preserve" transform="translate(433.38,399.982) rotate(-0,13.5,-8)" font-family="FreeSans" font-style="normal">
    <tspan fill="rgb(38,38,38)" x="0 6 9 15 21 " y="-0">0.002</tspan>
   </text>
   <text font-weight="normal" font-size="10" xml:space="preserve" transform="translate(507.78,399.982) rotate(-0,13.5,-8)" font-family="FreeSans" font-style="normal">
    <tspan fill="rgb(38,38,38)" x="0 6 9 15 21 " y="-0">0.003</tspan>
   </text>
   <polyline stroke-width="0.5" stroke-linecap="butt" fill="none" stroke="#262626" points="74.8799,384.48 79.3481,384.48" stroke-linejoin="miter"/>
   <polyline stroke-width="0.5" stroke-linecap="butt" fill="none" stroke="#262626" points="521.28,384.48 516.812,384.48" stroke-linejoin="miter"/>
   <polyline stroke-width="0.5" stroke-linecap="butt" fill="none" stroke="#262626" points="74.8799,334.183 79.3481,334.183" stroke-linejoin="miter"/>
   <polyline stroke-width="0.5" stroke-linecap="butt" fill="none" stroke="#262626" points="521.28,334.183 516.812,334.183" stroke-linejoin="miter"/>
   <polyline stroke-width="0.5" stroke-linecap="butt" fill="none" stroke="#262626" points="74.8799,283.886 79.3481,283.886" stroke-linejoin="miter"/>
   <polyline stroke-width="0.5" stroke-linecap="butt" fill="none" stroke="#262626" points="521.28,283.886 516.812,283.886" stroke-linejoin="miter"/>
   <polyline stroke-width="0.5" stroke-linecap="butt" fill="none" stroke="#262626" points="74.8799,233.588 79.3481,233.588" stroke-linejoin="miter"/>
   <polyline stroke-width="0.5" stroke-linecap="butt" fill="none" stroke="#262626" points="521.28,233.588 516.812,233.588" stroke-linejoin="miter"/>
   <polyline stroke-width="0.5" stroke-linecap="butt" fill="none" stroke="#262626" points="74.8799,183.292 79.3481,183.292" stroke-linejoin="miter"/>
   <polyline stroke-width="0.5" stroke-linecap="butt" fill="none" stroke="#262626" points="521.28,183.292 516.812,183.292" stroke-linejoin="miter"/>
   <polyline stroke-width="0.5" stroke-linecap="butt" fill="none" stroke="#262626" points="74.8799,132.994 79.3481,132.994" stroke-linejoin="miter"/>
   <polyline stroke-width="0.5" stroke-linecap="butt" fill="none" stroke="#262626" points="521.28,132.994 516.812,132.994" stroke-linejoin="miter"/>
   <polyline stroke-width="0.5" stroke-linecap="butt" fill="none" stroke="#262626" points="74.8799,82.6973 79.3481,82.6973" stroke-linejoin="miter"/>
   <polyline stroke-width="0.5" stroke-linecap="butt" fill="none" stroke="#262626" points="521.28,82.6973 516.812,82.6973" stroke-linejoin="miter"/>
   <polyline stroke-width="0.5" stroke-linecap="butt" fill="none" stroke="#262626" points="74.8799,32.3999 79.3481,32.3999" stroke-linejoin="miter"/>
   <polyline stroke-width="0.5" stroke-linecap="butt" fill="none" stroke="#262626" points="521.28,32.3999 516.812,32.3999" stroke-linejoin="miter"/>
   <text font-weight="normal" font-size="10" xml:space="preserve" transform="translate(28.8755,388.48) rotate(-0,41,-4)" font-family="FreeSans" font-style="normal">
    <tspan fill="rgb(38,38,38)" x="0 3 9 12 18 23 29 35 " y="-0">-2.5e+06</tspan>
   </text>
   <text font-weight="normal" font-size="10" xml:space="preserve" transform="translate(37.8755,338.183) rotate(-0,32,-4)" font-family="FreeSans" font-style="normal">
    <tspan fill="rgb(38,38,38)" x="0 3 9 14 20 26 " y="-0">-2e+06</tspan>
   </text>
   <text font-weight="normal" font-size="10" xml:space="preserve" transform="translate(28.8755,287.886) rotate(-0,41,-4)" font-family="FreeSans" font-style="normal">
    <tspan fill="rgb(38,38,38)" x="0 3 9 12 18 23 29 35 " y="-0">-1.5e+06</tspan>
   </text>
   <text font-weight="normal" font-size="10" xml:space="preserve" transform="translate(37.8755,237.589) rotate(-0,32,-4)" font-family="FreeSans" font-style="normal">
    <tspan fill="rgb(38,38,38)" x="0 3 9 14 20 26 " y="-0">-1e+06</tspan>
   </text>
   <text font-weight="normal" font-size="10" xml:space="preserve" transform="translate(30.8755,187.291) rotate(-0,39,-4)" font-family="FreeSans" font-style="normal">
    <tspan fill="rgb(38,38,38)" x="0 3 9 15 21 27 33 " y="-0">-500000</tspan>
   </text>
   <text font-weight="normal" font-size="10" xml:space="preserve" transform="translate(63.8755,136.994) rotate(-0,6,-4)" font-family="FreeSans" font-style="normal">
    <tspan fill="rgb(38,38,38)" x="0 " y="-0">0</tspan>
   </text>
   <text font-weight="normal" font-size="10" xml:space="preserve" transform="translate(33.8755,86.6971) rotate(-0,36,-4)" font-family="FreeSans" font-style="normal">
    <tspan fill="rgb(38,38,38)" x="0 6 12 18 24 30 " y="-0">500000</tspan>
   </text>
   <text font-weight="normal" font-size="10" xml:space="preserve" transform="translate(40.8755,36.4) rotate(-0,29,-4)" font-family="FreeSans" font-style="normal">
    <tspan fill="rgb(38,38,38)" x="0 6 11 17 23 " y="-0">1e+06</tspan>
   </text>
   <polyline stroke-width="0.5" stroke-linecap="square" fill="none" stroke-dasharray="16,0" stroke="#262626" points="74.8799,384.48 521.28,384.48" stroke-linejoin="miter"/>
   <polyline stroke-width="0.5" stroke-linecap="square" fill="none" stroke-dasharray="16,0" stroke="#262626" points="74.8799,32.3999 521.28,32.3999" stroke-linejoin="miter"/>
   <polyline stroke-width="0.5" stroke-linecap="square" fill="none" stroke-dasharray="16,0" stroke="#262626" points="74.8799,384.48 74.8799,32.3999" stroke-linejoin="miter"/>
   <polyline stroke-width="0.5" stroke-linecap="square" fill="none" stroke-dasharray="16,0" stroke="#262626" points="521.28,384.48 521.28,32.3999" stroke-linejoin="miter"/>
   <text font-weight="normal" font-size="11" xml:space="preserve" transform="translate(294.58,413.982) rotate(-0,3.5,-9)" font-family="FreeSans" font-style="normal">
    <tspan fill="rgb(38,38,38)" x="0 " y="-0">Z</tspan>
   </text>
   <text font-weight="normal" font-size="11" xml:space="preserve" transform="translate(8.87552,208.44) rotate(-90,15,0)" font-family="FreeSans" font-style="normal">
    <tspan fill="rgb(38,38,38)" x="0 7 9 15 24 " y="-2">Sigma</tspan>
   </text>
   <text font-weight="bold" font-size="11" xml:space="preserve" transform="translate(199.08,22.4) rotate(-0,99,0)" font-family="FreeSans" font-style="normal">
    <tspan fill="rgb(0,0,0)" x="0 7 14 20 24 34 40 43 46 54 61 67 70 76 82 85 91 94 98 101 108 111 118 128 134 137 144 151 154 161 168 171 175 181 187 194 " y="-3">Thermal Analysis - Sigma ZZ LE (45°)</tspan>
   </text>
   <polyline stroke-width="2" stroke-linecap="butt" fill="none" stroke="#0071bc" points="74.8809,132.353 112.08,139.314 149.28,131.045 186.48,107.544 223.679,68.8135 223.681,134.282 260.88,287.801 298.08,338.975 335.28,287.801 372.479,134.282 372.481,68.8135 409.68,107.544 446.88,131.045 484.08,139.314 521.279,132.353" stroke-linejoin="round"/>
  </g>
  <clipPath id="cp00576432">
   <polygon points="0,432 576,432 576,0 0,0"/>
  </clipPath>
  <g clip-path="url(#cp00576432)">
   <polygon shape-rendering="crispEdges" fill="#ffffff" points="444.05,60.0005 509.737,60.0005 509.737,43.9434 444.05,43.9434"/>
   <polyline stroke-width="0.5" stroke-linecap="square" fill="none" stroke-dasharray="16,0" stroke="#262626" points="444.05,60.0005 509.737,60.0005" stroke-linejoin="miter"/>
   <polyline stroke-width="0.5" stroke-linecap="square" fill="none" stroke-dasharray="16,0" stroke="#262626" points="444.05,43.9434 509.737,43.9434" stroke-linejoin="miter"/>
   <polyline stroke-width="0.5" stroke-linecap="square" fill="none" stroke-dasharray="16,0" stroke="#262626" points="444.05,60.0005 444.05,43.9434" stroke-linejoin="miter"/>
   <polyline stroke-width="0.5" stroke-linecap="square" fill="none" stroke-dasharray="16,0" stroke="#262626" points="509.737,60.0005 509.737,43.9434" stroke-linejoin="miter"/>
   <text font-weight="normal" font-size="9" xml:space="preserve" transform="translate(472.427,56.972) rotate(-0,-0,-5)" font-family="FreeSans" font-style="normal">
    <tspan fill="rgb(0,0,0)" x="0 4 6 11 18 23 25 29 " y="-2">sigma zz</tspan>
   </text>
   <polyline stroke-width="2" stroke-linecap="butt" fill="none" stroke="#0071bc" points="447.417,51.9722 469.06,51.9722" stroke-linejoin="round"/>
  </g>
 </g>
</svg>
