<?xml version='1.0' encoding='UTF-8' standalone='no'?>
<svg viewBox="0 0 576 432" xmlns="http://www.w3.org/2000/svg" height="432pt" xmlns:xlink="http://www.w3.org/1999/xlink" width="576pt">
 <title>gl2ps_renderer figure</title>
 <desc>
Creator: GL2PS 1.4.2, (C) 1999-2020 C. Geuzaine
For: Octave
CreationDate: Thu Jan 28 17:36:30 2021
</desc>
 <defs/>
 <polygon fill="#ffffff" points="0,0 576,0 576,432 0,432"/>
 <g>
  <polygon fill="#ffffff" points="0,432 576,432 576,0 0,0" shape-rendering="crispEdges"/>
  <clipPath id="cp00576432">
   <polygon points="0,432 576,432 576,0 0,0"/>
  </clipPath>
  <g clip-path="url(#cp00576432)">
   <polygon fill="#ffffff" points="74.8799,384.48 521.28,384.48 521.28,32.3999 74.8799,32.3999" shape-rendering="crispEdges"/>
   <polyline fill="none" points="74.8799,384.48 74.8799,380.015" stroke-width="0.5" stroke-linejoin="miter" stroke-linecap="butt" stroke="#262626"/>
   <polyline fill="none" points="74.8799,32.3999 74.8799,36.8652" stroke-width="0.5" stroke-linejoin="miter" stroke-linecap="butt" stroke="#262626"/>
   <polyline fill="none" points="149.28,384.48 149.28,380.015" stroke-width="0.5" stroke-linejoin="miter" stroke-linecap="butt" stroke="#262626"/>
   <polyline fill="none" points="149.28,32.3999 149.28,36.8652" stroke-width="0.5" stroke-linejoin="miter" stroke-linecap="butt" stroke="#262626"/>
   <polyline fill="none" points="223.68,384.48 223.68,380.015" stroke-width="0.5" stroke-linejoin="miter" stroke-linecap="butt" stroke="#262626"/>
   <polyline fill="none" points="223.68,32.3999 223.68,36.8652" stroke-width="0.5" stroke-linejoin="miter" stroke-linecap="butt" stroke="#262626"/>
   <polyline fill="none" points="298.08,384.48 298.08,380.015" stroke-width="0.5" stroke-linejoin="miter" stroke-linecap="butt" stroke="#262626"/>
   <polyline fill="none" points="298.08,32.3999 298.08,36.8652" stroke-width="0.5" stroke-linejoin="miter" stroke-linecap="butt" stroke="#262626"/>
   <polyline fill="none" points="372.48,384.48 372.48,380.015" stroke-width="0.5" stroke-linejoin="miter" stroke-linecap="butt" stroke="#262626"/>
   <polyline fill="none" points="372.48,32.3999 372.48,36.8652" stroke-width="0.5" stroke-linejoin="miter" stroke-linecap="butt" stroke="#262626"/>
   <polyline fill="none" points="446.88,384.48 446.88,380.015" stroke-width="0.5" stroke-linejoin="miter" stroke-linecap="butt" stroke="#262626"/>
   <polyline fill="none" points="446.88,32.3999 446.88,36.8652" stroke-width="0.5" stroke-linejoin="miter" stroke-linecap="butt" stroke="#262626"/>
   <polyline fill="none" points="521.28,384.48 521.28,380.015" stroke-width="0.5" stroke-linejoin="miter" stroke-linecap="butt" stroke="#262626"/>
   <polyline fill="none" points="521.28,32.3999 521.28,36.8652" stroke-width="0.5" stroke-linejoin="miter" stroke-linecap="butt" stroke="#262626"/>
   <text font-size="10" font-weight="normal" xml:space="preserve" font-style="normal" font-family="FreeSans" transform="translate(59.88,399.982) rotate(-0,15,-8)">
    <tspan fill="rgb(38,38,38)" x="0 3 9 12 18 24 " y="-0">-0.003</tspan>
   </text>
   <text font-size="10" font-weight="normal" xml:space="preserve" font-style="normal" font-family="FreeSans" transform="translate(134.28,399.982) rotate(-0,15,-8)">
    <tspan fill="rgb(38,38,38)" x="0 3 9 12 18 24 " y="-0">-0.002</tspan>
   </text>
   <text font-size="10" font-weight="normal" xml:space="preserve" font-style="normal" font-family="FreeSans" transform="translate(208.68,399.982) rotate(-0,15,-8)">
    <tspan fill="rgb(38,38,38)" x="0 3 9 12 18 24 " y="-0">-0.001</tspan>
   </text>
   <text font-size="10" font-weight="normal" xml:space="preserve" font-style="normal" font-family="FreeSans" transform="translate(295.08,399.982) rotate(-0,3,-8)">
    <tspan fill="rgb(38,38,38)" x="0 " y="-0">0</tspan>
   </text>
   <text font-size="10" font-weight="normal" xml:space="preserve" font-style="normal" font-family="FreeSans" transform="translate(358.98,399.982) rotate(-0,13.5,-8)">
    <tspan fill="rgb(38,38,38)" x="0 6 9 15 21 " y="-0">0.001</tspan>
   </text>
   <text font-size="10" font-weight="normal" xml:space="preserve" font-style="normal" font-family="FreeSans" transform="translate(433.38,399.982) rotate(-0,13.5,-8)">
    <tspan fill="rgb(38,38,38)" x="0 6 9 15 21 " y="-0">0.002</tspan>
   </text>
   <text font-size="10" font-weight="normal" xml:space="preserve" font-style="normal" font-family="FreeSans" transform="translate(507.78,399.982) rotate(-0,13.5,-8)">
    <tspan fill="rgb(38,38,38)" x="0 6 9 15 21 " y="-0">0.003</tspan>
   </text>
   <polyline fill="none" points="74.8799,384.48 79.3481,384.48" stroke-width="0.5" stroke-linejoin="miter" stroke-linecap="butt" stroke="#262626"/>
   <polyline fill="none" points="521.28,384.48 516.812,384.48" stroke-width="0.5" stroke-linejoin="miter" stroke-linecap="butt" stroke="#262626"/>
   <polyline fill="none" points="74.8799,314.064 79.3481,314.064" stroke-width="0.5" stroke-linejoin="miter" stroke-linecap="butt" stroke="#262626"/>
   <polyline fill="none" points="521.28,314.064 516.812,314.064" stroke-width="0.5" stroke-linejoin="miter" stroke-linecap="butt" stroke="#262626"/>
   <polyline fill="none" points="74.8799,243.648 79.3481,243.648" stroke-width="0.5" stroke-linejoin="miter" stroke-linecap="butt" stroke="#262626"/>
   <polyline fill="none" points="521.28,243.648 516.812,243.648" stroke-width="0.5" stroke-linejoin="miter" stroke-linecap="butt" stroke="#262626"/>
   <polyline fill="none" points="74.8799,173.232 79.3481,173.232" stroke-width="0.5" stroke-linejoin="miter" stroke-linecap="butt" stroke="#262626"/>
   <polyline fill="none" points="521.28,173.232 516.812,173.232" stroke-width="0.5" stroke-linejoin="miter" stroke-linecap="butt" stroke="#262626"/>
   <polyline fill="none" points="74.8799,102.816 79.3481,102.816" stroke-width="0.5" stroke-linejoin="miter" stroke-linecap="butt" stroke="#262626"/>
   <polyline fill="none" points="521.28,102.816 516.812,102.816" stroke-width="0.5" stroke-linejoin="miter" stroke-linecap="butt" stroke="#262626"/>
   <polyline fill="none" points="74.8799,32.3999 79.3481,32.3999" stroke-width="0.5" stroke-linejoin="miter" stroke-linecap="butt" stroke="#262626"/>
   <polyline fill="none" points="521.28,32.3999 516.812,32.3999" stroke-width="0.5" stroke-linejoin="miter" stroke-linecap="butt" stroke="#262626"/>
   <text font-size="10" font-weight="normal" xml:space="preserve" font-style="normal" font-family="FreeSans" transform="translate(37.8755,388.48) rotate(-0,32,-4)">
    <tspan fill="rgb(38,38,38)" x="0 3 9 14 20 26 " y="-0">-8e+06</tspan>
   </text>
   <text font-size="10" font-weight="normal" xml:space="preserve" font-style="normal" font-family="FreeSans" transform="translate(37.8755,318.064) rotate(-0,32,-4)">
    <tspan fill="rgb(38,38,38)" x="0 3 9 14 20 26 " y="-0">-6e+06</tspan>
   </text>
   <text font-size="10" font-weight="normal" xml:space="preserve" font-style="normal" font-family="FreeSans" transform="translate(37.8755,247.648) rotate(-0,32,-4)">
    <tspan fill="rgb(38,38,38)" x="0 3 9 14 20 26 " y="-0">-4e+06</tspan>
   </text>
   <text font-size="10" font-weight="normal" xml:space="preserve" font-style="normal" font-family="FreeSans" transform="translate(37.8755,177.232) rotate(-0,32,-4)">
    <tspan fill="rgb(38,38,38)" x="0 3 9 14 20 26 " y="-0">-2e+06</tspan>
   </text>
   <text font-size="10" font-weight="normal" xml:space="preserve" font-style="normal" font-family="FreeSans" transform="translate(63.8755,106.816) rotate(-0,6,-4)">
    <tspan fill="rgb(38,38,38)" x="0 " y="-0">0</tspan>
   </text>
   <text font-size="10" font-weight="normal" xml:space="preserve" font-style="normal" font-family="FreeSans" transform="translate(40.8755,36.4) rotate(-0,29,-4)">
    <tspan fill="rgb(38,38,38)" x="0 6 11 17 23 " y="-0">2e+06</tspan>
   </text>
   <polyline fill="none" points="74.8799,384.48 521.28,384.48" stroke-width="0.5" stroke-linejoin="miter" stroke-dasharray="16,0" stroke-linecap="square" stroke="#262626"/>
   <polyline fill="none" points="74.8799,32.3999 521.28,32.3999" stroke-width="0.5" stroke-linejoin="miter" stroke-dasharray="16,0" stroke-linecap="square" stroke="#262626"/>
   <polyline fill="none" points="74.8799,384.48 74.8799,32.3999" stroke-width="0.5" stroke-linejoin="miter" stroke-dasharray="16,0" stroke-linecap="square" stroke="#262626"/>
   <polyline fill="none" points="521.28,384.48 521.28,32.3999" stroke-width="0.5" stroke-linejoin="miter" stroke-dasharray="16,0" stroke-linecap="square" stroke="#262626"/>
   <text font-size="11" font-weight="normal" xml:space="preserve" font-style="normal" font-family="FreeSans" transform="translate(294.58,413.982) rotate(-0,3.5,-9)">
    <tspan fill="rgb(38,38,38)" x="0 " y="-0">Z</tspan>
   </text>
   <text font-size="11" font-weight="normal" xml:space="preserve" font-style="normal" font-family="FreeSans" transform="translate(17.8755,208.44) rotate(-90,15,0)">
    <tspan fill="rgb(38,38,38)" x="0 7 9 15 24 " y="-2">Sigma</tspan>
   </text>
   <text font-size="11" font-weight="bold" xml:space="preserve" font-style="normal" font-family="FreeSans" transform="translate(199.08,22.4) rotate(-0,99,0)">
    <tspan fill="rgb(0,0,0)" x="0 7 14 20 24 34 40 43 46 54 61 67 70 76 82 85 91 94 98 101 108 111 118 128 134 137 144 151 154 161 168 171 175 181 187 194 " y="-3">Thermal Analysis - Sigma ZZ LE (90°)</tspan>
   </text>
   <polyline fill="none" points="74.8809,99.7651 112.08,106.56 149.28,102.686 186.48,88.1426 223.679,62.9312 223.681,124.02 260.88,299.828 298.08,358.433 335.28,299.828 372.479,124.02 372.481,62.9312 409.68,88.1426 446.88,102.686 484.08,106.56 521.279,99.7651" stroke-width="2" stroke-linejoin="round" stroke-linecap="butt" stroke="#0071bc"/>
  </g>
  <clipPath id="cp00576432">
   <polygon points="0,432 576,432 576,0 0,0"/>
  </clipPath>
  <g clip-path="url(#cp00576432)">
   <polygon fill="#ffffff" points="444.05,60.0005 509.737,60.0005 509.737,43.9434 444.05,43.9434" shape-rendering="crispEdges"/>
   <polyline fill="none" points="444.05,60.0005 509.737,60.0005" stroke-width="0.5" stroke-linejoin="miter" stroke-dasharray="16,0" stroke-linecap="square" stroke="#262626"/>
   <polyline fill="none" points="444.05,43.9434 509.737,43.9434" stroke-width="0.5" stroke-linejoin="miter" stroke-dasharray="16,0" stroke-linecap="square" stroke="#262626"/>
   <polyline fill="none" points="444.05,60.0005 444.05,43.9434" stroke-width="0.5" stroke-linejoin="miter" stroke-dasharray="16,0" stroke-linecap="square" stroke="#262626"/>
   <polyline fill="none" points="509.737,60.0005 509.737,43.9434" stroke-width="0.5" stroke-linejoin="miter" stroke-dasharray="16,0" stroke-linecap="square" stroke="#262626"/>
   <text font-size="9" font-weight="normal" xml:space="preserve" font-style="normal" font-family="FreeSans" transform="translate(472.427,56.972) rotate(-0,-0,-5)">
    <tspan fill="rgb(0,0,0)" x="0 4 6 11 18 23 25 29 " y="-2">sigma zz</tspan>
   </text>
   <polyline fill="none" points="447.417,51.9722 469.06,51.9722" stroke-width="2" stroke-linejoin="round" stroke-linecap="butt" stroke="#0071bc"/>
  </g>
 </g>
</svg>
