<?xml version="1.0" encoding="UTF-8" standalone="no"?>
<svg
   xmlns:dc="http://purl.org/dc/elements/1.1/"
   xmlns:cc="http://creativecommons.org/ns#"
   xmlns:rdf="http://www.w3.org/1999/02/22-rdf-syntax-ns#"
   xmlns:svg="http://www.w3.org/2000/svg"
   xmlns="http://www.w3.org/2000/svg"
   xmlns:xlink="http://www.w3.org/1999/xlink"
   xmlns:sodipodi="http://sodipodi.sourceforge.net/DTD/sodipodi-0.dtd"
   xmlns:inkscape="http://www.inkscape.org/namespaces/inkscape"
   width="210mm"
   height="297mm"
   viewBox="0 0 210 297"
   version="1.1"
   id="svg8"
   inkscape:version="1.0.1 (3bc2e813f5, 2020-09-07)"
   sodipodi:docname="Esercizio_2.svg">
  <defs
     id="defs2">
    <rect
       x="76.996723"
       y="129.97155"
       width="27.353855"
       height="12.404852"
       id="rect2082" />
    <linearGradient
       inkscape:collect="always"
       id="linearGradient1053">
      <stop
         style="stop-color:#ff0000;stop-opacity:1;"
         offset="0"
         id="stop1049" />
      <stop
         style="stop-color:#27ff42;stop-opacity:0"
         offset="1"
         id="stop1051" />
    </linearGradient>
    <inkscape:path-effect
       effect="bend_path"
       id="path-effect913"
       is_visible="true"
       lpeversion="1"
       bendpath="M 50.113424,146.77888 H 167.73953"
       prop_scale="1"
       scale_y_rel="false"
       vertical="false"
       hide_knot="false" />
    <inkscape:path-effect
       effect="fillet_chamfer"
       id="path-effect911"
       is_visible="true"
       lpeversion="1"
       satellites_param="F,0,0,1,0,0,0,1 @ F,0,0,1,0,0,0,1 @ F,0,0,1,0,0,0,1 @ F,0,0,1,0,0,0,1 @ F,0,0,1,0,0,0,1 @ F,0,0,1,0,0,0,1 @ F,0,0,1,0,0,0,1 @ F,0,0,1,0,0,0,1 @ F,0,0,1,0,0,0,1 @ F,0,0,1,0,0,0,1 @ F,0,0,1,0,0,0,1 @ F,0,0,1,0,0,0,1 @ F,0,0,1,0,0,0,1 @ F,0,0,1,0,0,0,1 @ F,0,0,1,0,0,0,1 @ F,0,0,1,0,0,0,1 @ F,0,0,1,0,0,0,1 @ F,0,0,1,0,0,0,1 @ F,0,0,1,0,0,0,1 @ F,0,0,1,0,0,0,1 @ F,0,0,1,0,0,0,1 @ F,0,0,1,0,0,0,1 @ F,0,0,1,0,0,0,1"
       unit="px"
       method="auto"
       mode="F"
       radius="0"
       chamfer_steps="1"
       flexible="false"
       use_knot_distance="true"
       apply_no_radius="true"
       apply_with_radius="true"
       only_selected="false"
       hide_knots="false" />
    <radialGradient
       inkscape:collect="always"
       xlink:href="#linearGradient1053"
       id="radialGradient1055"
       cx="440.34549"
       cy="557.37598"
       fx="440.34549"
       fy="557.37598"
       r="155.92168"
       gradientTransform="matrix(-1.2582568,-2.3804288,2.2524025,-1.1905842,-446.76903,2325.3176)"
       gradientUnits="userSpaceOnUse" />
    <filter
       inkscape:collect="always"
       style="color-interpolation-filters:sRGB"
       id="filter1876"
       x="-0.050170975"
       width="1.1003419"
       y="-0.022147725"
       height="1.0442955">
      <feGaussianBlur
         inkscape:collect="always"
         stdDeviation="2.4330325"
         id="feGaussianBlur1878" />
    </filter>
    <filter
       inkscape:collect="always"
       style="color-interpolation-filters:sRGB"
       id="filter2448"
       x="-0.049718868"
       width="1.0994377"
       y="-0.13826913"
       height="1.2765383">
      <feGaussianBlur
         inkscape:collect="always"
         stdDeviation="0.50403724"
         id="feGaussianBlur2450" />
    </filter>
  </defs>
  <sodipodi:namedview
     id="base"
     pagecolor="#ffffff"
     bordercolor="#666666"
     borderopacity="1.0"
     inkscape:pageopacity="0.0"
     inkscape:pageshadow="2"
     inkscape:zoom="1.4"
     inkscape:cx="54.428141"
     inkscape:cy="513.67784"
     inkscape:document-units="mm"
     inkscape:current-layer="layer4"
     inkscape:document-rotation="0"
     showgrid="false"
     inkscape:window-width="3808"
     inkscape:window-height="2064"
     inkscape:window-x="16"
     inkscape:window-y="43"
     inkscape:window-maximized="0" />
  <metadata
     id="metadata5">
    <rdf:RDF>
      <cc:Work
         rdf:about="">
        <dc:format>image/svg+xml</dc:format>
        <dc:type
           rdf:resource="http://purl.org/dc/dcmitype/StillImage" />
        <dc:title></dc:title>
      </cc:Work>
    </rdf:RDF>
  </metadata>
  <g
     inkscape:groupmode="layer"
     id="layer4"
     inkscape:label="back_scritta"
     style="filter:url(#filter2448);opacity:0.67297784">
    <g
       aria-label="Pe (t)"
       id="text2106-7"
       style="font-style:normal;font-variant:normal;font-weight:normal;font-stretch:normal;font-size:10.5833px;line-height:1.25;font-family:'agave Nerd Font';-inkscape-font-specification:'agave Nerd Font, Normal';font-variant-ligatures:normal;font-variant-caps:normal;font-variant-numeric:normal;font-variant-east-asian:normal;display:inline;fill:#000000;fill-opacity:1;stroke:none;stroke-width:0.264583"
       transform="matrix(1.2675188,0,0,1.2675188,-26.742845,-28.675545)">
      <path
         d="m 92.58268,77.831727 h 2.294426 q 0.811317,0 1.281571,0.532265 0.475422,0.532266 0.475422,1.452103 0,0.919838 -0.614948,1.452104 -0.614947,0.532265 -1.679478,0.532265 h -0.878497 v 2.645825 H 92.58268 Z m 0.878496,0.811317 v 2.346103 h 0.878497 q 0.656288,0 1.033525,-0.315225 0.382404,-0.315226 0.382404,-0.857827 0,-0.5426 -0.23771,-0.857826 -0.232544,-0.315225 -0.640786,-0.315225 z"
         style="font-style:normal;font-variant:normal;font-weight:normal;font-stretch:normal;font-size:10.5833px;font-family:'agave Nerd Font';-inkscape-font-specification:'agave Nerd Font, Normal';font-variant-ligatures:normal;font-variant-caps:normal;font-variant-numeric:normal;font-variant-east-asian:normal;stroke-width:0.264583"
         id="path2110-0" />
      <path
         d="m 98.728715,84.468338 q -0.677995,0 -1.069357,-0.383095 -0.391363,-0.38585 -0.391363,-1.050064 0,-0.675238 0.319705,-1.063845 0.319704,-0.391362 0.870919,-0.391362 0.548459,0 0.857139,0.250803 0.311437,0.248046 0.311437,0.68075 0,0.203949 -0.01103,0.388606 -0.01102,0.184657 -0.02205,0.26734 l -0.01102,0.08544 h -1.824522 q 0,0.01654 0.0028,0.0441 0.0028,0.02756 0.01929,0.107487 0.01929,0.07717 0.05236,0.148828 0.03583,0.07166 0.107487,0.159852 0.07166,0.08819 0.170877,0.151584 0.09922,0.06339 0.259071,0.107487 0.159852,0.04134 0.35829,0.04134 h 0.611848 v 0.410655 q -0.234266,0.0441 -0.611848,0.0441 z m 0.429947,-1.650889 v -0.305924 q 0,-0.23151 -0.187413,-0.363802 -0.187413,-0.135048 -0.51263,-0.135048 -0.143316,0 -0.259071,0.0441 -0.115755,0.0441 -0.187413,0.115755 -0.0689,0.07166 -0.121267,0.157096 -0.05236,0.08544 -0.07717,0.170877 -0.02481,0.08544 -0.03858,0.157096 -0.01378,0.07166 -0.01654,0.115755 v 0.0441 z"
         style="font-size:5.64444px"
         id="path2112-8" />
      <path
         d="m 106.11292,77.020409 h 0.8785 q -0.0362,0.03617 -0.0982,0.103353 -0.0568,0.06201 -0.22738,0.289387 -0.17053,0.227376 -0.33072,0.480589 -0.15503,0.248046 -0.34623,0.645954 -0.18604,0.392739 -0.32556,0.806149 -0.13953,0.408243 -0.23255,0.950844 -0.093,0.542601 -0.093,1.095537 0,0.552936 0.0878,1.095537 0.093,0.537433 0.23772,0.961178 0.14986,0.418578 0.32556,0.800982 0.1757,0.377237 0.35139,0.645954 0.1757,0.273884 0.3204,0.475421 0.14986,0.201538 0.23771,0.299723 l 0.093,0.09819 h -0.8785 q -0.0362,-0.03617 -0.10335,-0.103353 -0.062,-0.06201 -0.24805,-0.289387 -0.18087,-0.227376 -0.34623,-0.480589 -0.16536,-0.248046 -0.37207,-0.645954 -0.20154,-0.397907 -0.3514,-0.80615 -0.14469,-0.41341 -0.24804,-0.95601 -0.0982,-0.542601 -0.0982,-1.095537 0,-0.552936 0.0982,-1.09037 0.0982,-0.537433 0.25321,-0.956011 0.15503,-0.423745 0.34106,-0.806149 0.1912,-0.382405 0.37724,-0.651121 0.1912,-0.273885 0.34623,-0.470254 0.15503,-0.201538 0.25321,-0.299723 z"
         style="font-style:normal;font-variant:normal;font-weight:normal;font-stretch:normal;font-size:10.5833px;font-family:'agave Nerd Font';-inkscape-font-specification:'agave Nerd Font, Normal';font-variant-ligatures:normal;font-variant-caps:normal;font-variant-numeric:normal;font-variant-east-asian:normal;stroke-width:0.264583"
         id="path2114-1" />
      <path
         d="m 112.44843,84.404948 q -0.31523,0.08268 -0.82682,0.08268 -0.91984,0 -1.39526,-0.382404 -0.47542,-0.382405 -0.47542,-1.281572 V 80.47755 h -1.4366 v -0.811318 h 1.4366 v -1.834507 h 0.87849 v 1.834507 h 2.14974 v 0.811318 h -2.14974 v 2.346102 q 0,0.439249 0.25322,0.625283 0.25321,0.186035 0.73897,0.186035 h 0.82682 z"
         style="font-style:normal;font-variant:normal;font-weight:normal;font-stretch:normal;font-size:10.5833px;font-family:'agave Nerd Font';-inkscape-font-specification:'agave Nerd Font, Normal';font-variant-ligatures:normal;font-variant-caps:normal;font-variant-numeric:normal;font-variant-east-asian:normal;stroke-width:0.264583"
         id="path2116-9" />
      <path
         d="m 115.14593,85.769202 h -0.8785 q 0.0362,-0.03617 0.093,-0.103353 0.062,-0.06201 0.23254,-0.289387 0.17054,-0.227376 0.32556,-0.480589 0.1602,-0.248046 0.34624,-0.640786 0.1912,-0.397907 0.33072,-0.80615 0.13953,-0.41341 0.23255,-0.956011 0.093,-0.542601 0.093,-1.095537 0,-0.552936 -0.093,-1.090369 -0.0878,-0.542601 -0.23771,-0.961179 -0.1447,-0.423745 -0.3204,-0.800982 -0.1757,-0.382404 -0.3514,-0.651121 -0.17569,-0.273884 -0.32556,-0.475421 -0.14469,-0.201538 -0.23254,-0.299723 l -0.093,-0.09819 h 0.8785 q 0.0362,0.03617 0.0982,0.103353 0.0672,0.06201 0.24804,0.289387 0.18604,0.227376 0.3514,0.480589 0.16536,0.248046 0.3669,0.645954 0.20671,0.397907 0.3514,0.811317 0.14986,0.408243 0.24805,0.950843 0.10335,0.542601 0.10335,1.095537 0,0.552936 -0.0982,1.09037 -0.0982,0.537433 -0.25321,0.961178 -0.15503,0.418578 -0.34623,0.800982 -0.18604,0.382405 -0.37724,0.651121 -0.18603,0.273884 -0.34106,0.470254 -0.15503,0.201538 -0.25321,0.299723 z"
         style="font-style:normal;font-variant:normal;font-weight:normal;font-stretch:normal;font-size:10.5833px;font-family:'agave Nerd Font';-inkscape-font-specification:'agave Nerd Font, Normal';font-variant-ligatures:normal;font-variant-caps:normal;font-variant-numeric:normal;font-variant-east-asian:normal;stroke-width:0.264583"
         id="path2118-9" />
    </g>
    <text
       xml:space="preserve"
       style="font-style:normal;font-variant:normal;font-weight:normal;font-stretch:normal;font-size:13.4145px;line-height:1.25;font-family:'agave Nerd Font';-inkscape-font-specification:'agave Nerd Font, Normal';font-variant-ligatures:normal;font-variant-caps:normal;font-variant-numeric:normal;font-variant-east-asian:normal;display:inline;fill:#000000;fill-opacity:1;stroke:none;stroke-width:0.335364"
       x="78.279594"
       y="144.78384"
       id="text2088-7"><tspan
         sodipodi:role="line"
         id="tspan2086-8"
         x="78.279594"
         y="144.78384"
         style="font-style:normal;font-variant:normal;font-weight:normal;font-stretch:normal;font-size:13.4145px;font-family:'agave Nerd Font';-inkscape-font-specification:'agave Nerd Font, Normal';font-variant-ligatures:normal;font-variant-caps:normal;font-variant-numeric:normal;font-variant-east-asian:normal;stroke-width:0.335364">P<tspan
   style="font-style:normal;font-variant:normal;font-weight:normal;font-stretch:normal;font-size:7.15443px;font-family:'agave Nerd Font';-inkscape-font-specification:'agave Nerd Font, Normal';font-variant-ligatures:normal;font-variant-caps:normal;font-variant-numeric:normal;font-variant-east-asian:normal;stroke-width:0.335364"
   id="tspan2090-2">0 </tspan>(t)</tspan></text>
  </g>
  <g
     inkscape:groupmode="layer"
     id="layer3"
     inkscape:label="back"
     style="display:inline;opacity:0.9568;filter:url(#filter1876)">
    <path
       id="path1072-3"
       style="display:inline;opacity:0.768391;fill:none;fill-opacity:1;stroke:#000000;stroke-width:5.265;stroke-linecap:square;stroke-linejoin:bevel;stroke-miterlimit:4;stroke-dasharray:none;stroke-opacity:1;paint-order:markers fill stroke"
       d="m 50.483575,210.76502 v 44.29238 l 11.87345,22.74727 h 91.110995 l 13.40312,-23.2149 1e-5,-43.82475 m 0,-10.51616 -1e-5,-73.12224 -25.54042,-93.201515 v 0 c -35.2677,-44.486567 -66.509955,0 -66.509955,0 l -24.33719,90.827605 v 75.49616" />
  </g>
  <g
     inkscape:groupmode="layer"
     id="layer2"
     inkscape:label="draw"
     style="display:inline;">
    <path
       id="rect900"
       style="opacity:1;mix-blend-mode:normal;fill:url(#radialGradient1055);fill-opacity:1;stroke:#000000;stroke-width:7.91433081;stroke-linecap:butt;stroke-miterlimit:4;stroke-dasharray:none;stroke-opacity:0.85093093"
       d="m 254.59838,594.62272 v -232.33961 0 H 558.5274 V 941.05009 H 254.59838 V 613.50356"
       transform="scale(0.26458333)" />
    <path
       id="path952"
       style="fill:#b3b3b3;stroke:#000000;stroke-width:0.665;stroke-linecap:butt;stroke-linejoin:miter;stroke-opacity:0.73017097;stroke-miterlimit:4;stroke-dasharray:none"
       d="M 72.464201,275.42598 87.914095,249.7261 m 42.562435,0.13003 13.86048,26.16501 -72.295738,0 15.847302,-26.113 42.591446,0 13.85699,26.113" />
    <path
       id="path1072"
       style="opacity:1;fill:none;stroke:#000000;stroke-width:19.8992;stroke-linecap:square;stroke-linejoin:bevel;stroke-miterlimit:4;stroke-dasharray:none;stroke-opacity:1;paint-order:markers fill stroke"
       transform="scale(0.26458333)"
       d="m 190.80407,796.59223 -1e-5,167.40427 44.87605,85.9739 H 580.0366 l 50.65746,-87.74132 2e-5,-165.63686 m 10e-6,-39.74612 -3e-5,-276.36751 -96.53072,-352.25772 v 0 c -133.29524,-168.138209 -251.37621,0 -251.37621,0 l -91.98307,343.28546 v 285.3398" />
    <path
       style="fill:none;stroke:#000000;stroke-width:0.565;stroke-linecap:butt;stroke-linejoin:miter;stroke-miterlimit:4;stroke-dasharray:none;stroke-opacity:1"
       d="m 64.051868,219.7634 c 0,0 0.01064,-11.55852 -17.382799,-14.16384"
       id="path955" />
    <path
       style="fill:none;stroke:#000000;stroke-width:0.565;stroke-linecap:butt;stroke-linejoin:miter;stroke-miterlimit:4;stroke-dasharray:none;stroke-opacity:1"
       d="m 64.051868,191.43572 c 0,0 0.01064,11.55852 -17.382799,14.16384"
       id="path957" />
    <path
       id="path961"
       style="fill:#000000;fill-opacity:1;stroke:none;stroke-width:0.280155;stroke-linecap:square;stroke-linejoin:bevel;stroke-miterlimit:4;stroke-dasharray:none;paint-order:markers fill stroke"
       inkscape:transform-center-x="0.76711529"
       inkscape:transform-center-y="-0.0013210926"
       d="m 46.867991,202.96658 0.05197,2.74337 -0.04739,2.74346 -2.401819,-1.32667 -2.352207,-1.41278 2.349845,-1.4167 z" />
    <path
       style="fill:none;stroke:#000000;stroke-width:0.565;stroke-linecap:butt;stroke-linejoin:miter;stroke-miterlimit:4;stroke-dasharray:none;stroke-opacity:1"
       d="m 153.422,219.58786 c 0,0 -0.0106,-11.55852 17.3828,-14.16384"
       id="path967" />
    <path
       style="fill:none;stroke:#000000;stroke-width:0.565;stroke-linecap:butt;stroke-linejoin:miter;stroke-miterlimit:4;stroke-dasharray:none;stroke-opacity:1"
       d="m 153.422,191.26018 c 0,0 -0.0106,11.55852 17.3828,14.16384"
       id="path969" />
    <path
       id="path971"
       style="fill:#000000;fill-opacity:1;stroke:none;stroke-width:0.280155;stroke-linecap:square;stroke-linejoin:bevel;stroke-miterlimit:4;stroke-dasharray:none;paint-order:markers fill stroke"
       inkscape:transform-center-x="-0.76711191"
       inkscape:transform-center-y="-0.0013210926"
       d="m 170.60588,202.79104 -0.052,2.74337 0.0474,2.74346 2.40182,-1.32668 2.3522,-1.41277 -2.34984,-1.4167 z" />
    <path
       style="fill:none;stroke:#000000;stroke-width:0.565;stroke-linecap:butt;stroke-linejoin:miter;stroke-opacity:1;stroke-miterlimit:4;stroke-dasharray:none"
       d="m 81.662996,145.16856 c 0,0 -5.316363,11.68544 -20.111003,17.96406"
       id="path2076" />
    <path
       id="path2078"
       style="fill:#000000;fill-opacity:1;stroke:none;stroke-width:0.205026;stroke-linecap:square;stroke-linejoin:bevel;stroke-miterlimit:4;stroke-dasharray:none;paint-order:markers fill stroke"
       inkscape:transform-center-x="0.12519829"
       inkscape:transform-center-y="-0.46776109"
       d="m 60.767245,161.18364 0.843451,1.82231 0.776924,1.85166 -1.999898,-0.1807 -1.992048,-0.253 1.156443,-1.64162 z" />
    <text
       xml:space="preserve"
       id="text2080"
       style="fill:black;fill-opacity:1;line-height:1.25;stroke:none;font-family:sans-serif;font-style:normal;font-weight:normal;font-size:10.58333333px;white-space:pre;shape-inside:url(#rect2082);" />
    <text
       xml:space="preserve"
       style="font-style:normal;font-variant:normal;font-weight:normal;font-stretch:normal;font-size:13.4145px;line-height:1.25;font-family:'agave Nerd Font';-inkscape-font-specification:'agave Nerd Font, Normal';font-variant-ligatures:normal;font-variant-caps:normal;font-variant-numeric:normal;font-variant-east-asian:normal;fill:#000000;fill-opacity:1;stroke:none;stroke-width:0.335364"
       x="77.437553"
       y="143.65512"
       id="text2088"><tspan
         sodipodi:role="line"
         id="tspan2086"
         x="77.437553"
         y="143.65512"
         style="font-style:normal;font-variant:normal;font-weight:normal;font-stretch:normal;font-size:13.4145px;font-family:'agave Nerd Font';-inkscape-font-specification:'agave Nerd Font, Normal';font-variant-ligatures:normal;font-variant-caps:normal;font-variant-numeric:normal;font-variant-east-asian:normal;stroke-width:0.335364">P<tspan
   style="font-style:normal;font-variant:normal;font-weight:normal;font-stretch:normal;font-size:7.15443px;font-family:'agave Nerd Font';-inkscape-font-specification:'agave Nerd Font, Normal';font-variant-ligatures:normal;font-variant-caps:normal;font-variant-numeric:normal;font-variant-east-asian:normal;stroke-width:0.335364"
   id="tspan2090">0 </tspan>(t)</tspan></text>
    <text
       xml:space="preserve"
       style="font-style:normal;font-weight:normal;font-size:10.5833px;line-height:1.25;font-family:sans-serif;fill:#000000;fill-opacity:1;stroke:none;stroke-width:0.264583"
       x="117.94258"
       y="137.38364"
       id="text2098"><tspan
         sodipodi:role="line"
         id="tspan2096"
         x="117.94258"
         y="137.38364"
         style="stroke-width:0.264583" /></text>
    <g
       aria-label="Pe (t)"
       id="text2106"
       style="font-style:normal;font-variant:normal;font-weight:normal;font-stretch:normal;font-size:10.5833px;line-height:1.25;font-family:'agave Nerd Font';-inkscape-font-specification:'agave Nerd Font, Normal';font-variant-ligatures:normal;font-variant-caps:normal;font-variant-numeric:normal;font-variant-east-asian:normal;fill:#000000;fill-opacity:1;stroke:none;stroke-width:0.264583"
       transform="matrix(1.2675188,0,0,1.2675188,-27.856355,-29.703905)">
      <path
         d="m 92.58268,77.831727 h 2.294426 q 0.811317,0 1.281571,0.532265 0.475422,0.532266 0.475422,1.452103 0,0.919838 -0.614948,1.452104 -0.614947,0.532265 -1.679478,0.532265 h -0.878497 v 2.645825 H 92.58268 Z m 0.878496,0.811317 v 2.346103 h 0.878497 q 0.656288,0 1.033525,-0.315225 0.382404,-0.315226 0.382404,-0.857827 0,-0.5426 -0.23771,-0.857826 -0.232544,-0.315225 -0.640786,-0.315225 z"
         style="font-style:normal;font-variant:normal;font-weight:normal;font-stretch:normal;font-size:10.5833px;font-family:'agave Nerd Font';-inkscape-font-specification:'agave Nerd Font, Normal';font-variant-ligatures:normal;font-variant-caps:normal;font-variant-numeric:normal;font-variant-east-asian:normal;stroke-width:0.264583"
         id="path2110" />
      <path
         d="m 98.728715,84.468338 q -0.677995,0 -1.069357,-0.383095 -0.391363,-0.38585 -0.391363,-1.050064 0,-0.675238 0.319705,-1.063845 0.319704,-0.391362 0.870919,-0.391362 0.548459,0 0.857139,0.250803 0.311437,0.248046 0.311437,0.68075 0,0.203949 -0.01103,0.388606 -0.01102,0.184657 -0.02205,0.26734 l -0.01102,0.08544 h -1.824522 q 0,0.01654 0.0028,0.0441 0.0028,0.02756 0.01929,0.107487 0.01929,0.07717 0.05236,0.148828 0.03583,0.07166 0.107487,0.159852 0.07166,0.08819 0.170877,0.151584 0.09922,0.06339 0.259071,0.107487 0.159852,0.04134 0.35829,0.04134 h 0.611848 v 0.410655 q -0.234266,0.0441 -0.611848,0.0441 z m 0.429947,-1.650889 v -0.305924 q 0,-0.23151 -0.187413,-0.363802 -0.187413,-0.135048 -0.51263,-0.135048 -0.143316,0 -0.259071,0.0441 -0.115755,0.0441 -0.187413,0.115755 -0.0689,0.07166 -0.121267,0.157096 -0.05236,0.08544 -0.07717,0.170877 -0.02481,0.08544 -0.03858,0.157096 -0.01378,0.07166 -0.01654,0.115755 v 0.0441 z"
         style="font-size:5.64444px"
         id="path2112" />
      <path
         d="m 106.11292,77.020409 h 0.8785 q -0.0362,0.03617 -0.0982,0.103353 -0.0568,0.06201 -0.22738,0.289387 -0.17053,0.227376 -0.33072,0.480589 -0.15503,0.248046 -0.34623,0.645954 -0.18604,0.392739 -0.32556,0.806149 -0.13953,0.408243 -0.23255,0.950844 -0.093,0.542601 -0.093,1.095537 0,0.552936 0.0878,1.095537 0.093,0.537433 0.23772,0.961178 0.14986,0.418578 0.32556,0.800982 0.1757,0.377237 0.35139,0.645954 0.1757,0.273884 0.3204,0.475421 0.14986,0.201538 0.23771,0.299723 l 0.093,0.09819 h -0.8785 q -0.0362,-0.03617 -0.10335,-0.103353 -0.062,-0.06201 -0.24805,-0.289387 -0.18087,-0.227376 -0.34623,-0.480589 -0.16536,-0.248046 -0.37207,-0.645954 -0.20154,-0.397907 -0.3514,-0.80615 -0.14469,-0.41341 -0.24804,-0.95601 -0.0982,-0.542601 -0.0982,-1.095537 0,-0.552936 0.0982,-1.09037 0.0982,-0.537433 0.25321,-0.956011 0.15503,-0.423745 0.34106,-0.806149 0.1912,-0.382405 0.37724,-0.651121 0.1912,-0.273885 0.34623,-0.470254 0.15503,-0.201538 0.25321,-0.299723 z"
         style="font-style:normal;font-variant:normal;font-weight:normal;font-stretch:normal;font-size:10.5833px;font-family:'agave Nerd Font';-inkscape-font-specification:'agave Nerd Font, Normal';font-variant-ligatures:normal;font-variant-caps:normal;font-variant-numeric:normal;font-variant-east-asian:normal;stroke-width:0.264583"
         id="path2114" />
      <path
         d="m 112.44843,84.404948 q -0.31523,0.08268 -0.82682,0.08268 -0.91984,0 -1.39526,-0.382404 -0.47542,-0.382405 -0.47542,-1.281572 V 80.47755 h -1.4366 v -0.811318 h 1.4366 v -1.834507 h 0.87849 v 1.834507 h 2.14974 v 0.811318 h -2.14974 v 2.346102 q 0,0.439249 0.25322,0.625283 0.25321,0.186035 0.73897,0.186035 h 0.82682 z"
         style="font-style:normal;font-variant:normal;font-weight:normal;font-stretch:normal;font-size:10.5833px;font-family:'agave Nerd Font';-inkscape-font-specification:'agave Nerd Font, Normal';font-variant-ligatures:normal;font-variant-caps:normal;font-variant-numeric:normal;font-variant-east-asian:normal;stroke-width:0.264583"
         id="path2116" />
      <path
         d="m 115.14593,85.769202 h -0.8785 q 0.0362,-0.03617 0.093,-0.103353 0.062,-0.06201 0.23254,-0.289387 0.17054,-0.227376 0.32556,-0.480589 0.1602,-0.248046 0.34624,-0.640786 0.1912,-0.397907 0.33072,-0.80615 0.13953,-0.41341 0.23255,-0.956011 0.093,-0.542601 0.093,-1.095537 0,-0.552936 -0.093,-1.090369 -0.0878,-0.542601 -0.23771,-0.961179 -0.1447,-0.423745 -0.3204,-0.800982 -0.1757,-0.382404 -0.3514,-0.651121 -0.17569,-0.273884 -0.32556,-0.475421 -0.14469,-0.201538 -0.23254,-0.299723 l -0.093,-0.09819 h 0.8785 q 0.0362,0.03617 0.0982,0.103353 0.0672,0.06201 0.24804,0.289387 0.18604,0.227376 0.3514,0.480589 0.16536,0.248046 0.3669,0.645954 0.20671,0.397907 0.3514,0.811317 0.14986,0.408243 0.24805,0.950843 0.10335,0.542601 0.10335,1.095537 0,0.552936 -0.0982,1.09037 -0.0982,0.537433 -0.25321,0.961178 -0.15503,0.418578 -0.34623,0.800982 -0.18604,0.382405 -0.37724,0.651121 -0.18603,0.273884 -0.34106,0.470254 -0.15503,0.201538 -0.25321,0.299723 z"
         style="font-style:normal;font-variant:normal;font-weight:normal;font-stretch:normal;font-size:10.5833px;font-family:'agave Nerd Font';-inkscape-font-specification:'agave Nerd Font, Normal';font-variant-ligatures:normal;font-variant-caps:normal;font-variant-numeric:normal;font-variant-east-asian:normal;stroke-width:0.264583"
         id="path2118" />
    </g>
  </g>
</svg>
