<?xml version='1.0' encoding='UTF-8' standalone='no'?>
<svg width="576pt" height="432pt" viewBox="0 0 576 432" xmlns="http://www.w3.org/2000/svg" xmlns:xlink="http://www.w3.org/1999/xlink">
 <title>gl2ps_renderer figure</title>
 <desc>
Creator: GL2PS 1.4.2, (C) 1999-2020 C. Geuzaine
For: Octave
CreationDate: Thu Jan 28 17:33:06 2021
</desc>
 <defs/>
 <polygon fill="#ffffff" points="0,0 576,0 576,432 0,432"/>
 <g>
  <polygon fill="#ffffff" points="0,432 576,432 576,0 0,0" shape-rendering="crispEdges"/>
  <clipPath id="cp00576432">
   <polygon points="0,432 576,432 576,0 0,0"/>
  </clipPath>
  <g clip-path="url(#cp00576432)">
   <polygon fill="#ffffff" shape-rendering="crispEdges" points="74.8799,384.48 521.28,384.48 521.28,32.3999 74.8799,32.3999"/>
   <polyline fill="none" stroke="#262626" stroke-linejoin="miter" stroke-width="0.5" stroke-linecap="butt" points="74.8799,384.48 74.8799,380.015"/>
   <polyline fill="none" stroke="#262626" stroke-linejoin="miter" stroke-width="0.5" stroke-linecap="butt" points="74.8799,32.3999 74.8799,36.8652"/>
   <polyline fill="none" stroke="#262626" stroke-linejoin="miter" stroke-width="0.5" stroke-linecap="butt" points="149.28,384.48 149.28,380.015"/>
   <polyline fill="none" stroke="#262626" stroke-linejoin="miter" stroke-width="0.5" stroke-linecap="butt" points="149.28,32.3999 149.28,36.8652"/>
   <polyline fill="none" stroke="#262626" stroke-linejoin="miter" stroke-width="0.5" stroke-linecap="butt" points="223.68,384.48 223.68,380.015"/>
   <polyline fill="none" stroke="#262626" stroke-linejoin="miter" stroke-width="0.5" stroke-linecap="butt" points="223.68,32.3999 223.68,36.8652"/>
   <polyline fill="none" stroke="#262626" stroke-linejoin="miter" stroke-width="0.5" stroke-linecap="butt" points="298.08,384.48 298.08,380.015"/>
   <polyline fill="none" stroke="#262626" stroke-linejoin="miter" stroke-width="0.5" stroke-linecap="butt" points="298.08,32.3999 298.08,36.8652"/>
   <polyline fill="none" stroke="#262626" stroke-linejoin="miter" stroke-width="0.5" stroke-linecap="butt" points="372.48,384.48 372.48,380.015"/>
   <polyline fill="none" stroke="#262626" stroke-linejoin="miter" stroke-width="0.5" stroke-linecap="butt" points="372.48,32.3999 372.48,36.8652"/>
   <polyline fill="none" stroke="#262626" stroke-linejoin="miter" stroke-width="0.5" stroke-linecap="butt" points="446.88,384.48 446.88,380.015"/>
   <polyline fill="none" stroke="#262626" stroke-linejoin="miter" stroke-width="0.5" stroke-linecap="butt" points="446.88,32.3999 446.88,36.8652"/>
   <polyline fill="none" stroke="#262626" stroke-linejoin="miter" stroke-width="0.5" stroke-linecap="butt" points="521.28,384.48 521.28,380.015"/>
   <polyline fill="none" stroke="#262626" stroke-linejoin="miter" stroke-width="0.5" stroke-linecap="butt" points="521.28,32.3999 521.28,36.8652"/>
   <text font-style="normal" transform="translate(59.88,399.982) rotate(-0,15,-8)" xml:space="preserve" font-family="FreeSans" font-size="10" font-weight="normal">
    <tspan x="0 3 9 12 18 24 " fill="rgb(38,38,38)" y="-0">-0.003</tspan>
   </text>
   <text font-style="normal" transform="translate(134.28,399.982) rotate(-0,15,-8)" xml:space="preserve" font-family="FreeSans" font-size="10" font-weight="normal">
    <tspan x="0 3 9 12 18 24 " fill="rgb(38,38,38)" y="-0">-0.002</tspan>
   </text>
   <text font-style="normal" transform="translate(208.68,399.982) rotate(-0,15,-8)" xml:space="preserve" font-family="FreeSans" font-size="10" font-weight="normal">
    <tspan x="0 3 9 12 18 24 " fill="rgb(38,38,38)" y="-0">-0.001</tspan>
   </text>
   <text font-style="normal" transform="translate(295.08,399.982) rotate(-0,3,-8)" xml:space="preserve" font-family="FreeSans" font-size="10" font-weight="normal">
    <tspan x="0 " fill="rgb(38,38,38)" y="-0">0</tspan>
   </text>
   <text font-style="normal" transform="translate(358.98,399.982) rotate(-0,13.5,-8)" xml:space="preserve" font-family="FreeSans" font-size="10" font-weight="normal">
    <tspan x="0 6 9 15 21 " fill="rgb(38,38,38)" y="-0">0.001</tspan>
   </text>
   <text font-style="normal" transform="translate(433.38,399.982) rotate(-0,13.5,-8)" xml:space="preserve" font-family="FreeSans" font-size="10" font-weight="normal">
    <tspan x="0 6 9 15 21 " fill="rgb(38,38,38)" y="-0">0.002</tspan>
   </text>
   <text font-style="normal" transform="translate(507.78,399.982) rotate(-0,13.5,-8)" xml:space="preserve" font-family="FreeSans" font-size="10" font-weight="normal">
    <tspan x="0 6 9 15 21 " fill="rgb(38,38,38)" y="-0">0.003</tspan>
   </text>
   <polyline fill="none" stroke="#262626" stroke-linejoin="miter" stroke-width="0.5" stroke-linecap="butt" points="74.8799,384.48 79.3481,384.48"/>
   <polyline fill="none" stroke="#262626" stroke-linejoin="miter" stroke-width="0.5" stroke-linecap="butt" points="521.28,384.48 516.812,384.48"/>
   <polyline fill="none" stroke="#262626" stroke-linejoin="miter" stroke-width="0.5" stroke-linecap="butt" points="74.8799,314.064 79.3481,314.064"/>
   <polyline fill="none" stroke="#262626" stroke-linejoin="miter" stroke-width="0.5" stroke-linecap="butt" points="521.28,314.064 516.812,314.064"/>
   <polyline fill="none" stroke="#262626" stroke-linejoin="miter" stroke-width="0.5" stroke-linecap="butt" points="74.8799,243.648 79.3481,243.648"/>
   <polyline fill="none" stroke="#262626" stroke-linejoin="miter" stroke-width="0.5" stroke-linecap="butt" points="521.28,243.648 516.812,243.648"/>
   <polyline fill="none" stroke="#262626" stroke-linejoin="miter" stroke-width="0.5" stroke-linecap="butt" points="74.8799,173.232 79.3481,173.232"/>
   <polyline fill="none" stroke="#262626" stroke-linejoin="miter" stroke-width="0.5" stroke-linecap="butt" points="521.28,173.232 516.812,173.232"/>
   <polyline fill="none" stroke="#262626" stroke-linejoin="miter" stroke-width="0.5" stroke-linecap="butt" points="74.8799,102.816 79.3481,102.816"/>
   <polyline fill="none" stroke="#262626" stroke-linejoin="miter" stroke-width="0.5" stroke-linecap="butt" points="521.28,102.816 516.812,102.816"/>
   <polyline fill="none" stroke="#262626" stroke-linejoin="miter" stroke-width="0.5" stroke-linecap="butt" points="74.8799,32.3999 79.3481,32.3999"/>
   <polyline fill="none" stroke="#262626" stroke-linejoin="miter" stroke-width="0.5" stroke-linecap="butt" points="521.28,32.3999 516.812,32.3999"/>
   <text font-style="normal" transform="translate(30.8755,388.48) rotate(-0,39,-4)" xml:space="preserve" font-family="FreeSans" font-size="10" font-weight="normal">
    <tspan x="0 3 9 15 21 27 33 " fill="rgb(38,38,38)" y="-0">-100000</tspan>
   </text>
   <text font-style="normal" transform="translate(63.8755,318.064) rotate(-0,6,-4)" xml:space="preserve" font-family="FreeSans" font-size="10" font-weight="normal">
    <tspan x="0 " fill="rgb(38,38,38)" y="-0">0</tspan>
   </text>
   <text font-style="normal" transform="translate(33.8755,247.648) rotate(-0,36,-4)" xml:space="preserve" font-family="FreeSans" font-size="10" font-weight="normal">
    <tspan x="0 6 12 18 24 30 " fill="rgb(38,38,38)" y="-0">100000</tspan>
   </text>
   <text font-style="normal" transform="translate(33.8755,177.232) rotate(-0,36,-4)" xml:space="preserve" font-family="FreeSans" font-size="10" font-weight="normal">
    <tspan x="0 6 12 18 24 30 " fill="rgb(38,38,38)" y="-0">200000</tspan>
   </text>
   <text font-style="normal" transform="translate(33.8755,106.816) rotate(-0,36,-4)" xml:space="preserve" font-family="FreeSans" font-size="10" font-weight="normal">
    <tspan x="0 6 12 18 24 30 " fill="rgb(38,38,38)" y="-0">300000</tspan>
   </text>
   <text font-style="normal" transform="translate(33.8755,36.4) rotate(-0,36,-4)" xml:space="preserve" font-family="FreeSans" font-size="10" font-weight="normal">
    <tspan x="0 6 12 18 24 30 " fill="rgb(38,38,38)" y="-0">400000</tspan>
   </text>
   <polyline fill="none" stroke="#262626" stroke-linejoin="miter" stroke-width="0.5" stroke-linecap="square" stroke-dasharray="16,0" points="74.8799,384.48 521.28,384.48"/>
   <polyline fill="none" stroke="#262626" stroke-linejoin="miter" stroke-width="0.5" stroke-linecap="square" stroke-dasharray="16,0" points="74.8799,32.3999 521.28,32.3999"/>
   <polyline fill="none" stroke="#262626" stroke-linejoin="miter" stroke-width="0.5" stroke-linecap="square" stroke-dasharray="16,0" points="74.8799,384.48 74.8799,32.3999"/>
   <polyline fill="none" stroke="#262626" stroke-linejoin="miter" stroke-width="0.5" stroke-linecap="square" stroke-dasharray="16,0" points="521.28,384.48 521.28,32.3999"/>
   <text font-style="normal" transform="translate(294.58,413.982) rotate(-0,3.5,-9)" xml:space="preserve" font-family="FreeSans" font-size="11" font-weight="normal">
    <tspan x="0 " fill="rgb(38,38,38)" y="-0">Z</tspan>
   </text>
   <text font-style="normal" transform="translate(10.8755,208.44) rotate(-90,15,0)" xml:space="preserve" font-family="FreeSans" font-size="11" font-weight="normal">
    <tspan x="0 7 9 15 24 " fill="rgb(38,38,38)" y="-2">Sigma</tspan>
   </text>
   <text font-style="normal" transform="translate(188.08,22.4) rotate(-0,110,0)" xml:space="preserve" font-family="FreeSans" font-size="11" font-weight="bold">
    <tspan x="0 7 11 17 21 24 30 33 41 48 54 57 63 69 72 78 81 85 88 95 98 105 115 121 124 131 138 141 145 151 157 164 168 171 174 181 188 191 197 203 206 213 " fill="rgb(0,0,0)" y="-3">Static Analysis - Sigma YZ (90°): LE vs TE</tspan>
   </text>
   <polyline fill="none" stroke="#0071bc" stroke-linejoin="round" stroke-width="2" stroke-linecap="butt" points="74.8809,297.891 112.08,261.108 149.28,224.358 186.48,187.643 223.679,150.963 223.681,155.274 260.88,155.112 298.08,155.058 335.28,155.112 372.479,155.274 372.481,150.963 409.68,187.643 446.88,224.358 484.08,261.108 521.279,297.891"/>
   <polyline fill="none" stroke="#d85218" stroke-linejoin="round" stroke-width="2" stroke-linecap="butt" points="74.8809,251.034 112.08,251.034 149.28,251.034 186.48,251.034 223.679,251.034 223.681,88.0264 260.88,88.0264 298.08,88.0264 335.28,88.0264 372.479,88.0264 372.481,251.034 409.68,251.034 446.88,251.034 484.08,251.034 521.279,251.034"/>
   <polyline fill="none" stroke="#ecb01f" stroke-linejoin="round" stroke-width="2" stroke-linecap="butt" points="74.8809,238.401 112.08,238.168 149.28,237.978 186.48,237.83 223.679,237.725 223.681,40.2954 260.88,40.0679 298.08,39.9922 335.28,40.0679 372.479,40.2954 372.481,237.725 409.68,237.83 446.88,237.978 484.08,238.168 521.279,238.401"/>
   <polyline fill="none" stroke="#7d2e8d" stroke-linejoin="round" stroke-width="2" stroke-linecap="butt" points="74.8809,245.608 112.08,248.613 149.28,251.073 186.48,252.985 223.679,254.352 223.681,99.9224 260.88,102.862 298.08,103.842 335.28,102.862 372.479,99.9224 372.481,254.352 409.68,252.985 446.88,251.073 484.08,248.613 521.279,245.608"/>
   <polyline fill="none" stroke="#76ab2f" stroke-linejoin="round" stroke-width="2" stroke-linecap="butt" points="74.8809,245 112.08,248.009 149.28,250.47 186.48,252.383 223.679,253.75 223.681,97.7632 260.88,100.702 298.08,101.682 335.28,100.702 372.479,97.7632 372.481,253.75 409.68,252.383 446.88,250.47 484.08,248.009 521.279,245"/>
   <polyline fill="none" stroke="#4cbded" stroke-linejoin="round" stroke-width="2" stroke-linecap="butt" points="74.8809,353.686 112.08,236.096 149.28,200.777 186.48,211.196 223.679,238.935 223.681,44.6406 260.88,133.445 298.08,167.9 335.28,133.445 372.479,44.6406 372.481,238.935 409.68,211.196 446.88,200.777 484.08,236.096 521.279,353.686"/>
   <polyline fill="none" stroke="#a1132e" stroke-linejoin="round" stroke-width="2" stroke-linecap="butt" points="74.8809,353.839 112.08,236.212 149.28,200.883 186.48,211.308 223.679,239.059 223.681,45.085 260.88,133.925 298.08,168.394 335.28,133.925 372.479,45.085 372.481,239.059 409.68,211.308 446.88,200.883 484.08,236.212 521.279,353.839"/>
  </g>
  <clipPath id="cp00576432">
   <polygon points="0,432 576,432 576,0 0,0"/>
  </clipPath>
  <g clip-path="url(#cp00576432)">
   <polygon fill="#ffffff" shape-rendering="crispEdges" points="458.45,141.945 509.737,141.945 509.737,43.9434 458.45,43.9434"/>
   <polyline fill="none" stroke="#262626" stroke-linejoin="miter" stroke-width="0.5" stroke-linecap="square" stroke-dasharray="16,0" points="458.45,141.945 509.737,141.945"/>
   <polyline fill="none" stroke="#262626" stroke-linejoin="miter" stroke-width="0.5" stroke-linecap="square" stroke-dasharray="16,0" points="458.45,43.9434 509.737,43.9434"/>
   <polyline fill="none" stroke="#262626" stroke-linejoin="miter" stroke-width="0.5" stroke-linecap="square" stroke-dasharray="16,0" points="458.45,141.945 458.45,43.9434"/>
   <polyline fill="none" stroke="#262626" stroke-linejoin="miter" stroke-width="0.5" stroke-linecap="square" stroke-dasharray="16,0" points="509.737,141.945 509.737,43.9434"/>
   <text font-style="normal" transform="translate(486.827,54.9434) rotate(-0,-0,-4)" xml:space="preserve" font-family="FreeSans" font-size="9" font-weight="normal">
    <tspan x="0 5 " fill="rgb(0,0,0)" y="-0">LE</tspan>
   </text>
   <text font-style="normal" transform="translate(486.827,68.9436) rotate(-0,-0,-4)" xml:space="preserve" font-family="FreeSans" font-size="9" font-weight="normal">
    <tspan x="0 6 12 14 " fill="rgb(0,0,0)" y="-0">TE 1</tspan>
   </text>
   <text font-style="normal" transform="translate(486.827,82.9438) rotate(-0,-0,-4)" xml:space="preserve" font-family="FreeSans" font-size="9" font-weight="normal">
    <tspan x="0 6 12 14 " fill="rgb(0,0,0)" y="-0">TE 2</tspan>
   </text>
   <text font-style="normal" transform="translate(486.827,96.9441) rotate(-0,-0,-4)" xml:space="preserve" font-family="FreeSans" font-size="9" font-weight="normal">
    <tspan x="0 6 12 14 " fill="rgb(0,0,0)" y="-0">TE 3</tspan>
   </text>
   <text font-style="normal" transform="translate(486.827,110.944) rotate(-0,-0,-4)" xml:space="preserve" font-family="FreeSans" font-size="9" font-weight="normal">
    <tspan x="0 6 12 14 " fill="rgb(0,0,0)" y="-0">TE 4</tspan>
   </text>
   <text font-style="normal" transform="translate(486.827,124.944) rotate(-0,-0,-4)" xml:space="preserve" font-family="FreeSans" font-size="9" font-weight="normal">
    <tspan x="0 6 12 14 " fill="rgb(0,0,0)" y="-0">TE 5</tspan>
   </text>
   <text font-style="normal" transform="translate(486.827,138.945) rotate(-0,-0,-4)" xml:space="preserve" font-family="FreeSans" font-size="9" font-weight="normal">
    <tspan x="0 6 12 14 " fill="rgb(0,0,0)" y="-0">TE 6</tspan>
   </text>
   <polyline fill="none" stroke="#0071bc" stroke-linejoin="round" stroke-width="2" stroke-linecap="butt" points="461.816,50.9434 483.46,50.9434"/>
   <polyline fill="none" stroke="#d85218" stroke-linejoin="round" stroke-width="2" stroke-linecap="butt" points="461.816,64.9438 483.46,64.9438"/>
   <polyline fill="none" stroke="#ecb01f" stroke-linejoin="round" stroke-width="2" stroke-linecap="butt" points="461.816,78.9438 483.46,78.9438"/>
   <polyline fill="none" stroke="#7d2e8d" stroke-linejoin="round" stroke-width="2" stroke-linecap="butt" points="461.816,92.9438 483.46,92.9438"/>
   <polyline fill="none" stroke="#76ab2f" stroke-linejoin="round" stroke-width="2" stroke-linecap="butt" points="461.816,106.944 483.46,106.944"/>
   <polyline fill="none" stroke="#4cbded" stroke-linejoin="round" stroke-width="2" stroke-linecap="butt" points="461.816,120.944 483.46,120.944"/>
   <polyline fill="none" stroke="#a1132e" stroke-linejoin="round" stroke-width="2" stroke-linecap="butt" points="461.816,134.945 483.46,134.945"/>
  </g>
 </g>
</svg>
