<?xml version='1.0' encoding='UTF-8' standalone='no'?>
<svg height="432pt" xmlns="http://www.w3.org/2000/svg" viewBox="0 0 576 432" xmlns:xlink="http://www.w3.org/1999/xlink" width="576pt">
 <title>gl2ps_renderer figure</title>
 <desc>
Creator: GL2PS 1.4.2, (C) 1999-2020 C. Geuzaine
For: Octave
CreationDate: Thu Jan 28 17:34:18 2021
</desc>
 <defs/>
 <polygon fill="#ffffff" points="0,0 576,0 576,432 0,432"/>
 <g>
  <polygon fill="#ffffff" points="0,432 576,432 576,0 0,0" shape-rendering="crispEdges"/>
  <clipPath id="cp00576432">
   <polygon points="0,432 576,432 576,0 0,0"/>
  </clipPath>
  <g clip-path="url(#cp00576432)">
   <polygon fill="#ffffff" points="74.8799,384.48 521.28,384.48 521.28,32.3999 74.8799,32.3999" shape-rendering="crispEdges"/>
   <polyline stroke-linecap="butt" fill="none" stroke-linejoin="miter" stroke="#262626" points="74.8799,384.48 74.8799,380.015" stroke-width="0.5"/>
   <polyline stroke-linecap="butt" fill="none" stroke-linejoin="miter" stroke="#262626" points="74.8799,32.3999 74.8799,36.8652" stroke-width="0.5"/>
   <polyline stroke-linecap="butt" fill="none" stroke-linejoin="miter" stroke="#262626" points="149.28,384.48 149.28,380.015" stroke-width="0.5"/>
   <polyline stroke-linecap="butt" fill="none" stroke-linejoin="miter" stroke="#262626" points="149.28,32.3999 149.28,36.8652" stroke-width="0.5"/>
   <polyline stroke-linecap="butt" fill="none" stroke-linejoin="miter" stroke="#262626" points="223.68,384.48 223.68,380.015" stroke-width="0.5"/>
   <polyline stroke-linecap="butt" fill="none" stroke-linejoin="miter" stroke="#262626" points="223.68,32.3999 223.68,36.8652" stroke-width="0.5"/>
   <polyline stroke-linecap="butt" fill="none" stroke-linejoin="miter" stroke="#262626" points="298.08,384.48 298.08,380.015" stroke-width="0.5"/>
   <polyline stroke-linecap="butt" fill="none" stroke-linejoin="miter" stroke="#262626" points="298.08,32.3999 298.08,36.8652" stroke-width="0.5"/>
   <polyline stroke-linecap="butt" fill="none" stroke-linejoin="miter" stroke="#262626" points="372.48,384.48 372.48,380.015" stroke-width="0.5"/>
   <polyline stroke-linecap="butt" fill="none" stroke-linejoin="miter" stroke="#262626" points="372.48,32.3999 372.48,36.8652" stroke-width="0.5"/>
   <polyline stroke-linecap="butt" fill="none" stroke-linejoin="miter" stroke="#262626" points="446.88,384.48 446.88,380.015" stroke-width="0.5"/>
   <polyline stroke-linecap="butt" fill="none" stroke-linejoin="miter" stroke="#262626" points="446.88,32.3999 446.88,36.8652" stroke-width="0.5"/>
   <polyline stroke-linecap="butt" fill="none" stroke-linejoin="miter" stroke="#262626" points="521.28,384.48 521.28,380.015" stroke-width="0.5"/>
   <polyline stroke-linecap="butt" fill="none" stroke-linejoin="miter" stroke="#262626" points="521.28,32.3999 521.28,36.8652" stroke-width="0.5"/>
   <text font-weight="normal" font-size="10" transform="translate(59.88,399.982) rotate(-0,15,-8)" xml:space="preserve" font-style="normal" font-family="FreeSans">
    <tspan fill="rgb(38,38,38)" y="-0" x="0 3 9 12 18 24 ">-0.003</tspan>
   </text>
   <text font-weight="normal" font-size="10" transform="translate(134.28,399.982) rotate(-0,15,-8)" xml:space="preserve" font-style="normal" font-family="FreeSans">
    <tspan fill="rgb(38,38,38)" y="-0" x="0 3 9 12 18 24 ">-0.002</tspan>
   </text>
   <text font-weight="normal" font-size="10" transform="translate(208.68,399.982) rotate(-0,15,-8)" xml:space="preserve" font-style="normal" font-family="FreeSans">
    <tspan fill="rgb(38,38,38)" y="-0" x="0 3 9 12 18 24 ">-0.001</tspan>
   </text>
   <text font-weight="normal" font-size="10" transform="translate(295.08,399.982) rotate(-0,3,-8)" xml:space="preserve" font-style="normal" font-family="FreeSans">
    <tspan fill="rgb(38,38,38)" y="-0" x="0 ">0</tspan>
   </text>
   <text font-weight="normal" font-size="10" transform="translate(358.98,399.982) rotate(-0,13.5,-8)" xml:space="preserve" font-style="normal" font-family="FreeSans">
    <tspan fill="rgb(38,38,38)" y="-0" x="0 6 9 15 21 ">0.001</tspan>
   </text>
   <text font-weight="normal" font-size="10" transform="translate(433.38,399.982) rotate(-0,13.5,-8)" xml:space="preserve" font-style="normal" font-family="FreeSans">
    <tspan fill="rgb(38,38,38)" y="-0" x="0 6 9 15 21 ">0.002</tspan>
   </text>
   <text font-weight="normal" font-size="10" transform="translate(507.78,399.982) rotate(-0,13.5,-8)" xml:space="preserve" font-style="normal" font-family="FreeSans">
    <tspan fill="rgb(38,38,38)" y="-0" x="0 6 9 15 21 ">0.003</tspan>
   </text>
   <polyline stroke-linecap="butt" fill="none" stroke-linejoin="miter" stroke="#262626" points="74.8799,384.48 79.3481,384.48" stroke-width="0.5"/>
   <polyline stroke-linecap="butt" fill="none" stroke-linejoin="miter" stroke="#262626" points="521.28,384.48 516.812,384.48" stroke-width="0.5"/>
   <polyline stroke-linecap="butt" fill="none" stroke-linejoin="miter" stroke="#262626" points="74.8799,314.064 79.3481,314.064" stroke-width="0.5"/>
   <polyline stroke-linecap="butt" fill="none" stroke-linejoin="miter" stroke="#262626" points="521.28,314.064 516.812,314.064" stroke-width="0.5"/>
   <polyline stroke-linecap="butt" fill="none" stroke-linejoin="miter" stroke="#262626" points="74.8799,243.648 79.3481,243.648" stroke-width="0.5"/>
   <polyline stroke-linecap="butt" fill="none" stroke-linejoin="miter" stroke="#262626" points="521.28,243.648 516.812,243.648" stroke-width="0.5"/>
   <polyline stroke-linecap="butt" fill="none" stroke-linejoin="miter" stroke="#262626" points="74.8799,173.232 79.3481,173.232" stroke-width="0.5"/>
   <polyline stroke-linecap="butt" fill="none" stroke-linejoin="miter" stroke="#262626" points="521.28,173.232 516.812,173.232" stroke-width="0.5"/>
   <polyline stroke-linecap="butt" fill="none" stroke-linejoin="miter" stroke="#262626" points="74.8799,102.816 79.3481,102.816" stroke-width="0.5"/>
   <polyline stroke-linecap="butt" fill="none" stroke-linejoin="miter" stroke="#262626" points="521.28,102.816 516.812,102.816" stroke-width="0.5"/>
   <polyline stroke-linecap="butt" fill="none" stroke-linejoin="miter" stroke="#262626" points="74.8799,32.3999 79.3481,32.3999" stroke-width="0.5"/>
   <polyline stroke-linecap="butt" fill="none" stroke-linejoin="miter" stroke="#262626" points="521.28,32.3999 516.812,32.3999" stroke-width="0.5"/>
   <text font-weight="normal" font-size="10" transform="translate(30.8755,388.48) rotate(-0,39,-4)" xml:space="preserve" font-style="normal" font-family="FreeSans">
    <tspan fill="rgb(38,38,38)" y="-0" x="0 3 9 15 21 27 33 ">-100000</tspan>
   </text>
   <text font-weight="normal" font-size="10" transform="translate(63.8755,318.064) rotate(-0,6,-4)" xml:space="preserve" font-style="normal" font-family="FreeSans">
    <tspan fill="rgb(38,38,38)" y="-0" x="0 ">0</tspan>
   </text>
   <text font-weight="normal" font-size="10" transform="translate(33.8755,247.648) rotate(-0,36,-4)" xml:space="preserve" font-style="normal" font-family="FreeSans">
    <tspan fill="rgb(38,38,38)" y="-0" x="0 6 12 18 24 30 ">100000</tspan>
   </text>
   <text font-weight="normal" font-size="10" transform="translate(33.8755,177.232) rotate(-0,36,-4)" xml:space="preserve" font-style="normal" font-family="FreeSans">
    <tspan fill="rgb(38,38,38)" y="-0" x="0 6 12 18 24 30 ">200000</tspan>
   </text>
   <text font-weight="normal" font-size="10" transform="translate(33.8755,106.816) rotate(-0,36,-4)" xml:space="preserve" font-style="normal" font-family="FreeSans">
    <tspan fill="rgb(38,38,38)" y="-0" x="0 6 12 18 24 30 ">300000</tspan>
   </text>
   <text font-weight="normal" font-size="10" transform="translate(33.8755,36.4) rotate(-0,36,-4)" xml:space="preserve" font-style="normal" font-family="FreeSans">
    <tspan fill="rgb(38,38,38)" y="-0" x="0 6 12 18 24 30 ">400000</tspan>
   </text>
   <polyline stroke-linecap="square" fill="none" stroke-linejoin="miter" stroke-dasharray="16,0" stroke="#262626" points="74.8799,384.48 521.28,384.48" stroke-width="0.5"/>
   <polyline stroke-linecap="square" fill="none" stroke-linejoin="miter" stroke-dasharray="16,0" stroke="#262626" points="74.8799,32.3999 521.28,32.3999" stroke-width="0.5"/>
   <polyline stroke-linecap="square" fill="none" stroke-linejoin="miter" stroke-dasharray="16,0" stroke="#262626" points="74.8799,384.48 74.8799,32.3999" stroke-width="0.5"/>
   <polyline stroke-linecap="square" fill="none" stroke-linejoin="miter" stroke-dasharray="16,0" stroke="#262626" points="521.28,384.48 521.28,32.3999" stroke-width="0.5"/>
   <text font-weight="normal" font-size="11" transform="translate(294.58,413.982) rotate(-0,3.5,-9)" xml:space="preserve" font-style="normal" font-family="FreeSans">
    <tspan fill="rgb(38,38,38)" y="-0" x="0 ">Z</tspan>
   </text>
   <text font-weight="normal" font-size="11" transform="translate(10.8755,208.44) rotate(-90,15,0)" xml:space="preserve" font-style="normal" font-family="FreeSans">
    <tspan fill="rgb(38,38,38)" y="-2" x="0 7 9 15 24 ">Sigma</tspan>
   </text>
   <text font-weight="bold" font-size="11" transform="translate(188.08,22.4) rotate(-0,110,0)" xml:space="preserve" font-style="normal" font-family="FreeSans">
    <tspan fill="rgb(0,0,0)" y="-3" x="0 7 11 17 21 24 30 33 41 48 54 57 63 69 72 78 81 85 88 95 98 105 115 121 124 131 138 141 145 151 157 164 168 171 174 181 188 191 197 203 206 213 ">Static Analysis - Sigma YZ (45°): LE vs TE</tspan>
   </text>
   <polyline stroke-linecap="butt" fill="none" stroke-linejoin="round" stroke="#0071bc" points="74.8809,297.047 112.08,262.252 149.28,227.484 186.48,192.744 223.679,158.032 223.681,165.101 260.88,165.018 298.08,164.99 335.28,165.018 372.479,165.101 372.481,158.032 409.68,192.744 446.88,227.484 484.08,262.252 521.279,297.047" stroke-width="2"/>
   <polyline stroke-linecap="butt" fill="none" stroke-linejoin="round" stroke="#d85218" points="74.8809,228.506 112.08,228.506 149.28,228.506 186.48,228.506 223.679,228.506 223.681,133.087 260.88,133.087 298.08,133.087 335.28,133.087 372.479,133.087 372.481,228.506 409.68,228.506 446.88,228.506 484.08,228.506 521.279,228.506" stroke-width="2"/>
   <polyline stroke-linecap="butt" fill="none" stroke-linejoin="round" stroke="#ecb01f" points="74.8809,213.946 112.08,213.715 149.28,213.526 186.48,213.379 223.679,213.274 223.681,98.1567 260.88,98.0122 298.08,97.9639 335.28,98.0122 372.479,98.1567 372.481,213.274 409.68,213.379 446.88,213.526 484.08,213.715 521.279,213.946" stroke-width="2"/>
   <polyline stroke-linecap="butt" fill="none" stroke-linejoin="round" stroke="#7d2e8d" points="74.8809,278.128 112.08,258.362 149.28,242.189 186.48,229.611 223.679,220.626 223.681,136.033 260.88,129.719 298.08,127.615 335.28,129.719 372.479,136.033 372.481,220.626 409.68,229.611 446.88,242.189 484.08,258.362 521.279,278.128" stroke-width="2"/>
   <polyline stroke-linecap="butt" fill="none" stroke-linejoin="round" stroke="#76ab2f" points="74.8809,274.267 112.08,254.495 149.28,238.317 186.48,225.734 223.679,216.746 223.681,127.491 260.88,121.176 298.08,119.071 335.28,121.176 372.479,127.491 372.481,216.746 409.68,225.734 446.88,238.317 484.08,254.495 521.279,274.267" stroke-width="2"/>
   <polyline stroke-linecap="butt" fill="none" stroke-linejoin="round" stroke="#4cbded" points="74.8809,328.476 112.08,241.547 149.28,204.958 186.48,197.988 223.679,204.522 223.681,101.882 260.88,141.104 298.08,156.649 335.28,141.104 372.479,101.882 372.481,204.522 409.68,197.988 446.88,204.958 484.08,241.547 521.279,328.476" stroke-width="2"/>
   <polyline stroke-linecap="butt" fill="none" stroke-linejoin="round" stroke="#a1132e" points="74.8809,328.532 112.08,241.701 149.28,205.158 186.48,198.205 223.679,204.742 223.681,102.379 260.88,141.592 298.08,157.133 335.28,141.592 372.479,102.379 372.481,204.742 409.68,198.205 446.88,205.158 484.08,241.701 521.279,328.532" stroke-width="2"/>
  </g>
  <clipPath id="cp00576432">
   <polygon points="0,432 576,432 576,0 0,0"/>
  </clipPath>
  <g clip-path="url(#cp00576432)">
   <polygon fill="#ffffff" points="458.45,141.945 509.737,141.945 509.737,43.9434 458.45,43.9434" shape-rendering="crispEdges"/>
   <polyline stroke-linecap="square" fill="none" stroke-linejoin="miter" stroke-dasharray="16,0" stroke="#262626" points="458.45,141.945 509.737,141.945" stroke-width="0.5"/>
   <polyline stroke-linecap="square" fill="none" stroke-linejoin="miter" stroke-dasharray="16,0" stroke="#262626" points="458.45,43.9434 509.737,43.9434" stroke-width="0.5"/>
   <polyline stroke-linecap="square" fill="none" stroke-linejoin="miter" stroke-dasharray="16,0" stroke="#262626" points="458.45,141.945 458.45,43.9434" stroke-width="0.5"/>
   <polyline stroke-linecap="square" fill="none" stroke-linejoin="miter" stroke-dasharray="16,0" stroke="#262626" points="509.737,141.945 509.737,43.9434" stroke-width="0.5"/>
   <text font-weight="normal" font-size="9" transform="translate(486.827,54.9434) rotate(-0,-0,-4)" xml:space="preserve" font-style="normal" font-family="FreeSans">
    <tspan fill="rgb(0,0,0)" y="-0" x="0 5 ">LE</tspan>
   </text>
   <text font-weight="normal" font-size="9" transform="translate(486.827,68.9436) rotate(-0,-0,-4)" xml:space="preserve" font-style="normal" font-family="FreeSans">
    <tspan fill="rgb(0,0,0)" y="-0" x="0 6 12 14 ">TE 1</tspan>
   </text>
   <text font-weight="normal" font-size="9" transform="translate(486.827,82.9438) rotate(-0,-0,-4)" xml:space="preserve" font-style="normal" font-family="FreeSans">
    <tspan fill="rgb(0,0,0)" y="-0" x="0 6 12 14 ">TE 2</tspan>
   </text>
   <text font-weight="normal" font-size="9" transform="translate(486.827,96.9441) rotate(-0,-0,-4)" xml:space="preserve" font-style="normal" font-family="FreeSans">
    <tspan fill="rgb(0,0,0)" y="-0" x="0 6 12 14 ">TE 3</tspan>
   </text>
   <text font-weight="normal" font-size="9" transform="translate(486.827,110.944) rotate(-0,-0,-4)" xml:space="preserve" font-style="normal" font-family="FreeSans">
    <tspan fill="rgb(0,0,0)" y="-0" x="0 6 12 14 ">TE 4</tspan>
   </text>
   <text font-weight="normal" font-size="9" transform="translate(486.827,124.944) rotate(-0,-0,-4)" xml:space="preserve" font-style="normal" font-family="FreeSans">
    <tspan fill="rgb(0,0,0)" y="-0" x="0 6 12 14 ">TE 5</tspan>
   </text>
   <text font-weight="normal" font-size="9" transform="translate(486.827,138.945) rotate(-0,-0,-4)" xml:space="preserve" font-style="normal" font-family="FreeSans">
    <tspan fill="rgb(0,0,0)" y="-0" x="0 6 12 14 ">TE 6</tspan>
   </text>
   <polyline stroke-linecap="butt" fill="none" stroke-linejoin="round" stroke="#0071bc" points="461.816,50.9434 483.46,50.9434" stroke-width="2"/>
   <polyline stroke-linecap="butt" fill="none" stroke-linejoin="round" stroke="#d85218" points="461.816,64.9438 483.46,64.9438" stroke-width="2"/>
   <polyline stroke-linecap="butt" fill="none" stroke-linejoin="round" stroke="#ecb01f" points="461.816,78.9438 483.46,78.9438" stroke-width="2"/>
   <polyline stroke-linecap="butt" fill="none" stroke-linejoin="round" stroke="#7d2e8d" points="461.816,92.9438 483.46,92.9438" stroke-width="2"/>
   <polyline stroke-linecap="butt" fill="none" stroke-linejoin="round" stroke="#76ab2f" points="461.816,106.944 483.46,106.944" stroke-width="2"/>
   <polyline stroke-linecap="butt" fill="none" stroke-linejoin="round" stroke="#4cbded" points="461.816,120.944 483.46,120.944" stroke-width="2"/>
   <polyline stroke-linecap="butt" fill="none" stroke-linejoin="round" stroke="#a1132e" points="461.816,134.945 483.46,134.945" stroke-width="2"/>
  </g>
 </g>
</svg>
