<?xml version='1.0' encoding='UTF-8' standalone='no'?>
<svg height="432pt" viewBox="0 0 576 432" xmlns:xlink="http://www.w3.org/1999/xlink" width="576pt" xmlns="http://www.w3.org/2000/svg">
 <title>gl2ps_renderer figure</title>
 <desc>
Creator: GL2PS 1.4.2, (C) 1999-2020 C. Geuzaine
For: Octave
CreationDate: Thu Jan 28 17:30:33 2021
</desc>
 <defs/>
 <polygon points="0,0 576,0 576,432 0,432" fill="#ffffff"/>
 <g>
  <polygon shape-rendering="crispEdges" points="0,432 576,432 576,0 0,0" fill="#ffffff"/>
  <clipPath id="cp00576432">
   <polygon points="0,432 576,432 576,0 0,0"/>
  </clipPath>
  <g clip-path="url(#cp00576432)">
   <polygon shape-rendering="crispEdges" points="74.8799,384.48 521.28,384.48 521.28,32.3999 74.8799,32.3999" fill="#ffffff"/>
   <polyline stroke-width="0.5" stroke-linejoin="miter" stroke="#262626" stroke-linecap="butt" points="74.8799,384.48 74.8799,380.015" fill="none"/>
   <polyline stroke-width="0.5" stroke-linejoin="miter" stroke="#262626" stroke-linecap="butt" points="74.8799,32.3999 74.8799,36.8652" fill="none"/>
   <polyline stroke-width="0.5" stroke-linejoin="miter" stroke="#262626" stroke-linecap="butt" points="149.28,384.48 149.28,380.015" fill="none"/>
   <polyline stroke-width="0.5" stroke-linejoin="miter" stroke="#262626" stroke-linecap="butt" points="149.28,32.3999 149.28,36.8652" fill="none"/>
   <polyline stroke-width="0.5" stroke-linejoin="miter" stroke="#262626" stroke-linecap="butt" points="223.68,384.48 223.68,380.015" fill="none"/>
   <polyline stroke-width="0.5" stroke-linejoin="miter" stroke="#262626" stroke-linecap="butt" points="223.68,32.3999 223.68,36.8652" fill="none"/>
   <polyline stroke-width="0.5" stroke-linejoin="miter" stroke="#262626" stroke-linecap="butt" points="298.08,384.48 298.08,380.015" fill="none"/>
   <polyline stroke-width="0.5" stroke-linejoin="miter" stroke="#262626" stroke-linecap="butt" points="298.08,32.3999 298.08,36.8652" fill="none"/>
   <polyline stroke-width="0.5" stroke-linejoin="miter" stroke="#262626" stroke-linecap="butt" points="372.48,384.48 372.48,380.015" fill="none"/>
   <polyline stroke-width="0.5" stroke-linejoin="miter" stroke="#262626" stroke-linecap="butt" points="372.48,32.3999 372.48,36.8652" fill="none"/>
   <polyline stroke-width="0.5" stroke-linejoin="miter" stroke="#262626" stroke-linecap="butt" points="446.88,384.48 446.88,380.015" fill="none"/>
   <polyline stroke-width="0.5" stroke-linejoin="miter" stroke="#262626" stroke-linecap="butt" points="446.88,32.3999 446.88,36.8652" fill="none"/>
   <polyline stroke-width="0.5" stroke-linejoin="miter" stroke="#262626" stroke-linecap="butt" points="521.28,384.48 521.28,380.015" fill="none"/>
   <polyline stroke-width="0.5" stroke-linejoin="miter" stroke="#262626" stroke-linecap="butt" points="521.28,32.3999 521.28,36.8652" fill="none"/>
   <text font-family="FreeSans" transform="translate(59.88,399.982) rotate(-0,15,-8)" font-weight="normal" xml:space="preserve" font-style="normal" font-size="10">
    <tspan x="0 3 9 12 18 24 " y="-0" fill="rgb(38,38,38)">-0.003</tspan>
   </text>
   <text font-family="FreeSans" transform="translate(134.28,399.982) rotate(-0,15,-8)" font-weight="normal" xml:space="preserve" font-style="normal" font-size="10">
    <tspan x="0 3 9 12 18 24 " y="-0" fill="rgb(38,38,38)">-0.002</tspan>
   </text>
   <text font-family="FreeSans" transform="translate(208.68,399.982) rotate(-0,15,-8)" font-weight="normal" xml:space="preserve" font-style="normal" font-size="10">
    <tspan x="0 3 9 12 18 24 " y="-0" fill="rgb(38,38,38)">-0.001</tspan>
   </text>
   <text font-family="FreeSans" transform="translate(295.08,399.982) rotate(-0,3,-8)" font-weight="normal" xml:space="preserve" font-style="normal" font-size="10">
    <tspan x="0 " y="-0" fill="rgb(38,38,38)">0</tspan>
   </text>
   <text font-family="FreeSans" transform="translate(358.98,399.982) rotate(-0,13.5,-8)" font-weight="normal" xml:space="preserve" font-style="normal" font-size="10">
    <tspan x="0 6 9 15 21 " y="-0" fill="rgb(38,38,38)">0.001</tspan>
   </text>
   <text font-family="FreeSans" transform="translate(433.38,399.982) rotate(-0,13.5,-8)" font-weight="normal" xml:space="preserve" font-style="normal" font-size="10">
    <tspan x="0 6 9 15 21 " y="-0" fill="rgb(38,38,38)">0.002</tspan>
   </text>
   <text font-family="FreeSans" transform="translate(507.78,399.982) rotate(-0,13.5,-8)" font-weight="normal" xml:space="preserve" font-style="normal" font-size="10">
    <tspan x="0 6 9 15 21 " y="-0" fill="rgb(38,38,38)">0.003</tspan>
   </text>
   <polyline stroke-width="0.5" stroke-linejoin="miter" stroke="#262626" stroke-linecap="butt" points="74.8799,384.48 79.3481,384.48" fill="none"/>
   <polyline stroke-width="0.5" stroke-linejoin="miter" stroke="#262626" stroke-linecap="butt" points="521.28,384.48 516.812,384.48" fill="none"/>
   <polyline stroke-width="0.5" stroke-linejoin="miter" stroke="#262626" stroke-linecap="butt" points="74.8799,314.064 79.3481,314.064" fill="none"/>
   <polyline stroke-width="0.5" stroke-linejoin="miter" stroke="#262626" stroke-linecap="butt" points="521.28,314.064 516.812,314.064" fill="none"/>
   <polyline stroke-width="0.5" stroke-linejoin="miter" stroke="#262626" stroke-linecap="butt" points="74.8799,243.648 79.3481,243.648" fill="none"/>
   <polyline stroke-width="0.5" stroke-linejoin="miter" stroke="#262626" stroke-linecap="butt" points="521.28,243.648 516.812,243.648" fill="none"/>
   <polyline stroke-width="0.5" stroke-linejoin="miter" stroke="#262626" stroke-linecap="butt" points="74.8799,173.232 79.3481,173.232" fill="none"/>
   <polyline stroke-width="0.5" stroke-linejoin="miter" stroke="#262626" stroke-linecap="butt" points="521.28,173.232 516.812,173.232" fill="none"/>
   <polyline stroke-width="0.5" stroke-linejoin="miter" stroke="#262626" stroke-linecap="butt" points="74.8799,102.816 79.3481,102.816" fill="none"/>
   <polyline stroke-width="0.5" stroke-linejoin="miter" stroke="#262626" stroke-linecap="butt" points="521.28,102.816 516.812,102.816" fill="none"/>
   <polyline stroke-width="0.5" stroke-linejoin="miter" stroke="#262626" stroke-linecap="butt" points="74.8799,32.3999 79.3481,32.3999" fill="none"/>
   <polyline stroke-width="0.5" stroke-linejoin="miter" stroke="#262626" stroke-linecap="butt" points="521.28,32.3999 516.812,32.3999" fill="none"/>
   <text font-family="FreeSans" transform="translate(63.8755,388.48) rotate(-0,6,-4)" font-weight="normal" xml:space="preserve" font-style="normal" font-size="10">
    <tspan x="0 " y="-0" fill="rgb(38,38,38)">0</tspan>
   </text>
   <text font-family="FreeSans" transform="translate(39.8755,318.064) rotate(-0,30,-4)" font-weight="normal" xml:space="preserve" font-style="normal" font-size="10">
    <tspan x="0 6 12 18 24 " y="-0" fill="rgb(38,38,38)">50000</tspan>
   </text>
   <text font-family="FreeSans" transform="translate(33.8755,247.648) rotate(-0,36,-4)" font-weight="normal" xml:space="preserve" font-style="normal" font-size="10">
    <tspan x="0 6 12 18 24 30 " y="-0" fill="rgb(38,38,38)">100000</tspan>
   </text>
   <text font-family="FreeSans" transform="translate(33.8755,177.232) rotate(-0,36,-4)" font-weight="normal" xml:space="preserve" font-style="normal" font-size="10">
    <tspan x="0 6 12 18 24 30 " y="-0" fill="rgb(38,38,38)">150000</tspan>
   </text>
   <text font-family="FreeSans" transform="translate(33.8755,106.816) rotate(-0,36,-4)" font-weight="normal" xml:space="preserve" font-style="normal" font-size="10">
    <tspan x="0 6 12 18 24 30 " y="-0" fill="rgb(38,38,38)">200000</tspan>
   </text>
   <text font-family="FreeSans" transform="translate(33.8755,36.4) rotate(-0,36,-4)" font-weight="normal" xml:space="preserve" font-style="normal" font-size="10">
    <tspan x="0 6 12 18 24 30 " y="-0" fill="rgb(38,38,38)">250000</tspan>
   </text>
   <polyline stroke-width="0.5" stroke-linejoin="miter" stroke="#262626" stroke-linecap="square" stroke-dasharray="16,0" points="74.8799,384.48 521.28,384.48" fill="none"/>
   <polyline stroke-width="0.5" stroke-linejoin="miter" stroke="#262626" stroke-linecap="square" stroke-dasharray="16,0" points="74.8799,32.3999 521.28,32.3999" fill="none"/>
   <polyline stroke-width="0.5" stroke-linejoin="miter" stroke="#262626" stroke-linecap="square" stroke-dasharray="16,0" points="74.8799,384.48 74.8799,32.3999" fill="none"/>
   <polyline stroke-width="0.5" stroke-linejoin="miter" stroke="#262626" stroke-linecap="square" stroke-dasharray="16,0" points="521.28,384.48 521.28,32.3999" fill="none"/>
   <text font-family="FreeSans" transform="translate(294.58,413.982) rotate(-0,3.5,-9)" font-weight="normal" xml:space="preserve" font-style="normal" font-size="11">
    <tspan x="0 " y="-0" fill="rgb(38,38,38)">Z</tspan>
   </text>
   <text font-family="FreeSans" transform="translate(13.8755,208.44) rotate(-90,15,0)" font-weight="normal" xml:space="preserve" font-style="normal" font-size="11">
    <tspan x="0 7 9 15 24 " y="-2" fill="rgb(38,38,38)">Sigma</tspan>
   </text>
   <text font-family="FreeSans" transform="translate(205.58,22.4) rotate(-0,92.5,0)" font-weight="bold" xml:space="preserve" font-style="normal" font-size="11">
    <tspan x="0 7 11 17 21 24 30 33 41 48 54 57 63 69 72 78 81 85 88 95 98 105 115 121 124 131 138 141 148 155 158 162 168 174 181 " y="-3" fill="rgb(0,0,0)">Static Analysis - Sigma YZ LE (90°)</tspan>
   </text>
   <polyline stroke-width="2" stroke-linejoin="round" stroke="#0071bc" stroke-linecap="butt" points="74.8809,352.134 112.08,278.568 149.28,205.069 186.48,131.638 223.679,58.2778 223.681,66.8999 260.88,66.5757 298.08,66.4678 335.28,66.5757 372.479,66.8999 372.481,58.2778 409.68,131.638 446.88,205.069 484.08,278.568 521.279,352.134" fill="none"/>
  </g>
  <clipPath id="cp00576432">
   <polygon points="0,432 576,432 576,0 0,0"/>
  </clipPath>
  <g clip-path="url(#cp00576432)">
   <polygon shape-rendering="crispEdges" points="444.05,60.0005 509.737,60.0005 509.737,43.9434 444.05,43.9434" fill="#ffffff"/>
   <polyline stroke-width="0.5" stroke-linejoin="miter" stroke="#262626" stroke-linecap="square" stroke-dasharray="16,0" points="444.05,60.0005 509.737,60.0005" fill="none"/>
   <polyline stroke-width="0.5" stroke-linejoin="miter" stroke="#262626" stroke-linecap="square" stroke-dasharray="16,0" points="444.05,43.9434 509.737,43.9434" fill="none"/>
   <polyline stroke-width="0.5" stroke-linejoin="miter" stroke="#262626" stroke-linecap="square" stroke-dasharray="16,0" points="444.05,60.0005 444.05,43.9434" fill="none"/>
   <polyline stroke-width="0.5" stroke-linejoin="miter" stroke="#262626" stroke-linecap="square" stroke-dasharray="16,0" points="509.737,60.0005 509.737,43.9434" fill="none"/>
   <text font-family="FreeSans" transform="translate(472.427,56.972) rotate(-0,-0,-5)" font-weight="normal" xml:space="preserve" font-style="normal" font-size="9">
    <tspan x="0 4 6 11 18 23 25 29 " y="-2" fill="rgb(0,0,0)">sigma yz</tspan>
   </text>
   <polyline stroke-width="2" stroke-linejoin="round" stroke="#0071bc" stroke-linecap="butt" points="447.417,51.9722 469.06,51.9722" fill="none"/>
  </g>
 </g>
</svg>
