<?xml version='1.0' encoding='UTF-8' standalone='no'?>
<svg height="432pt" viewBox="0 0 576 432" width="576pt" xmlns:xlink="http://www.w3.org/1999/xlink" xmlns="http://www.w3.org/2000/svg">
 <title>gl2ps_renderer figure</title>
 <desc>
Creator: GL2PS 1.4.2, (C) 1999-2020 C. Geuzaine
For: Octave
CreationDate: Thu Jan 28 17:39:30 2021
</desc>
 <defs/>
 <polygon points="0,0 576,0 576,432 0,432" fill="#ffffff"/>
 <g>
  <polygon points="0,432 576,432 576,0 0,0" fill="#ffffff" shape-rendering="crispEdges"/>
  <clipPath id="cp00576432">
   <polygon points="0,432 576,432 576,0 0,0"/>
  </clipPath>
  <g clip-path="url(#cp00576432)">
   <polygon points="74.8799,384.48 521.28,384.48 521.28,32.3999 74.8799,32.3999" fill="#ffffff" shape-rendering="crispEdges"/>
   <polyline stroke-linejoin="miter" points="74.8799,384.48 74.8799,380.015" stroke="#262626" stroke-width="0.5" fill="none" stroke-linecap="butt"/>
   <polyline stroke-linejoin="miter" points="74.8799,32.3999 74.8799,36.8652" stroke="#262626" stroke-width="0.5" fill="none" stroke-linecap="butt"/>
   <polyline stroke-linejoin="miter" points="149.28,384.48 149.28,380.015" stroke="#262626" stroke-width="0.5" fill="none" stroke-linecap="butt"/>
   <polyline stroke-linejoin="miter" points="149.28,32.3999 149.28,36.8652" stroke="#262626" stroke-width="0.5" fill="none" stroke-linecap="butt"/>
   <polyline stroke-linejoin="miter" points="223.68,384.48 223.68,380.015" stroke="#262626" stroke-width="0.5" fill="none" stroke-linecap="butt"/>
   <polyline stroke-linejoin="miter" points="223.68,32.3999 223.68,36.8652" stroke="#262626" stroke-width="0.5" fill="none" stroke-linecap="butt"/>
   <polyline stroke-linejoin="miter" points="298.08,384.48 298.08,380.015" stroke="#262626" stroke-width="0.5" fill="none" stroke-linecap="butt"/>
   <polyline stroke-linejoin="miter" points="298.08,32.3999 298.08,36.8652" stroke="#262626" stroke-width="0.5" fill="none" stroke-linecap="butt"/>
   <polyline stroke-linejoin="miter" points="372.48,384.48 372.48,380.015" stroke="#262626" stroke-width="0.5" fill="none" stroke-linecap="butt"/>
   <polyline stroke-linejoin="miter" points="372.48,32.3999 372.48,36.8652" stroke="#262626" stroke-width="0.5" fill="none" stroke-linecap="butt"/>
   <polyline stroke-linejoin="miter" points="446.88,384.48 446.88,380.015" stroke="#262626" stroke-width="0.5" fill="none" stroke-linecap="butt"/>
   <polyline stroke-linejoin="miter" points="446.88,32.3999 446.88,36.8652" stroke="#262626" stroke-width="0.5" fill="none" stroke-linecap="butt"/>
   <polyline stroke-linejoin="miter" points="521.28,384.48 521.28,380.015" stroke="#262626" stroke-width="0.5" fill="none" stroke-linecap="butt"/>
   <polyline stroke-linejoin="miter" points="521.28,32.3999 521.28,36.8652" stroke="#262626" stroke-width="0.5" fill="none" stroke-linecap="butt"/>
   <text font-family="FreeSans" font-style="normal" xml:space="preserve" font-weight="normal" font-size="10" transform="translate(59.88,399.982) rotate(-0,15,-8)">
    <tspan y="-0" x="0 3 9 12 18 24 " fill="rgb(38,38,38)">-0.003</tspan>
   </text>
   <text font-family="FreeSans" font-style="normal" xml:space="preserve" font-weight="normal" font-size="10" transform="translate(134.28,399.982) rotate(-0,15,-8)">
    <tspan y="-0" x="0 3 9 12 18 24 " fill="rgb(38,38,38)">-0.002</tspan>
   </text>
   <text font-family="FreeSans" font-style="normal" xml:space="preserve" font-weight="normal" font-size="10" transform="translate(208.68,399.982) rotate(-0,15,-8)">
    <tspan y="-0" x="0 3 9 12 18 24 " fill="rgb(38,38,38)">-0.001</tspan>
   </text>
   <text font-family="FreeSans" font-style="normal" xml:space="preserve" font-weight="normal" font-size="10" transform="translate(295.08,399.982) rotate(-0,3,-8)">
    <tspan y="-0" x="0 " fill="rgb(38,38,38)">0</tspan>
   </text>
   <text font-family="FreeSans" font-style="normal" xml:space="preserve" font-weight="normal" font-size="10" transform="translate(358.98,399.982) rotate(-0,13.5,-8)">
    <tspan y="-0" x="0 6 9 15 21 " fill="rgb(38,38,38)">0.001</tspan>
   </text>
   <text font-family="FreeSans" font-style="normal" xml:space="preserve" font-weight="normal" font-size="10" transform="translate(433.38,399.982) rotate(-0,13.5,-8)">
    <tspan y="-0" x="0 6 9 15 21 " fill="rgb(38,38,38)">0.002</tspan>
   </text>
   <text font-family="FreeSans" font-style="normal" xml:space="preserve" font-weight="normal" font-size="10" transform="translate(507.78,399.982) rotate(-0,13.5,-8)">
    <tspan y="-0" x="0 6 9 15 21 " fill="rgb(38,38,38)">0.003</tspan>
   </text>
   <polyline stroke-linejoin="miter" points="74.8799,384.48 79.3481,384.48" stroke="#262626" stroke-width="0.5" fill="none" stroke-linecap="butt"/>
   <polyline stroke-linejoin="miter" points="521.28,384.48 516.812,384.48" stroke="#262626" stroke-width="0.5" fill="none" stroke-linecap="butt"/>
   <polyline stroke-linejoin="miter" points="74.8799,325.8 79.3481,325.8" stroke="#262626" stroke-width="0.5" fill="none" stroke-linecap="butt"/>
   <polyline stroke-linejoin="miter" points="521.28,325.8 516.812,325.8" stroke="#262626" stroke-width="0.5" fill="none" stroke-linecap="butt"/>
   <polyline stroke-linejoin="miter" points="74.8799,267.12 79.3481,267.12" stroke="#262626" stroke-width="0.5" fill="none" stroke-linecap="butt"/>
   <polyline stroke-linejoin="miter" points="521.28,267.12 516.812,267.12" stroke="#262626" stroke-width="0.5" fill="none" stroke-linecap="butt"/>
   <polyline stroke-linejoin="miter" points="74.8799,208.44 79.3481,208.44" stroke="#262626" stroke-width="0.5" fill="none" stroke-linecap="butt"/>
   <polyline stroke-linejoin="miter" points="521.28,208.44 516.812,208.44" stroke="#262626" stroke-width="0.5" fill="none" stroke-linecap="butt"/>
   <polyline stroke-linejoin="miter" points="74.8799,149.76 79.3481,149.76" stroke="#262626" stroke-width="0.5" fill="none" stroke-linecap="butt"/>
   <polyline stroke-linejoin="miter" points="521.28,149.76 516.812,149.76" stroke="#262626" stroke-width="0.5" fill="none" stroke-linecap="butt"/>
   <polyline stroke-linejoin="miter" points="74.8799,91.0801 79.3481,91.0801" stroke="#262626" stroke-width="0.5" fill="none" stroke-linecap="butt"/>
   <polyline stroke-linejoin="miter" points="521.28,91.0801 516.812,91.0801" stroke="#262626" stroke-width="0.5" fill="none" stroke-linecap="butt"/>
   <polyline stroke-linejoin="miter" points="74.8799,32.3999 79.3481,32.3999" stroke="#262626" stroke-width="0.5" fill="none" stroke-linecap="butt"/>
   <polyline stroke-linejoin="miter" points="521.28,32.3999 516.812,32.3999" stroke="#262626" stroke-width="0.5" fill="none" stroke-linecap="butt"/>
   <text font-family="FreeSans" font-style="normal" xml:space="preserve" font-weight="normal" font-size="10" transform="translate(37.8755,388.48) rotate(-0,32,-4)">
    <tspan y="-0" x="0 3 9 14 20 26 " fill="rgb(38,38,38)">-1e+08</tspan>
   </text>
   <text font-family="FreeSans" font-style="normal" xml:space="preserve" font-weight="normal" font-size="10" transform="translate(37.8755,329.8) rotate(-0,32,-4)">
    <tspan y="-0" x="0 3 9 14 20 26 " fill="rgb(38,38,38)">-5e+07</tspan>
   </text>
   <text font-family="FreeSans" font-style="normal" xml:space="preserve" font-weight="normal" font-size="10" transform="translate(63.8755,271.12) rotate(-0,6,-4)">
    <tspan y="-0" x="0 " fill="rgb(38,38,38)">0</tspan>
   </text>
   <text font-family="FreeSans" font-style="normal" xml:space="preserve" font-weight="normal" font-size="10" transform="translate(40.8755,212.44) rotate(-0,29,-4)">
    <tspan y="-0" x="0 6 11 17 23 " fill="rgb(38,38,38)">5e+07</tspan>
   </text>
   <text font-family="FreeSans" font-style="normal" xml:space="preserve" font-weight="normal" font-size="10" transform="translate(40.8755,153.76) rotate(-0,29,-4)">
    <tspan y="-0" x="0 6 11 17 23 " fill="rgb(38,38,38)">1e+08</tspan>
   </text>
   <text font-family="FreeSans" font-style="normal" xml:space="preserve" font-weight="normal" font-size="10" transform="translate(31.8755,95.08) rotate(-0,38,-4)">
    <tspan y="-0" x="0 6 9 15 20 26 32 " fill="rgb(38,38,38)">1.5e+08</tspan>
   </text>
   <text font-family="FreeSans" font-style="normal" xml:space="preserve" font-weight="normal" font-size="10" transform="translate(40.8755,36.4) rotate(-0,29,-4)">
    <tspan y="-0" x="0 6 11 17 23 " fill="rgb(38,38,38)">2e+08</tspan>
   </text>
   <polyline stroke-linejoin="miter" stroke-dasharray="16,0" points="74.8799,384.48 521.28,384.48" stroke="#262626" stroke-width="0.5" fill="none" stroke-linecap="square"/>
   <polyline stroke-linejoin="miter" stroke-dasharray="16,0" points="74.8799,32.3999 521.28,32.3999" stroke="#262626" stroke-width="0.5" fill="none" stroke-linecap="square"/>
   <polyline stroke-linejoin="miter" stroke-dasharray="16,0" points="74.8799,384.48 74.8799,32.3999" stroke="#262626" stroke-width="0.5" fill="none" stroke-linecap="square"/>
   <polyline stroke-linejoin="miter" stroke-dasharray="16,0" points="521.28,384.48 521.28,32.3999" stroke="#262626" stroke-width="0.5" fill="none" stroke-linecap="square"/>
   <text font-family="FreeSans" font-style="normal" xml:space="preserve" font-weight="normal" font-size="11" transform="translate(294.58,413.982) rotate(-0,3.5,-9)">
    <tspan y="-0" x="0 " fill="rgb(38,38,38)">Z</tspan>
   </text>
   <text font-family="FreeSans" font-style="normal" xml:space="preserve" font-weight="normal" font-size="11" transform="translate(11.8755,208.44) rotate(-90,15,0)">
    <tspan y="-2" x="0 7 9 15 24 " fill="rgb(38,38,38)">Sigma</tspan>
   </text>
   <text font-family="FreeSans" font-style="normal" xml:space="preserve" font-weight="bold" font-size="11" transform="translate(181.58,22.4) rotate(-0,116.5,0)">
    <tspan y="-3" x="0 7 14 20 24 34 40 43 46 54 61 67 70 76 82 85 91 94 98 101 108 111 118 128 134 137 144 151 154 158 164 170 177 181 184 187 194 201 204 210 216 219 226 " fill="rgb(0,0,0)">Thermal Analysis - Sigma XX (45°): LE vs TE</tspan>
   </text>
   <polyline stroke-linejoin="round" points="74.8809,277.636 112.08,277.751 149.28,277.689 186.48,277.451 223.679,277.036 223.681,237.09 260.88,250.33 298.08,254.744 335.28,250.33 372.479,237.09 372.481,277.036 409.68,277.451 446.88,277.689 484.08,277.751 521.279,277.636" stroke="#0071bc" stroke-width="2" fill="none" stroke-linecap="butt"/>
   <polyline stroke-linejoin="round" points="74.8809,358.45 112.08,358.45 149.28,358.45 186.48,358.45 223.679,358.45 223.681,84.3145 260.88,84.3145 298.08,84.3145 335.28,84.3145 372.479,84.3145 372.481,358.45 409.68,358.45 446.88,358.45 484.08,358.45 521.279,358.45" stroke="#d85218" stroke-width="2" fill="none" stroke-linecap="butt"/>
   <polyline stroke-linejoin="round" points="74.8809,277.812 112.08,277.817 149.28,277.821 186.48,277.824 223.679,277.826 223.681,245.779 260.88,245.788 298.08,245.792 335.28,245.788 372.479,245.779 372.481,277.826 409.68,277.824 446.88,277.821 484.08,277.817 521.279,277.812" stroke="#ecb01f" stroke-width="2" fill="none" stroke-linecap="butt"/>
   <polyline stroke-linejoin="round" points="74.8809,277.535 112.08,277.667 149.28,277.775 186.48,277.859 223.679,277.919 223.681,245.882 260.88,245.947 298.08,245.968 335.28,245.947 372.479,245.882 372.481,277.919 409.68,277.859 446.88,277.775 484.08,277.667 521.279,277.535" stroke="#7d2e8d" stroke-width="2" fill="none" stroke-linecap="butt"/>
   <polyline stroke-linejoin="round" points="74.8809,277.925 112.08,277.578 149.28,277.593 186.48,277.792 223.679,278.033 223.681,245.548 260.88,246.709 298.08,247.148 335.28,246.709 372.479,245.548 372.481,278.033 409.68,277.792 446.88,277.593 484.08,277.578 521.279,277.925" stroke="#76ab2f" stroke-width="2" fill="none" stroke-linecap="butt"/>
   <polyline stroke-linejoin="round" points="74.8809,278.388 112.08,277.57 149.28,277.45 186.48,277.696 223.679,278.055 223.681,245.556 260.88,246.788 298.08,247.256 335.28,246.788 372.479,245.556 372.481,278.055 409.68,277.696 446.88,277.45 484.08,277.57 521.279,278.388" stroke="#4cbded" stroke-width="2" fill="none" stroke-linecap="butt"/>
   <polyline stroke-linejoin="round" points="74.8809,277.33 112.08,277.924 149.28,277.522 186.48,277.569 223.679,278.175 223.681,243.996 260.88,248.14 298.08,249.992 335.28,248.14 372.479,243.996 372.481,278.175 409.68,277.569 446.88,277.522 484.08,277.924 521.279,277.33" stroke="#a1132e" stroke-width="2" fill="none" stroke-linecap="butt"/>
  </g>
  <clipPath id="cp00576432">
   <polygon points="0,432 576,432 576,0 0,0"/>
  </clipPath>
  <g clip-path="url(#cp00576432)">
   <polygon points="458.45,141.945 509.737,141.945 509.737,43.9434 458.45,43.9434" fill="#ffffff" shape-rendering="crispEdges"/>
   <polyline stroke-linejoin="miter" stroke-dasharray="16,0" points="458.45,141.945 509.737,141.945" stroke="#262626" stroke-width="0.5" fill="none" stroke-linecap="square"/>
   <polyline stroke-linejoin="miter" stroke-dasharray="16,0" points="458.45,43.9434 509.737,43.9434" stroke="#262626" stroke-width="0.5" fill="none" stroke-linecap="square"/>
   <polyline stroke-linejoin="miter" stroke-dasharray="16,0" points="458.45,141.945 458.45,43.9434" stroke="#262626" stroke-width="0.5" fill="none" stroke-linecap="square"/>
   <polyline stroke-linejoin="miter" stroke-dasharray="16,0" points="509.737,141.945 509.737,43.9434" stroke="#262626" stroke-width="0.5" fill="none" stroke-linecap="square"/>
   <text font-family="FreeSans" font-style="normal" xml:space="preserve" font-weight="normal" font-size="9" transform="translate(486.827,54.9434) rotate(-0,-0,-4)">
    <tspan y="-0" x="0 5 " fill="rgb(0,0,0)">LE</tspan>
   </text>
   <text font-family="FreeSans" font-style="normal" xml:space="preserve" font-weight="normal" font-size="9" transform="translate(486.827,68.9436) rotate(-0,-0,-4)">
    <tspan y="-0" x="0 6 12 14 " fill="rgb(0,0,0)">TE 1</tspan>
   </text>
   <text font-family="FreeSans" font-style="normal" xml:space="preserve" font-weight="normal" font-size="9" transform="translate(486.827,82.9438) rotate(-0,-0,-4)">
    <tspan y="-0" x="0 6 12 14 " fill="rgb(0,0,0)">TE 2</tspan>
   </text>
   <text font-family="FreeSans" font-style="normal" xml:space="preserve" font-weight="normal" font-size="9" transform="translate(486.827,96.9441) rotate(-0,-0,-4)">
    <tspan y="-0" x="0 6 12 14 " fill="rgb(0,0,0)">TE 3</tspan>
   </text>
   <text font-family="FreeSans" font-style="normal" xml:space="preserve" font-weight="normal" font-size="9" transform="translate(486.827,110.944) rotate(-0,-0,-4)">
    <tspan y="-0" x="0 6 12 14 " fill="rgb(0,0,0)">TE 4</tspan>
   </text>
   <text font-family="FreeSans" font-style="normal" xml:space="preserve" font-weight="normal" font-size="9" transform="translate(486.827,124.944) rotate(-0,-0,-4)">
    <tspan y="-0" x="0 6 12 14 " fill="rgb(0,0,0)">TE 5</tspan>
   </text>
   <text font-family="FreeSans" font-style="normal" xml:space="preserve" font-weight="normal" font-size="9" transform="translate(486.827,138.945) rotate(-0,-0,-4)">
    <tspan y="-0" x="0 6 12 14 " fill="rgb(0,0,0)">TE 6</tspan>
   </text>
   <polyline stroke-linejoin="round" points="461.816,50.9434 483.46,50.9434" stroke="#0071bc" stroke-width="2" fill="none" stroke-linecap="butt"/>
   <polyline stroke-linejoin="round" points="461.816,64.9438 483.46,64.9438" stroke="#d85218" stroke-width="2" fill="none" stroke-linecap="butt"/>
   <polyline stroke-linejoin="round" points="461.816,78.9438 483.46,78.9438" stroke="#ecb01f" stroke-width="2" fill="none" stroke-linecap="butt"/>
   <polyline stroke-linejoin="round" points="461.816,92.9438 483.46,92.9438" stroke="#7d2e8d" stroke-width="2" fill="none" stroke-linecap="butt"/>
   <polyline stroke-linejoin="round" points="461.816,106.944 483.46,106.944" stroke="#76ab2f" stroke-width="2" fill="none" stroke-linecap="butt"/>
   <polyline stroke-linejoin="round" points="461.816,120.944 483.46,120.944" stroke="#4cbded" stroke-width="2" fill="none" stroke-linecap="butt"/>
   <polyline stroke-linejoin="round" points="461.816,134.945 483.46,134.945" stroke="#a1132e" stroke-width="2" fill="none" stroke-linecap="butt"/>
  </g>
 </g>
</svg>
