<?xml version='1.0' encoding='UTF-8' standalone='no'?>
<svg width="576pt" height="432pt" xmlns="http://www.w3.org/2000/svg" viewBox="0 0 576 432" xmlns:xlink="http://www.w3.org/1999/xlink">
 <title>gl2ps_renderer figure</title>
 <desc>
Creator: GL2PS 1.4.2, (C) 1999-2020 C. Geuzaine
For: Octave
CreationDate: Thu Jan 28 17:35:28 2021
</desc>
 <defs/>
 <polygon points="0,0 576,0 576,432 0,432" fill="#ffffff"/>
 <g>
  <polygon shape-rendering="crispEdges" points="0,432 576,432 576,0 0,0" fill="#ffffff"/>
  <clipPath id="cp00576432">
   <polygon points="0,432 576,432 576,0 0,0"/>
  </clipPath>
  <g clip-path="url(#cp00576432)">
   <polygon shape-rendering="crispEdges" points="74.8799,384.48 521.28,384.48 521.28,32.3999 74.8799,32.3999" fill="#ffffff"/>
   <polyline stroke="#262626" stroke-width="0.5" stroke-linecap="butt" stroke-linejoin="miter" points="74.8799,384.48 74.8799,380.015" fill="none"/>
   <polyline stroke="#262626" stroke-width="0.5" stroke-linecap="butt" stroke-linejoin="miter" points="74.8799,32.3999 74.8799,36.8652" fill="none"/>
   <polyline stroke="#262626" stroke-width="0.5" stroke-linecap="butt" stroke-linejoin="miter" points="149.28,384.48 149.28,380.015" fill="none"/>
   <polyline stroke="#262626" stroke-width="0.5" stroke-linecap="butt" stroke-linejoin="miter" points="149.28,32.3999 149.28,36.8652" fill="none"/>
   <polyline stroke="#262626" stroke-width="0.5" stroke-linecap="butt" stroke-linejoin="miter" points="223.68,384.48 223.68,380.015" fill="none"/>
   <polyline stroke="#262626" stroke-width="0.5" stroke-linecap="butt" stroke-linejoin="miter" points="223.68,32.3999 223.68,36.8652" fill="none"/>
   <polyline stroke="#262626" stroke-width="0.5" stroke-linecap="butt" stroke-linejoin="miter" points="298.08,384.48 298.08,380.015" fill="none"/>
   <polyline stroke="#262626" stroke-width="0.5" stroke-linecap="butt" stroke-linejoin="miter" points="298.08,32.3999 298.08,36.8652" fill="none"/>
   <polyline stroke="#262626" stroke-width="0.5" stroke-linecap="butt" stroke-linejoin="miter" points="372.48,384.48 372.48,380.015" fill="none"/>
   <polyline stroke="#262626" stroke-width="0.5" stroke-linecap="butt" stroke-linejoin="miter" points="372.48,32.3999 372.48,36.8652" fill="none"/>
   <polyline stroke="#262626" stroke-width="0.5" stroke-linecap="butt" stroke-linejoin="miter" points="446.88,384.48 446.88,380.015" fill="none"/>
   <polyline stroke="#262626" stroke-width="0.5" stroke-linecap="butt" stroke-linejoin="miter" points="446.88,32.3999 446.88,36.8652" fill="none"/>
   <polyline stroke="#262626" stroke-width="0.5" stroke-linecap="butt" stroke-linejoin="miter" points="521.28,384.48 521.28,380.015" fill="none"/>
   <polyline stroke="#262626" stroke-width="0.5" stroke-linecap="butt" stroke-linejoin="miter" points="521.28,32.3999 521.28,36.8652" fill="none"/>
   <text font-style="normal" font-family="FreeSans" xml:space="preserve" font-weight="normal" transform="translate(59.88,399.982) rotate(-0,15,-8)" font-size="10">
    <tspan x="0 3 9 12 18 24 " y="-0" fill="rgb(38,38,38)">-0.003</tspan>
   </text>
   <text font-style="normal" font-family="FreeSans" xml:space="preserve" font-weight="normal" transform="translate(134.28,399.982) rotate(-0,15,-8)" font-size="10">
    <tspan x="0 3 9 12 18 24 " y="-0" fill="rgb(38,38,38)">-0.002</tspan>
   </text>
   <text font-style="normal" font-family="FreeSans" xml:space="preserve" font-weight="normal" transform="translate(208.68,399.982) rotate(-0,15,-8)" font-size="10">
    <tspan x="0 3 9 12 18 24 " y="-0" fill="rgb(38,38,38)">-0.001</tspan>
   </text>
   <text font-style="normal" font-family="FreeSans" xml:space="preserve" font-weight="normal" transform="translate(295.08,399.982) rotate(-0,3,-8)" font-size="10">
    <tspan x="0 " y="-0" fill="rgb(38,38,38)">0</tspan>
   </text>
   <text font-style="normal" font-family="FreeSans" xml:space="preserve" font-weight="normal" transform="translate(358.98,399.982) rotate(-0,13.5,-8)" font-size="10">
    <tspan x="0 6 9 15 21 " y="-0" fill="rgb(38,38,38)">0.001</tspan>
   </text>
   <text font-style="normal" font-family="FreeSans" xml:space="preserve" font-weight="normal" transform="translate(433.38,399.982) rotate(-0,13.5,-8)" font-size="10">
    <tspan x="0 6 9 15 21 " y="-0" fill="rgb(38,38,38)">0.002</tspan>
   </text>
   <text font-style="normal" font-family="FreeSans" xml:space="preserve" font-weight="normal" transform="translate(507.78,399.982) rotate(-0,13.5,-8)" font-size="10">
    <tspan x="0 6 9 15 21 " y="-0" fill="rgb(38,38,38)">0.003</tspan>
   </text>
   <polyline stroke="#262626" stroke-width="0.5" stroke-linecap="butt" stroke-linejoin="miter" points="74.8799,384.48 79.3481,384.48" fill="none"/>
   <polyline stroke="#262626" stroke-width="0.5" stroke-linecap="butt" stroke-linejoin="miter" points="521.28,384.48 516.812,384.48" fill="none"/>
   <polyline stroke="#262626" stroke-width="0.5" stroke-linecap="butt" stroke-linejoin="miter" points="74.8799,296.46 79.3481,296.46" fill="none"/>
   <polyline stroke="#262626" stroke-width="0.5" stroke-linecap="butt" stroke-linejoin="miter" points="521.28,296.46 516.812,296.46" fill="none"/>
   <polyline stroke="#262626" stroke-width="0.5" stroke-linecap="butt" stroke-linejoin="miter" points="74.8799,208.44 79.3481,208.44" fill="none"/>
   <polyline stroke="#262626" stroke-width="0.5" stroke-linecap="butt" stroke-linejoin="miter" points="521.28,208.44 516.812,208.44" fill="none"/>
   <polyline stroke="#262626" stroke-width="0.5" stroke-linecap="butt" stroke-linejoin="miter" points="74.8799,120.42 79.3481,120.42" fill="none"/>
   <polyline stroke="#262626" stroke-width="0.5" stroke-linecap="butt" stroke-linejoin="miter" points="521.28,120.42 516.812,120.42" fill="none"/>
   <polyline stroke="#262626" stroke-width="0.5" stroke-linecap="butt" stroke-linejoin="miter" points="74.8799,32.3999 79.3481,32.3999" fill="none"/>
   <polyline stroke="#262626" stroke-width="0.5" stroke-linecap="butt" stroke-linejoin="miter" points="521.28,32.3999 516.812,32.3999" fill="none"/>
   <text font-style="normal" font-family="FreeSans" xml:space="preserve" font-weight="normal" transform="translate(28.8755,388.48) rotate(-0,41,-4)" font-size="10">
    <tspan x="0 3 9 12 18 23 29 35 " y="-0" fill="rgb(38,38,38)">-1.5e+07</tspan>
   </text>
   <text font-style="normal" font-family="FreeSans" xml:space="preserve" font-weight="normal" transform="translate(37.8755,300.46) rotate(-0,32,-4)" font-size="10">
    <tspan x="0 3 9 14 20 26 " y="-0" fill="rgb(38,38,38)">-1e+07</tspan>
   </text>
   <text font-style="normal" font-family="FreeSans" xml:space="preserve" font-weight="normal" transform="translate(37.8755,212.44) rotate(-0,32,-4)" font-size="10">
    <tspan x="0 3 9 14 20 26 " y="-0" fill="rgb(38,38,38)">-5e+06</tspan>
   </text>
   <text font-style="normal" font-family="FreeSans" xml:space="preserve" font-weight="normal" transform="translate(63.8755,124.42) rotate(-0,6,-4)" font-size="10">
    <tspan x="0 " y="-0" fill="rgb(38,38,38)">0</tspan>
   </text>
   <text font-style="normal" font-family="FreeSans" xml:space="preserve" font-weight="normal" transform="translate(40.8755,36.4) rotate(-0,29,-4)" font-size="10">
    <tspan x="0 6 11 17 23 " y="-0" fill="rgb(38,38,38)">5e+06</tspan>
   </text>
   <polyline stroke-dasharray="16,0" stroke="#262626" stroke-width="0.5" stroke-linecap="square" stroke-linejoin="miter" points="74.8799,384.48 521.28,384.48" fill="none"/>
   <polyline stroke-dasharray="16,0" stroke="#262626" stroke-width="0.5" stroke-linecap="square" stroke-linejoin="miter" points="74.8799,32.3999 521.28,32.3999" fill="none"/>
   <polyline stroke-dasharray="16,0" stroke="#262626" stroke-width="0.5" stroke-linecap="square" stroke-linejoin="miter" points="74.8799,384.48 74.8799,32.3999" fill="none"/>
   <polyline stroke-dasharray="16,0" stroke="#262626" stroke-width="0.5" stroke-linecap="square" stroke-linejoin="miter" points="521.28,384.48 521.28,32.3999" fill="none"/>
   <text font-style="normal" font-family="FreeSans" xml:space="preserve" font-weight="normal" transform="translate(294.58,413.982) rotate(-0,3.5,-9)" font-size="11">
    <tspan x="0 " y="-0" fill="rgb(38,38,38)">Z</tspan>
   </text>
   <text font-style="normal" font-family="FreeSans" xml:space="preserve" font-weight="normal" transform="translate(8.87552,208.44) rotate(-90,15,0)" font-size="11">
    <tspan x="0 7 9 15 24 " y="-2" fill="rgb(38,38,38)">Sigma</tspan>
   </text>
   <text font-style="normal" font-family="FreeSans" xml:space="preserve" font-weight="bold" transform="translate(199.08,22.4) rotate(-0,99,0)" font-size="11">
    <tspan x="0 7 14 20 24 34 40 43 46 54 61 67 70 76 82 85 91 94 98 101 108 111 118 128 134 137 144 151 154 161 168 171 175 181 187 194 " y="-3" fill="rgb(0,0,0)">Thermal Analysis - Sigma XX LE (90°)</tspan>
   </text>
   <polyline stroke="#0071bc" stroke-width="2" stroke-linecap="butt" stroke-linejoin="round" points="74.8809,67.7783 112.08,71.6895 149.28,70.2617 186.48,63.4941 223.679,51.3877 223.681,217.317 260.88,301.283 298.08,329.272 335.28,301.283 372.479,217.317 372.481,51.3877 409.68,63.4941 446.88,70.2617 484.08,71.6895 521.279,67.7783" fill="none"/>
  </g>
  <clipPath id="cp00576432">
   <polygon points="0,432 576,432 576,0 0,0"/>
  </clipPath>
  <g clip-path="url(#cp00576432)">
   <polygon shape-rendering="crispEdges" points="444.05,60.0005 509.737,60.0005 509.737,43.9434 444.05,43.9434" fill="#ffffff"/>
   <polyline stroke-dasharray="16,0" stroke="#262626" stroke-width="0.5" stroke-linecap="square" stroke-linejoin="miter" points="444.05,60.0005 509.737,60.0005" fill="none"/>
   <polyline stroke-dasharray="16,0" stroke="#262626" stroke-width="0.5" stroke-linecap="square" stroke-linejoin="miter" points="444.05,43.9434 509.737,43.9434" fill="none"/>
   <polyline stroke-dasharray="16,0" stroke="#262626" stroke-width="0.5" stroke-linecap="square" stroke-linejoin="miter" points="444.05,60.0005 444.05,43.9434" fill="none"/>
   <polyline stroke-dasharray="16,0" stroke="#262626" stroke-width="0.5" stroke-linecap="square" stroke-linejoin="miter" points="509.737,60.0005 509.737,43.9434" fill="none"/>
   <text font-style="normal" font-family="FreeSans" xml:space="preserve" font-weight="normal" transform="translate(472.427,56.972) rotate(-0,-0,-5)" font-size="9">
    <tspan x="0 4 6 11 18 23 25 29 " y="-2" fill="rgb(0,0,0)">sigma xx</tspan>
   </text>
   <polyline stroke="#0071bc" stroke-width="2" stroke-linecap="butt" stroke-linejoin="round" points="447.417,51.9722 469.06,51.9722" fill="none"/>
  </g>
 </g>
</svg>
