<?xml version='1.0' encoding='UTF-8' standalone='no'?>
<svg viewBox="0 0 576 432" height="432pt" xmlns:xlink="http://www.w3.org/1999/xlink" width="576pt" xmlns="http://www.w3.org/2000/svg">
 <title>gl2ps_renderer figure</title>
 <desc>
Creator: GL2PS 1.4.2, (C) 1999-2020 C. Geuzaine
For: Octave
CreationDate: Thu Jan 28 17:40:26 2021
</desc>
 <defs/>
 <polygon fill="#ffffff" points="0,0 576,0 576,432 0,432"/>
 <g>
  <polygon shape-rendering="crispEdges" fill="#ffffff" points="0,432 576,432 576,0 0,0"/>
  <clipPath id="cp00576432">
   <polygon points="0,432 576,432 576,0 0,0"/>
  </clipPath>
  <g clip-path="url(#cp00576432)">
   <polygon shape-rendering="crispEdges" fill="#ffffff" points="74.8799,384.48 521.28,384.48 521.28,32.3999 74.8799,32.3999"/>
   <polyline stroke-linejoin="miter" fill="none" points="74.8799,384.48 74.8799,380.015" stroke-linecap="butt" stroke="#262626" stroke-width="0.5"/>
   <polyline stroke-linejoin="miter" fill="none" points="74.8799,32.3999 74.8799,36.8652" stroke-linecap="butt" stroke="#262626" stroke-width="0.5"/>
   <polyline stroke-linejoin="miter" fill="none" points="149.28,384.48 149.28,380.015" stroke-linecap="butt" stroke="#262626" stroke-width="0.5"/>
   <polyline stroke-linejoin="miter" fill="none" points="149.28,32.3999 149.28,36.8652" stroke-linecap="butt" stroke="#262626" stroke-width="0.5"/>
   <polyline stroke-linejoin="miter" fill="none" points="223.68,384.48 223.68,380.015" stroke-linecap="butt" stroke="#262626" stroke-width="0.5"/>
   <polyline stroke-linejoin="miter" fill="none" points="223.68,32.3999 223.68,36.8652" stroke-linecap="butt" stroke="#262626" stroke-width="0.5"/>
   <polyline stroke-linejoin="miter" fill="none" points="298.08,384.48 298.08,380.015" stroke-linecap="butt" stroke="#262626" stroke-width="0.5"/>
   <polyline stroke-linejoin="miter" fill="none" points="298.08,32.3999 298.08,36.8652" stroke-linecap="butt" stroke="#262626" stroke-width="0.5"/>
   <polyline stroke-linejoin="miter" fill="none" points="372.48,384.48 372.48,380.015" stroke-linecap="butt" stroke="#262626" stroke-width="0.5"/>
   <polyline stroke-linejoin="miter" fill="none" points="372.48,32.3999 372.48,36.8652" stroke-linecap="butt" stroke="#262626" stroke-width="0.5"/>
   <polyline stroke-linejoin="miter" fill="none" points="446.88,384.48 446.88,380.015" stroke-linecap="butt" stroke="#262626" stroke-width="0.5"/>
   <polyline stroke-linejoin="miter" fill="none" points="446.88,32.3999 446.88,36.8652" stroke-linecap="butt" stroke="#262626" stroke-width="0.5"/>
   <polyline stroke-linejoin="miter" fill="none" points="521.28,384.48 521.28,380.015" stroke-linecap="butt" stroke="#262626" stroke-width="0.5"/>
   <polyline stroke-linejoin="miter" fill="none" points="521.28,32.3999 521.28,36.8652" stroke-linecap="butt" stroke="#262626" stroke-width="0.5"/>
   <text transform="translate(59.88,399.982) rotate(-0,15,-8)" xml:space="preserve" font-style="normal" font-size="10" font-weight="normal" font-family="FreeSans">
    <tspan y="-0" x="0 3 9 12 18 24 " fill="rgb(38,38,38)">-0.003</tspan>
   </text>
   <text transform="translate(134.28,399.982) rotate(-0,15,-8)" xml:space="preserve" font-style="normal" font-size="10" font-weight="normal" font-family="FreeSans">
    <tspan y="-0" x="0 3 9 12 18 24 " fill="rgb(38,38,38)">-0.002</tspan>
   </text>
   <text transform="translate(208.68,399.982) rotate(-0,15,-8)" xml:space="preserve" font-style="normal" font-size="10" font-weight="normal" font-family="FreeSans">
    <tspan y="-0" x="0 3 9 12 18 24 " fill="rgb(38,38,38)">-0.001</tspan>
   </text>
   <text transform="translate(295.08,399.982) rotate(-0,3,-8)" xml:space="preserve" font-style="normal" font-size="10" font-weight="normal" font-family="FreeSans">
    <tspan y="-0" x="0 " fill="rgb(38,38,38)">0</tspan>
   </text>
   <text transform="translate(358.98,399.982) rotate(-0,13.5,-8)" xml:space="preserve" font-style="normal" font-size="10" font-weight="normal" font-family="FreeSans">
    <tspan y="-0" x="0 6 9 15 21 " fill="rgb(38,38,38)">0.001</tspan>
   </text>
   <text transform="translate(433.38,399.982) rotate(-0,13.5,-8)" xml:space="preserve" font-style="normal" font-size="10" font-weight="normal" font-family="FreeSans">
    <tspan y="-0" x="0 6 9 15 21 " fill="rgb(38,38,38)">0.002</tspan>
   </text>
   <text transform="translate(507.78,399.982) rotate(-0,13.5,-8)" xml:space="preserve" font-style="normal" font-size="10" font-weight="normal" font-family="FreeSans">
    <tspan y="-0" x="0 6 9 15 21 " fill="rgb(38,38,38)">0.003</tspan>
   </text>
   <polyline stroke-linejoin="miter" fill="none" points="74.8799,384.48 79.3481,384.48" stroke-linecap="butt" stroke="#262626" stroke-width="0.5"/>
   <polyline stroke-linejoin="miter" fill="none" points="521.28,384.48 516.812,384.48" stroke-linecap="butt" stroke="#262626" stroke-width="0.5"/>
   <polyline stroke-linejoin="miter" fill="none" points="74.8799,334.183 79.3481,334.183" stroke-linecap="butt" stroke="#262626" stroke-width="0.5"/>
   <polyline stroke-linejoin="miter" fill="none" points="521.28,334.183 516.812,334.183" stroke-linecap="butt" stroke="#262626" stroke-width="0.5"/>
   <polyline stroke-linejoin="miter" fill="none" points="74.8799,283.886 79.3481,283.886" stroke-linecap="butt" stroke="#262626" stroke-width="0.5"/>
   <polyline stroke-linejoin="miter" fill="none" points="521.28,283.886 516.812,283.886" stroke-linecap="butt" stroke="#262626" stroke-width="0.5"/>
   <polyline stroke-linejoin="miter" fill="none" points="74.8799,233.588 79.3481,233.588" stroke-linecap="butt" stroke="#262626" stroke-width="0.5"/>
   <polyline stroke-linejoin="miter" fill="none" points="521.28,233.588 516.812,233.588" stroke-linecap="butt" stroke="#262626" stroke-width="0.5"/>
   <polyline stroke-linejoin="miter" fill="none" points="74.8799,183.292 79.3481,183.292" stroke-linecap="butt" stroke="#262626" stroke-width="0.5"/>
   <polyline stroke-linejoin="miter" fill="none" points="521.28,183.292 516.812,183.292" stroke-linecap="butt" stroke="#262626" stroke-width="0.5"/>
   <polyline stroke-linejoin="miter" fill="none" points="74.8799,132.994 79.3481,132.994" stroke-linecap="butt" stroke="#262626" stroke-width="0.5"/>
   <polyline stroke-linejoin="miter" fill="none" points="521.28,132.994 516.812,132.994" stroke-linecap="butt" stroke="#262626" stroke-width="0.5"/>
   <polyline stroke-linejoin="miter" fill="none" points="74.8799,82.6973 79.3481,82.6973" stroke-linecap="butt" stroke="#262626" stroke-width="0.5"/>
   <polyline stroke-linejoin="miter" fill="none" points="521.28,82.6973 516.812,82.6973" stroke-linecap="butt" stroke="#262626" stroke-width="0.5"/>
   <polyline stroke-linejoin="miter" fill="none" points="74.8799,32.3999 79.3481,32.3999" stroke-linecap="butt" stroke="#262626" stroke-width="0.5"/>
   <polyline stroke-linejoin="miter" fill="none" points="521.28,32.3999 516.812,32.3999" stroke-linecap="butt" stroke="#262626" stroke-width="0.5"/>
   <text transform="translate(28.8755,388.48) rotate(-0,41,-4)" xml:space="preserve" font-style="normal" font-size="10" font-weight="normal" font-family="FreeSans">
    <tspan y="-0" x="0 3 9 12 18 23 29 35 " fill="rgb(38,38,38)">-2.5e+06</tspan>
   </text>
   <text transform="translate(37.8755,338.183) rotate(-0,32,-4)" xml:space="preserve" font-style="normal" font-size="10" font-weight="normal" font-family="FreeSans">
    <tspan y="-0" x="0 3 9 14 20 26 " fill="rgb(38,38,38)">-2e+06</tspan>
   </text>
   <text transform="translate(28.8755,287.886) rotate(-0,41,-4)" xml:space="preserve" font-style="normal" font-size="10" font-weight="normal" font-family="FreeSans">
    <tspan y="-0" x="0 3 9 12 18 23 29 35 " fill="rgb(38,38,38)">-1.5e+06</tspan>
   </text>
   <text transform="translate(37.8755,237.589) rotate(-0,32,-4)" xml:space="preserve" font-style="normal" font-size="10" font-weight="normal" font-family="FreeSans">
    <tspan y="-0" x="0 3 9 14 20 26 " fill="rgb(38,38,38)">-1e+06</tspan>
   </text>
   <text transform="translate(30.8755,187.291) rotate(-0,39,-4)" xml:space="preserve" font-style="normal" font-size="10" font-weight="normal" font-family="FreeSans">
    <tspan y="-0" x="0 3 9 15 21 27 33 " fill="rgb(38,38,38)">-500000</tspan>
   </text>
   <text transform="translate(63.8755,136.994) rotate(-0,6,-4)" xml:space="preserve" font-style="normal" font-size="10" font-weight="normal" font-family="FreeSans">
    <tspan y="-0" x="0 " fill="rgb(38,38,38)">0</tspan>
   </text>
   <text transform="translate(33.8755,86.6971) rotate(-0,36,-4)" xml:space="preserve" font-style="normal" font-size="10" font-weight="normal" font-family="FreeSans">
    <tspan y="-0" x="0 6 12 18 24 30 " fill="rgb(38,38,38)">500000</tspan>
   </text>
   <text transform="translate(40.8755,36.4) rotate(-0,29,-4)" xml:space="preserve" font-style="normal" font-size="10" font-weight="normal" font-family="FreeSans">
    <tspan y="-0" x="0 6 11 17 23 " fill="rgb(38,38,38)">1e+06</tspan>
   </text>
   <polyline stroke-linejoin="miter" fill="none" points="74.8799,384.48 521.28,384.48" stroke-linecap="square" stroke="#262626" stroke-width="0.5" stroke-dasharray="16,0"/>
   <polyline stroke-linejoin="miter" fill="none" points="74.8799,32.3999 521.28,32.3999" stroke-linecap="square" stroke="#262626" stroke-width="0.5" stroke-dasharray="16,0"/>
   <polyline stroke-linejoin="miter" fill="none" points="74.8799,384.48 74.8799,32.3999" stroke-linecap="square" stroke="#262626" stroke-width="0.5" stroke-dasharray="16,0"/>
   <polyline stroke-linejoin="miter" fill="none" points="521.28,384.48 521.28,32.3999" stroke-linecap="square" stroke="#262626" stroke-width="0.5" stroke-dasharray="16,0"/>
   <text transform="translate(294.58,413.982) rotate(-0,3.5,-9)" xml:space="preserve" font-style="normal" font-size="11" font-weight="normal" font-family="FreeSans">
    <tspan y="-0" x="0 " fill="rgb(38,38,38)">Z</tspan>
   </text>
   <text transform="translate(8.87552,208.44) rotate(-90,15,0)" xml:space="preserve" font-style="normal" font-size="11" font-weight="normal" font-family="FreeSans">
    <tspan y="-2" x="0 7 9 15 24 " fill="rgb(38,38,38)">Sigma</tspan>
   </text>
   <text transform="translate(181.58,22.4) rotate(-0,116.5,0)" xml:space="preserve" font-style="normal" font-size="11" font-weight="bold" font-family="FreeSans">
    <tspan y="-3" x="0 7 14 20 24 34 40 43 46 54 61 67 70 76 82 85 91 94 98 101 108 111 118 128 134 137 144 151 154 158 164 170 177 181 184 187 194 201 204 210 216 219 226 " fill="rgb(0,0,0)">Thermal Analysis - Sigma ZZ (45°): LE vs TE</tspan>
   </text>
   <polyline stroke-linejoin="round" fill="none" points="74.8809,132.353 112.08,139.314 149.28,131.045 186.48,107.544 223.679,68.8135 223.681,134.282 260.88,287.801 298.08,338.975 335.28,287.801 372.479,134.282 372.481,68.8135 409.68,107.544 446.88,131.045 484.08,139.314 521.279,132.353" stroke-linecap="butt" stroke="#0071bc" stroke-width="2"/>
   <polyline stroke-linejoin="round" fill="none" points="74.8809,144.372 112.08,144.372 149.28,144.372 186.48,144.372 223.679,144.372 223.681,109.969 260.88,109.969 298.08,109.969 335.28,109.969 372.479,109.969 372.481,144.372 409.68,144.372 446.88,144.372 484.08,144.372 521.279,144.372" stroke-linecap="butt" stroke="#d85218" stroke-width="2"/>
   <polyline stroke-linejoin="round" fill="none" points="74.8809,157.37 112.08,157.757 149.28,158.075 186.48,158.322 223.679,158.498 223.681,86.2822 260.88,86.3901 298.08,86.4258 335.28,86.3901 372.479,86.2822 372.481,158.498 409.68,158.322 446.88,158.075 484.08,157.757 521.279,157.37" stroke-linecap="butt" stroke="#ecb01f" stroke-width="2"/>
   <polyline stroke-linejoin="round" fill="none" points="74.8809,99.769 112.08,126.193 149.28,147.813 186.48,164.628 223.679,176.64 223.681,104.42 260.88,111.624 298.08,114.025 335.28,111.624 372.479,104.42 372.481,176.64 409.68,164.628 446.88,147.813 484.08,126.193 521.279,99.769" stroke-linecap="butt" stroke="#7d2e8d" stroke-width="2"/>
   <polyline stroke-linejoin="round" fill="none" points="74.8809,127.665 112.08,115.34 149.28,130.938 186.48,159.05 223.679,187.689 223.681,115.878 260.88,136.699 298.08,144.22 335.28,136.699 372.479,115.878 372.481,187.689 409.68,159.05 446.88,130.938 484.08,115.34 521.279,127.665" stroke-linecap="butt" stroke="#76ab2f" stroke-width="0.5"/>
   <polyline stroke-linejoin="round" fill="none" points="74.8809,217.357 112.08,110.269 149.28,99.3911 186.48,138.683 223.679,192.328 223.681,120.519 260.88,163.158 298.08,179.086 335.28,163.158 372.479,120.519 372.481,192.328 409.68,138.683 446.88,99.3911 484.08,110.269 521.279,217.357" stroke-linecap="butt" stroke="#4cbded" stroke-width="2"/>
   <polyline stroke-linejoin="round" fill="none" points="74.8809,134.243 112.08,143.345 149.28,109.648 186.48,136.069 223.679,215.729 223.681,144.312 260.88,226.542 298.08,260.579 335.28,226.542 372.479,144.312 372.481,215.729 409.68,136.069 446.88,109.648 484.08,143.345 521.279,134.243" stroke-linecap="butt" stroke="#a1132e" stroke-width="2"/>
  </g>
  <clipPath id="cp00576432">
   <polygon points="0,432 576,432 576,0 0,0"/>
  </clipPath>
  <g clip-path="url(#cp00576432)">
   <polygon shape-rendering="crispEdges" fill="#ffffff" points="458.45,141.945 509.737,141.945 509.737,43.9434 458.45,43.9434"/>
   <polyline stroke-linejoin="miter" fill="none" points="458.45,141.945 509.737,141.945" stroke-linecap="square" stroke="#262626" stroke-width="0.5" stroke-dasharray="16,0"/>
   <polyline stroke-linejoin="miter" fill="none" points="458.45,43.9434 509.737,43.9434" stroke-linecap="square" stroke="#262626" stroke-width="0.5" stroke-dasharray="16,0"/>
   <polyline stroke-linejoin="miter" fill="none" points="458.45,141.945 458.45,43.9434" stroke-linecap="square" stroke="#262626" stroke-width="0.5" stroke-dasharray="16,0"/>
   <polyline stroke-linejoin="miter" fill="none" points="509.737,141.945 509.737,43.9434" stroke-linecap="square" stroke="#262626" stroke-width="0.5" stroke-dasharray="16,0"/>
   <text transform="translate(486.827,54.9434) rotate(-0,-0,-4)" xml:space="preserve" font-style="normal" font-size="9" font-weight="normal" font-family="FreeSans">
    <tspan y="-0" x="0 5 " fill="rgb(0,0,0)">LE</tspan>
   </text>
   <text transform="translate(486.827,68.9436) rotate(-0,-0,-4)" xml:space="preserve" font-style="normal" font-size="9" font-weight="normal" font-family="FreeSans">
    <tspan y="-0" x="0 6 12 14 " fill="rgb(0,0,0)">TE 1</tspan>
   </text>
   <text transform="translate(486.827,82.9438) rotate(-0,-0,-4)" xml:space="preserve" font-style="normal" font-size="9" font-weight="normal" font-family="FreeSans">
    <tspan y="-0" x="0 6 12 14 " fill="rgb(0,0,0)">TE 2</tspan>
   </text>
   <text transform="translate(486.827,96.9441) rotate(-0,-0,-4)" xml:space="preserve" font-style="normal" font-size="9" font-weight="normal" font-family="FreeSans">
    <tspan y="-0" x="0 6 12 14 " fill="rgb(0,0,0)">TE 3</tspan>
   </text>
   <text transform="translate(486.827,110.944) rotate(-0,-0,-4)" xml:space="preserve" font-style="normal" font-size="9" font-weight="normal" font-family="FreeSans">
    <tspan y="-0" x="0 6 12 14 " fill="rgb(0,0,0)">TE 4</tspan>
   </text>
   <text transform="translate(486.827,124.944) rotate(-0,-0,-4)" xml:space="preserve" font-style="normal" font-size="9" font-weight="normal" font-family="FreeSans">
    <tspan y="-0" x="0 6 12 14 " fill="rgb(0,0,0)">TE 5</tspan>
   </text>
   <text transform="translate(486.827,138.945) rotate(-0,-0,-4)" xml:space="preserve" font-style="normal" font-size="9" font-weight="normal" font-family="FreeSans">
    <tspan y="-0" x="0 6 12 14 " fill="rgb(0,0,0)">TE 6</tspan>
   </text>
   <polyline stroke-linejoin="round" fill="none" points="461.816,50.9434 483.46,50.9434" stroke-linecap="butt" stroke="#0071bc" stroke-width="2"/>
   <polyline stroke-linejoin="round" fill="none" points="461.816,64.9438 483.46,64.9438" stroke-linecap="butt" stroke="#d85218" stroke-width="2"/>
   <polyline stroke-linejoin="round" fill="none" points="461.816,78.9438 483.46,78.9438" stroke-linecap="butt" stroke="#ecb01f" stroke-width="2"/>
   <polyline stroke-linejoin="round" fill="none" points="461.816,92.9438 483.46,92.9438" stroke-linecap="butt" stroke="#7d2e8d" stroke-width="2"/>
   <polyline stroke-linejoin="round" fill="none" points="461.816,106.944 483.46,106.944" stroke-linecap="butt" stroke="#76ab2f" stroke-width="0.5"/>
   <polyline stroke-linejoin="round" fill="none" points="461.816,120.944 483.46,120.944" stroke-linecap="butt" stroke="#4cbded" stroke-width="2"/>
   <polyline stroke-linejoin="round" fill="none" points="461.816,134.945 483.46,134.945" stroke-linecap="butt" stroke="#a1132e" stroke-width="2"/>
  </g>
 </g>
</svg>
